<?xml version="1.0" encoding="UTF-8"?>
<svg width="132px" height="44px" viewBox="0 0 132 44" version="1.1" xmlns="http://www.w3.org/2000/svg" xmlns:xlink="http://www.w3.org/1999/xlink">
    <!-- Generator: Sketch 52 (66869) - http://www.bohemiancoding.com/sketch -->
    <title>app-apple_en</title>
    <desc>Created with Sketch.</desc>
    <g id="Page-1" stroke="none" stroke-width="1" fill="none" fill-rule="evenodd">
        <g id="app-apple_en">
            <g id="Group">
                <g id="Path">
                    <path d="M121.148247,-2.71050543e-20 L10.488148,-2.71050543e-20 C10.084778,-2.71050543e-20 9.686248,-2.71050543e-20 9.283945,0.0022 C8.94718,0.0044 8.613099,0.010791 8.2731,0.01617 C7.53446505,0.024861984 6.79756712,0.0898438859 6.06881,0.210551 C5.34107649,0.333885891 4.63613977,0.566407314 3.977842,0.900251 C3.32034935,1.23691888 2.71957952,1.67438428 2.197327,2.196777 C1.67233275,2.71770069 1.2347095,3.31981802 0.901285,3.979976 C0.566940266,4.63882003 0.335104548,5.34483213 0.213785,6.073628 C0.0913120353,6.8015034 0.0254082187,7.5377726 0.016665,8.275828 C0.006457,8.613088 0.005379,8.95147 0,9.288774 L0,34.71446 C0.005379,35.05601 0.006457,35.38689 0.016665,35.72855 C0.0254108998,36.4665688 0.0913147175,37.2028012 0.213785,37.93064 C0.334769548,38.6598619 0.566618974,39.3662793 0.901285,40.02537 C1.23455811,40.6833932 1.67224289,41.2830728 2.197327,41.8011 C2.7175993,42.3258155 3.31875746,42.7635785 3.977842,43.09767 C4.63613477,43.4324072 5.34099549,43.6663126 6.06881,43.79155 C6.79769101,43.9112902 7.53451315,43.9762985 8.2731,43.98603 C8.613099,43.99351 8.94718,43.9978 9.283945,43.9978 C9.686237,44 10.0848,44 10.488148,44 L121.148247,44 C121.543587,44 121.945307,44 122.340647,43.9978 C122.675817,43.9978 123.019567,43.99351 123.354737,43.98603 C124.091927,43.9768161 124.827362,43.9118036 125.554737,43.79155 C126.284899,43.665431 126.992287,43.4315875 127.653757,43.09767 C128.312247,42.7633851 128.91285,42.325634 129.432677,41.8011 C129.956406,41.281044 130.395026,40.681803 130.732437,40.02537 C131.064592,39.3657998 131.294234,38.6594389 131.413447,37.93064 C131.536113,37.2027014 131.604356,36.4666327 131.617607,35.72855 C131.621897,35.38689 131.621897,35.05601 131.621897,34.71446 C131.630477,34.31483 131.630477,33.9174 131.630477,33.51128 L131.630477,10.489743 C131.630477,10.086912 131.630477,9.687304 131.621897,9.288774 C131.621897,8.95147 131.621897,8.613088 131.617607,8.275784 C131.604358,7.53766469 131.536116,6.80155924 131.413447,6.073584 C131.293902,5.34520976 131.064273,4.6392536 130.732437,3.979932 C130.053434,2.65671569 128.976731,1.57962794 127.653757,0.900152 C126.992285,0.567124118 126.284822,0.334664451 125.554737,0.210452 C124.827488,0.0892130615 124.091977,0.0242085414 123.354737,0.016016 C123.019567,0.010648 122.675817,0.004202 122.340647,0.002057 C121.945307,-0.000143 121.543587,-0.000143 121.148247,-0.000143 L121.148247,-2.71050543e-20 Z" fill="#A6A6A6"></path>
                    <path d="M9.289313,43.0375 C8.954165,43.0375 8.627113,43.03321 8.294594,43.02573 C7.60575395,43.0167548 6.91852389,42.9567875 6.23854,42.84632 C5.60448933,42.737121 4.99026467,42.5339909 4.416126,42.24363 C3.84725187,41.9556749 3.32839294,41.5781001 2.879426,41.12537 C2.42396036,40.6779728 2.04476441,40.1590684 1.756865,39.58922 C1.46579319,39.0156681 1.26435417,38.4008895 1.159565,37.7663 C1.04640179,37.0844264 0.985175811,36.3949446 0.976415,35.7038 C0.969441,35.47181 0.960311,34.69939 0.960311,34.69939 L0.960311,9.288774 C0.960311,9.288774 0.970035,8.528223 0.97647,8.30478 C0.984858409,7.61473025 1.04572836,6.92631841 1.158553,6.245503 C1.2635356,5.60917509 1.46513056,4.99262375 1.756359,4.417193 C2.04320031,3.84773823 2.42029104,3.32844632 2.873013,2.879448 C3.32522611,2.42618356 3.84574477,2.04666453 4.415587,1.754731 C4.98840613,1.46530296 5.60146999,1.2636058 6.234239,1.156397 C6.91645607,1.04481975 7.60607192,0.984495693 8.2973,0.975931 L9.289852,0.9625 L122.335257,0.9625 L123.339667,0.97647 C124.024608,0.984609117 124.707959,1.04439501 125.383907,1.155319 C126.023082,1.26387257 126.642535,1.46697709 127.221897,1.757954 C128.363497,2.34628465 129.292396,3.27707924 129.878397,4.419877 C130.164977,4.99133532 130.363462,5.60285743 130.467117,6.233689 C130.581285,6.92009052 130.645182,7.61391217 130.658297,8.30962 C130.661487,8.62114 130.661487,8.95576 130.661487,9.288774 C130.670177,9.701274 130.670177,10.093897 130.670177,10.489743 L130.670177,33.51128 C130.670177,33.91091 130.670177,34.30086 130.661487,34.694 C130.661487,35.05172 130.661487,35.37941 130.657197,35.71667 C130.644366,36.3999632 130.581534,37.0814007 130.469207,37.75552 C130.366566,38.3946873 130.166223,39.0142644 129.875207,39.59252 C129.585272,40.1561832 129.208254,40.6705928 128.758047,41.11679 C128.308676,41.5719531 127.788902,41.951737 127.218707,42.24154 C126.64095,42.534133 126.022408,42.7380143 125.383907,42.84632 C124.703975,42.9573771 124.016679,43.0173482 123.327787,43.02573 C123.005597,43.03321 122.668227,43.0375 122.340647,43.0375 L121.148247,43.0397 L9.289313,43.0375 Z" fill="#000000"></path>
                </g>
                <g id="_Group_" transform="translate(9.900000, 8.800000)" fill="#FFFFFF">
                    <g id="_Group_2">
                        <g id="_Group_3">
                            <path d="M17.345768,13.530748 C17.3698107,11.66463 18.3481352,9.94090472 19.937984,8.963482 C18.9304639,7.52456405 17.3034312,6.64496619 15.547708,6.590034 C13.700544,6.396148 11.909799,7.695347 10.968518,7.695347 C10.009021,7.695347 8.559771,6.609284 6.999168,6.641393 C4.94582139,6.70773226 3.07795089,7.84687803 2.078956,9.64205 C-0.048444,13.325312 1.538405,18.738467 3.576276,21.715738 C4.595866,23.173623 5.787474,24.802118 7.346669,24.744368 C8.872435,24.681085 9.442279,23.77144 11.284009,23.77144 C13.108645,23.77144 13.643278,24.744368 15.234109,24.70765 C16.871327,24.681074 17.902852,23.243286 18.88667,21.771596 C19.6192437,20.7327997 20.182958,19.5847035 20.556932,18.369835 C18.6124142,17.5473994 17.3480376,15.6420378 17.345768,13.530748 Z" id="_Path_"></path>
                            <path d="M14.340975,4.631979 C15.2336543,3.5603501 15.6734435,2.1829527 15.566947,0.792297 C14.2031316,0.935539536 12.9433482,1.58735464 12.038609,2.617868 C11.1452206,3.63460793 10.6926321,4.96477595 10.780528,6.315397 C12.1626305,6.32962744 13.4749077,5.70916854 14.340975,4.631979 Z" id="_Path_2"></path>
                        </g>
                    </g>
                    <g id="Group" transform="translate(27.500000, 9.900000)">
                        <path d="M9.132497,11.153615 L3.925757,11.153615 L2.675365,14.84571 L0.469997,14.84571 L5.401737,1.18591 L7.693037,1.18591 L12.624777,14.84571 L10.3818,14.84571 L9.132497,11.153615 Z M4.46501,9.449902 L8.59221,9.449902 L6.557639,3.457905 L6.500703,3.457905 L4.46501,9.449902 Z" id="Shape" fill-rule="nonzero"></path>
                        <path d="M23.275659,9.866703 C23.275659,12.961531 21.619213,14.949902 19.119507,14.949902 C17.8274308,15.0174911 16.6103656,14.3407338 15.986014,13.207502 L15.938714,13.207502 L15.938714,18.14032 L13.894474,18.14032 L13.894474,4.886618 L15.87322,4.886618 L15.87322,6.543064 L15.910818,6.543064 C16.5629071,5.41693671 17.7812847,4.74047072 19.081909,4.782415 C21.6095,4.782426 23.275659,6.780466 23.275659,9.866703 Z M21.174483,9.866703 C21.174483,7.850403 20.132486,6.524804 18.542645,6.524804 C16.980733,6.524804 15.930145,7.878321 15.930145,9.866703 C15.930145,11.873345 16.980733,13.217193 18.542645,13.217193 C20.132497,13.217193 21.174483,11.901274 21.174483,9.866703 Z" id="Shape" fill-rule="nonzero"></path>
                        <path d="M34.236983,9.866703 C34.236983,12.961531 32.580537,14.949902 30.080831,14.949902 C28.7887548,15.0174911 27.5716896,14.3407338 26.947338,13.207502 L26.900038,13.207502 L26.900038,18.14032 L24.855798,18.14032 L24.855798,4.886618 L26.8345,4.886618 L26.8345,6.543064 L26.872098,6.543064 C27.5241919,5.41693739 28.7425741,4.74047538 30.0432,4.782426 C32.570868,4.782426 34.236983,6.780466 34.236983,9.866703 Z M32.135807,9.866703 C32.135807,7.850403 31.09381,6.524804 29.503969,6.524804 C27.942057,6.524804 26.891469,7.878321 26.891469,9.866703 C26.891469,11.873345 27.942057,13.217193 29.503969,13.217193 C31.093821,13.217193 32.135818,11.901274 32.135818,9.866703 L32.135807,9.866703 Z" id="Shape" fill-rule="nonzero"></path>
                        <path d="M41.481517,11.039743 C41.632987,12.394338 42.948917,13.283743 44.747142,13.283743 C46.470193,13.283743 47.709838,12.394294 47.709838,11.172898 C47.709838,10.112641 46.962179,9.477798 45.191872,9.042726 L43.421565,8.616256 C40.913268,8.010398 39.748808,6.837347 39.748808,4.93383 C39.748808,2.576992 41.802717,0.958144 44.719213,0.958144 C47.605613,0.958144 49.584348,2.576992 49.650953,4.93383 L47.587353,4.93383 C47.463823,3.570644 46.336961,2.7478 44.690184,2.7478 C43.043407,2.7478 41.916556,3.580324 41.916556,4.79204 C41.916556,5.757763 42.636286,6.326023 44.396924,6.76104 L45.9019,7.130574 C48.704535,7.793368 49.868995,8.919174 49.868995,10.917192 C49.868995,13.472756 47.833346,15.073344 44.59565,15.073344 C41.566349,15.073344 39.521042,13.510354 39.38891,11.039644 L41.481517,11.039743 Z" id="Path"></path>
                        <path d="M54.280831,2.52978 L54.280831,4.886618 L56.174679,4.886618 L56.174679,6.505466 L54.280831,6.505466 L54.280831,11.995797 C54.280831,12.848726 54.660034,13.246189 55.492547,13.246189 C55.7173776,13.2422685 55.9418444,13.2264799 56.16501,13.198889 L56.16501,14.808068 C55.7907112,14.8780055 55.4102679,14.9096799 55.029557,14.902602 C53.013257,14.902602 52.226922,14.145274 52.226922,12.213828 L52.226922,6.505466 L50.778882,6.505466 L50.778882,4.886618 L52.2269,4.886618 L52.2269,2.52978 L54.280831,2.52978 Z" id="Path"></path>
                        <path d="M57.2715,9.866703 C57.2715,6.73321 59.117003,4.764166 61.994845,4.764166 C64.882345,4.764166 66.719257,6.733166 66.719257,9.866703 C66.719257,13.008798 64.892014,14.96924 61.994845,14.96924 C59.098699,14.96924 57.2715,13.008787 57.2715,9.866703 Z M64.636341,9.866703 C64.636341,7.717193 63.65128,6.448541 61.994834,6.448541 C60.338388,6.448541 59.354405,7.726862 59.354405,9.866703 C59.354405,12.024804 60.338388,13.283798 61.994834,13.283798 C63.65128,13.283798 64.636297,12.024804 64.636297,9.866703 L64.636341,9.866703 Z" id="Shape" fill-rule="nonzero"></path>
                        <path d="M68.404666,4.886618 L70.354372,4.886618 L70.354372,6.581718 L70.401672,6.581718 C70.6735657,5.49050525 71.6734178,4.73949471 72.797175,4.782404 C73.0327554,4.78158145 73.2676859,4.80716582 73.497567,4.858678 L73.497567,6.770786 C73.2001611,6.67990765 72.8899156,6.63818242 72.579067,6.647256 C71.97808,6.62287498 71.396458,6.8623882 70.9869176,7.30290657 C70.5773772,7.74342494 70.3808342,8.34093782 70.448895,8.938556 L70.448895,14.845688 L68.404655,14.845688 L68.404666,4.886618 Z" id="Path"></path>
                        <path d="M82.92273,11.920601 C82.64773,13.728506 80.887081,14.969229 78.634446,14.969229 C75.737277,14.969229 73.939041,13.028114 73.939041,9.913959 C73.939041,6.790135 75.746946,4.764155 78.548514,4.764155 C81.303882,4.764155 83.036602,6.656925 83.036602,9.676557 L83.036602,10.376949 L76.002619,10.376949 L76.002619,10.500479 C75.9369462,11.2419138 76.1929647,11.9758314 76.7055519,12.5155469 C77.2181391,13.0552625 77.9378902,13.3487566 78.681724,13.321374 C79.6737505,13.4143236 80.6090374,12.8446754 80.981626,11.92059 L82.92273,11.920601 Z M76.0122686,8.948247 L80.991284,8.948236 C81.028382,8.28200724 80.7858662,7.63050539 80.3221651,7.1506947 C79.8584639,6.67088401 79.2156209,6.40626845 78.548514,6.420601 C77.87613,6.41658845 77.2299998,6.68132809 76.7537381,7.15597657 C76.2774764,7.63062505 76.0105459,8.27585321 76.0122686,8.948247 Z" id="Shape" fill-rule="nonzero"></path>
                    </g>
                </g>
            </g>
            <g id="_Group_4" transform="translate(38.500000, 8.800000)" fill="#FFFFFF">
                <g id="Group">
                    <path d="M3.108809,0.8041 C3.97665021,0.741822599 4.82668149,1.07200217 5.42493742,1.703759 C6.02319335,2.33551583 6.30661446,3.20225927 6.197191,4.065424 C6.197191,6.162299 5.063894,7.367624 3.108809,7.367624 L0.738012,7.367624 L0.738012,0.8041 L3.108809,0.8041 Z M1.757437,6.4394 L2.994937,6.4394 C3.61514114,6.47647221 4.21903518,6.23211491 4.63894037,5.77417697 C5.05884555,5.31623903 5.25005757,4.69347386 5.159484,4.0788 C5.24346792,3.46667699 5.04950224,2.84905084 4.63063818,2.39484738 C4.21177413,1.94064392 3.61184524,1.69739493 2.994937,1.731631 L1.757437,1.731631 L1.757437,6.4394 Z" id="Shape" fill-rule="nonzero"></path>
                    <path d="M7.348748,4.888774 C7.26381384,4.00094756 7.68953203,3.14172313 8.44735752,2.6714571 C9.20518301,2.20119108 10.16409,2.20119108 10.9219155,2.6714571 C11.679741,3.14172313 12.1054592,4.00094756 12.020525,4.888774 C12.1070751,5.77755449 11.6817455,6.63844542 10.9232481,7.10972383 C10.1647507,7.58100224 9.20452233,7.58100224 8.4460249,7.10972383 C7.68752748,6.63844542 7.26219786,5.77755449 7.348748,4.888774 Z M11.015048,4.888774 C11.015048,3.815097 10.53272,3.187217 9.686248,3.187217 C8.836542,3.187217 8.358548,3.815097 8.358548,4.888785 C8.358548,5.971064 8.836575,6.594104 9.686248,6.594104 C10.532742,6.594093 11.015059,5.966752 11.015059,4.888774 L11.015048,4.888774 Z" id="Shape" fill-rule="nonzero"></path>
                    <polygon id="Path" points="18.230586 7.367525 17.216529 7.367525 16.192803 3.719474 16.115462 3.719474 15.096026 7.367525 14.091627 7.367525 12.726296 2.414302 13.717803 2.414302 14.605107 6.193902 14.678158 6.193902 15.696516 2.414302 16.63431 2.414302 17.652668 6.193902 17.730009 6.193902 18.613012 2.414302 19.590549 2.414302"></polygon>
                    <path d="M20.738894,2.414302 L21.6799,2.414302 L21.6799,3.201165 L21.752951,3.201165 C22.0069793,2.62182573 22.6005701,2.26743822 23.231076,2.31869 C23.7192745,2.28198495 24.1976745,2.46926889 24.5311999,2.82766228 C24.8647253,3.18605566 25.0171824,3.67666614 24.945525,4.16097 L24.945525,7.36747 L23.967988,7.36747 L23.967988,4.406446 C23.967988,3.610453 23.622093,3.214596 22.89914,3.214596 C22.5680024,3.19917303 22.2466422,3.32913083 22.0193101,3.57039846 C21.7919779,3.8116661 21.6813465,4.14018111 21.71642,4.469817 L21.71642,7.367525 L20.738883,7.367525 L20.738894,2.414302 Z" id="Path"></path>
                    <polygon id="Path" points="26.503147 0.4807 27.480684 0.4807 27.480684 7.367514 26.503147 7.367514"></polygon>
                    <path d="M28.839569,4.888774 C28.7547001,4.00088947 29.1804854,3.1416433 29.9383671,2.67137002 C30.6962489,2.20109675 31.6552051,2.20109675 32.4130869,2.67137002 C33.1709686,3.1416433 33.5967539,4.00088947 33.511885,4.888774 C33.5983252,5.77758631 33.1729177,6.63845291 32.4143826,7.10971056 C31.6558475,7.58096822 30.6956065,7.58096822 29.9370714,7.10971056 C29.1785363,6.63845291 28.7531288,5.77758631 28.839569,4.888774 Z M32.505869,4.888774 C32.505869,3.815097 32.023541,3.187217 31.177069,3.187217 C30.327363,3.187217 29.849369,3.815097 29.849369,4.888785 C29.849369,5.971064 30.327396,6.594104 31.177069,6.594104 C32.023552,6.594093 32.50588,5.966752 32.50588,4.888774 L32.505869,4.888774 Z" id="Shape" fill-rule="nonzero"></path>
                    <path d="M34.54099,5.966752 C34.54099,5.075147 35.204862,4.561139 36.38327,4.488088 L37.724973,4.410747 L37.724973,3.98321 C37.724973,3.460061 37.379078,3.164656 36.710916,3.164656 C36.165217,3.164656 35.787092,3.364999 35.678588,3.715195 L34.732203,3.715195 C34.832105,2.864411 35.632399,2.318712 36.756027,2.318712 C37.997828,2.318712 38.69822,2.936912 38.69822,3.98321 L38.69822,7.367536 L37.757203,7.367536 L37.757203,6.671445 L37.679862,6.671445 C37.3602555,7.17978397 36.791891,7.47687956 36.192068,7.449145 C35.7715777,7.492883 35.3522083,7.35670173 35.0376354,7.07426769 C34.7230625,6.79183365 34.5426467,6.38950764 34.54099,5.966752 Z M37.724973,5.543505 L37.724973,5.129399 L36.515402,5.20674 C35.83327,5.25239 35.523895,5.484424 35.523895,5.921091 C35.523895,6.366888 35.910611,6.626312 36.442395,6.626312 C36.7571997,6.65817885 37.071459,6.56092256 37.3132324,6.35680715 C37.5550058,6.15269174 37.7035908,5.85919516 37.724973,5.543505 Z" id="Shape" fill-rule="nonzero"></path>
                    <path d="M39.982976,4.888774 C39.982976,3.323639 40.787571,2.332132 42.03903,2.332132 C42.6709545,2.30301515 43.2628103,2.64162015 43.557976,3.201132 L43.631027,3.201132 L43.631027,0.4807 L44.608564,0.4807 L44.608564,7.367514 L43.671848,7.367514 L43.671848,6.584941 L43.594507,6.584941 C43.2770296,7.13981068 42.677882,7.47269212 42.039041,7.449145 C40.77898,7.4492 39.982976,6.457671 39.982976,4.888774 Z M40.992776,4.888774 C40.992776,5.939362 41.487996,6.571543 42.316219,6.571543 C43.140119,6.571543 43.64932,5.930243 43.64932,4.893075 C43.64932,3.860747 43.134773,3.210306 42.316219,3.210306 C41.493331,3.210306 40.992743,3.846777 40.992743,4.888774 L40.992776,4.888774 Z" id="Shape" fill-rule="nonzero"></path>
                    <path d="M48.653,4.888774 C48.5680658,4.00094756 48.993784,3.14172313 49.7516095,2.6714571 C50.509435,2.20119108 51.468342,2.20119108 52.2261675,2.6714571 C52.983993,3.14172313 53.4097112,4.00094756 53.324777,4.888774 C53.4113271,5.77755449 52.9859975,6.63844542 52.2275001,7.10972383 C51.4690027,7.58100224 50.5087743,7.58100224 49.7502769,7.10972383 C48.9917795,6.63844542 48.5664499,5.77755449 48.653,4.888774 Z M52.3193,4.888774 C52.3193,3.815097 51.836972,3.187217 50.9905,3.187217 C50.140794,3.187217 49.6628,3.815097 49.6628,4.888785 C49.6628,5.971064 50.140827,6.594104 50.9905,6.594104 C51.836983,6.594093 52.3193,5.966752 52.3193,4.888774 Z" id="Shape" fill-rule="nonzero"></path>
                    <path d="M54.636395,2.414302 L55.577412,2.414302 L55.577412,3.201165 L55.650463,3.201165 C55.9044913,2.62182573 56.4980821,2.26743822 57.128588,2.31869 C57.6167865,2.28198495 58.0951865,2.46926889 58.4287119,2.82766228 C58.7622373,3.18605566 58.9146944,3.67666614 58.843037,4.16097 L58.843037,7.36747 L57.8655,7.36747 L57.8655,4.406446 C57.8655,3.610453 57.519605,3.214596 56.796652,3.214596 C56.4655144,3.19917303 56.1441542,3.32913083 55.9168221,3.57039846 C55.6894899,3.8116661 55.5788585,4.14018111 55.613932,4.469817 L55.613932,7.367525 L54.636395,7.367525 L54.636395,2.414302 Z" id="Path"></path>
                    <path d="M64.366676,1.181103 L64.366676,2.436863 L65.439825,2.436863 L65.439825,3.260257 L64.366676,3.260257 L64.366676,5.80723 C64.366676,6.326078 64.58045,6.553272 65.067068,6.553272 C65.1916491,6.55287329 65.3161052,6.54534063 65.439825,6.530711 L65.439825,7.344964 C65.2642755,7.37636979 65.0864122,7.39307805 64.908085,7.394915 C63.820977,7.394915 63.388061,7.012489 63.388061,6.057513 L63.388061,3.260213 L62.601737,3.260213 L62.601737,2.436819 L63.388061,2.436819 L63.388061,1.181103 L64.366676,1.181103 Z" id="Path"></path>
                    <path d="M66.775071,0.4807 L67.744017,0.4807 L67.744017,3.210295 L67.821358,3.210295 C68.0875885,2.62588542 68.6915682,2.2710463 69.331658,2.322991 C69.8170843,2.29657701 70.2890082,2.48798408 70.6188882,2.84507724 C70.9487682,3.20217039 71.1022454,3.6877562 71.037516,4.169572 L71.037516,7.367525 L70.059,7.367525 L70.059,4.410725 C70.059,3.619561 69.6905,3.218875 68.999821,3.218875 C68.6597329,3.19098303 68.324673,3.31462006 68.0842166,3.55673285 C67.8437601,3.79884565 67.7224261,4.13474634 67.752652,4.474635 L67.752652,7.367503 L66.775115,7.367503 L66.775071,0.4807 Z" id="Path"></path>
                    <path d="M76.737375,6.030123 C76.4632627,6.96444043 75.5591088,7.56811334 74.591088,7.463126 C73.9306083,7.48056122 73.2958506,7.20679377 72.8552311,6.71446068 C72.4146116,6.22212759 72.212675,5.56100153 72.303,4.906495 C72.2150741,4.25016952 72.416254,3.58798411 72.8544199,3.09149165 C73.2925858,2.5949992 73.9246222,2.31305443 74.586787,2.318701 C75.96501,2.318701 76.796456,3.260301 76.796456,4.815701 L76.796456,5.1568 L73.298797,5.1568 L73.298797,5.21158 C73.2678452,5.57913416 73.3933758,5.94269253 73.6445169,6.21284477 C73.8956579,6.48299701 74.2491067,6.63467631 74.617939,6.63058 C75.096188,6.68799415 75.5617308,6.45076635 75.796358,6.03009 L76.737375,6.030123 Z M73.298775,4.433836 L75.800626,4.433836 C75.8255442,4.09767648 75.7073443,3.76662558 75.4751546,3.522265 C75.2429649,3.27790443 74.9183792,3.14295985 74.581386,3.150686 C74.2398272,3.1463948 73.9110108,3.28022336 73.669526,3.52181377 C73.4280412,3.76340418 73.2943564,4.09227911 73.298797,4.433836 L73.298775,4.433836 Z" id="Shape" fill-rule="nonzero"></path>
                </g>
            </g>
        </g>
    </g>
</svg>