<?xml version="1.0" encoding="UTF-8"?>
<svg width="150px" height="44px" viewBox="0 0 150 44" version="1.1" xmlns="http://www.w3.org/2000/svg" xmlns:xlink="http://www.w3.org/1999/xlink">
    <!-- Generator: Sketch 64 (93537) - https://sketch.com -->
    <title>Badge – Web Browser height: 44px</title>
    <desc>Created with Sketch.</desc>
    <g id="Just-the-Web-Button" stroke="none" stroke-width="1" fill="none" fill-rule="evenodd">
        <g id="Badge-–-Web-Browser-height:-44px">
            <g id="Group-3">
                <g id="Clip-2"></g>
                <path d="M138.7475,0.0002 L10.4875,0.0002 C10.0845,0.0002 9.6855,0.0002 9.2835,0.0022 C8.9465,0.0042 8.6125,0.0112 8.2725,0.0162 C7.5345,0.0252 6.7975,0.0902 6.0685,0.2112 C5.3415,0.3342 4.6365,0.5662 3.9775,0.9002 C3.3205,1.2372 2.7195,1.6742 2.1975,2.1972 C1.6725,2.7182 1.2345,3.3202 0.9005,3.9802 C0.5665,4.6392 0.3355,5.3452 0.2135,6.0742 C0.0915,6.8022 0.0255,7.5382 0.0175,8.2762 C0.0065,8.6132 0.0055,8.9512 0.0005,9.2892 L0.0005,34.7142 C0.0055,35.0562 0.0065,35.3872 0.0175,35.7282 C0.0255,36.4662 0.0915,37.2032 0.2135,37.9312 C0.3345,38.6602 0.5665,39.3662 0.9005,40.0252 C1.2345,40.6832 1.6725,41.2832 2.1975,41.8012 C2.7175,42.3262 3.3185,42.7632 3.9775,43.0982 C4.6365,43.4322 5.3415,43.6662 6.0685,43.7912 C6.7975,43.9112 7.5345,43.9762 8.2725,43.9862 C8.6125,43.9932 8.9465,43.9982 9.2835,43.9982 C9.6855,44.0002 10.0845,44.0002 10.4875,44.0002 L138.7475,44.0002 C139.1435,44.0002 139.5455,44.0002 139.9395,43.9982 C140.2755,43.9982 140.6195,43.9932 140.9545,43.9862 C141.6915,43.9772 142.4275,43.9122 143.1545,43.7912 C143.8845,43.6652 144.5925,43.4312 145.2535,43.0982 C145.9115,42.7632 146.5125,42.3252 147.0325,41.8012 C147.5565,41.2812 147.9945,40.6822 148.3325,40.0252 C148.6645,39.3662 148.8935,38.6592 149.0135,37.9312 C149.1355,37.2032 149.2035,36.4672 149.2175,35.7282 C149.2215,35.3872 149.2215,35.0562 149.2215,34.7142 C149.2295,34.3152 149.2295,33.9172 149.2295,33.5112 L149.2295,10.4902 C149.2295,10.0872 149.2295,9.6872 149.2215,9.2892 C149.2215,8.9512 149.2215,8.6132 149.2175,8.2762 C149.2035,7.5382 149.1355,6.8022 149.0135,6.0732 C148.8935,5.3452 148.6635,4.6392 148.3325,3.9802 C147.6525,2.6572 146.5765,1.5802 145.2535,0.9002 C144.5925,0.5672 143.8845,0.3352 143.1545,0.2102 C142.4275,0.0892 141.6915,0.0242 140.9545,0.0162 C140.6195,0.0112 140.2755,0.0042 139.9395,0.0022 C139.5455,0.0002 139.1435,0.0002 138.7475,0.0002 Z" id="Fill-1" fill="#6B6B6B"></path>
            </g>
            <path d="M9.2895,43.0375 C8.9545,43.0375 8.6275,43.0335 8.2945,43.0255 C7.6055,43.0165 6.9185,42.9565 6.2385,42.8465 C5.6045,42.7375 4.9905,42.5335 4.4165,42.2435 C3.8475,41.9555 3.3285,41.5785 2.8795,41.1255 C2.4245,40.6785 2.0445,40.1595 1.7575,39.5895 C1.4665,39.0155 1.2645,38.4005 1.1595,37.7665 C1.0465,37.0845 0.9845,36.3945 0.9765,35.7035 C0.9695,35.4715 0.9605,34.6995 0.9605,34.6995 L0.9605,9.2885 C0.9605,9.2885 0.9705,8.5285 0.9765,8.3045 C0.9845,7.6145 1.0455,6.9265 1.1585,6.2455 C1.2635,5.6095 1.4655,4.9925 1.7565,4.4175 C2.0435,3.8475 2.4205,3.3285 2.8735,2.8795 C3.3255,2.4265 3.8465,2.0465 4.4155,1.7545 C4.9885,1.4655 5.6015,1.2635 6.2335,1.1565 C6.9165,1.0445 7.6055,0.9845 8.2975,0.9765 L9.2895,0.9625 L139.9355,0.9625 L140.9385,0.9765 C141.6245,0.9845 142.3075,1.0445 142.9835,1.1555 C143.6225,1.2635 144.2415,1.4675 144.8215,1.7585 C145.9635,2.3465 146.8925,3.2775 147.4775,4.4195 C147.7645,4.9915 147.9635,5.6025 148.0665,6.2335 C148.1815,6.9205 148.2445,7.6145 148.2585,8.3095 C148.2615,8.6215 148.2615,8.9555 148.2615,9.2885 C148.2695,9.7015 148.2695,10.0945 148.2695,10.4895 L148.2695,33.5115 C148.2695,33.9105 148.2695,34.3005 148.2615,34.6935 C148.2615,35.0515 148.2615,35.3795 148.2565,35.7165 C148.2435,36.3995 148.1815,37.0815 148.0685,37.7555 C147.9665,38.3945 147.7665,39.0145 147.4755,39.5925 C147.1855,40.1565 146.8085,40.6705 146.3575,41.1165 C145.9085,41.5715 145.3885,41.9515 144.8175,42.2415 C144.2405,42.5345 143.6215,42.7375 142.9835,42.8465 C142.3035,42.9575 141.6165,43.0175 140.9275,43.0255 C140.6045,43.0335 140.2685,43.0375 139.9395,43.0375 L138.7475,43.0395 L9.2895,43.0375 Z" id="Fill-4" fill="#000000"></path>
            <g id="Clip-13"></g>
            <path d="M23.5678,30.6413 C24.3848,29.6903 25.0648,28.2333 25.5408,26.4333 L29.9398,26.4333 C28.4328,28.5383 26.1808,30.0733 23.5678,30.6413 L23.5678,30.6413 Z M12.6838,26.4333 L17.0828,26.4333 C17.5578,28.2333 18.2378,29.6893 19.0538,30.6413 C16.4418,30.0723 14.1908,28.5373 12.6838,26.4333 L12.6838,26.4333 Z M12.5138,14.3463 L17.0228,14.3463 C16.6258,15.9343 16.3868,17.7723 16.3508,19.7573 L10.7158,19.7573 C10.8088,17.8133 11.4228,15.9563 12.5138,14.3463 L12.5138,14.3463 Z M19.0438,9.9173 C18.3488,10.7313 17.7558,11.9123 17.3008,13.3583 L13.2758,13.3583 C14.7838,11.6093 16.8108,10.4083 19.0438,9.9173 L19.0438,9.9173 Z M29.3488,13.3583 L25.3228,13.3583 C24.8658,11.9043 24.2668,10.7193 23.5678,9.9053 C25.8578,10.4023 27.8708,11.6423 29.3488,13.3583 L29.3488,13.3583 Z M26.2718,19.7573 C26.2358,17.7723 25.9978,15.9343 25.5998,14.3463 L30.1148,14.3463 C31.1688,15.9053 31.8048,17.7613 31.9008,19.7573 L26.2718,19.7573 Z M26.2728,20.7453 L31.9028,20.7453 C31.8278,22.4453 31.3588,24.0423 30.5728,25.4453 L25.7728,25.4453 C26.0698,24.0263 26.2448,22.4383 26.2728,20.7453 L26.2728,20.7453 Z M24.5958,14.3463 C24.9928,15.8613 25.2468,17.6913 25.2838,19.7573 L17.3388,19.7573 C17.3768,17.6913 17.6308,15.8613 18.0268,14.3463 L24.5958,14.3463 Z M21.3108,9.6583 L21.3118,9.6583 C22.3998,9.6583 23.5298,11.0243 24.3078,13.3583 L18.3148,13.3583 C19.0928,11.0243 20.2228,9.6593 21.3108,9.6583 L21.3108,9.6583 Z M10.7208,20.7453 L16.3498,20.7453 C16.3788,22.4383 16.5528,24.0263 16.8498,25.4453 L12.0508,25.4453 C11.2648,24.0423 10.7968,22.4453 10.7208,20.7453 L10.7208,20.7453 Z M17.8438,25.4453 C17.5488,24.0793 17.3668,22.4953 17.3388,20.7453 L25.2848,20.7453 C25.2558,22.4953 25.0738,24.0793 24.7788,25.4453 L17.8438,25.4453 Z M21.3118,30.8883 L21.3108,30.8883 C20.1108,30.8873 18.8578,29.2253 18.0848,26.4333 L24.5378,26.4333 C23.7658,29.2253 22.5118,30.8883 21.3118,30.8883 L21.3118,30.8883 Z M21.3128,8.6703 L21.3118,8.6703 L21.3108,8.6703 C17.5358,8.6713 13.9828,10.5183 11.8118,13.6133 C10.4358,15.5683 9.7088,17.8703 9.7088,20.2713 C9.7088,26.6693 14.9138,31.8753 21.3108,31.8763 L21.3118,31.8763 L21.3128,31.8763 C27.7108,31.8763 32.9158,26.6703 32.9158,20.2713 C32.9158,13.8743 27.7108,8.6703 21.3128,8.6703 L21.3128,8.6703 Z" id="Fill-29" fill="#FFFFFF"></path>
            <path d="M24.1918,19.4168 L24.1918,32.6168 L27.4928,29.3168 L30.2428,34.8168 C30.2428,34.8168 30.9858,35.0538 31.3418,34.8168 C31.6988,34.5788 32.0518,34.1008 31.8918,33.7168 C31.1358,31.9008 29.1418,28.2168 29.1418,28.2168 L32.9928,28.2168 L24.1918,19.4168 Z" id="Fill-30" fill="#FFFFFF"></path>
            <path d="M24.1918,18.3166 C24.0498,18.3166 23.9078,18.3436 23.7718,18.4006 C23.3598,18.5706 23.0918,18.9716 23.0918,19.4166 L23.0918,32.6166 C23.0918,33.0616 23.3598,33.4626 23.7718,33.6326 C23.9078,33.6896 24.0498,33.7166 24.1918,33.7166 C24.4778,33.7166 24.7598,33.6056 24.9698,33.3946 L27.1908,31.1736 L29.2578,35.3086 C29.3908,35.5736 29.6258,35.7746 29.9078,35.8646 C29.9908,35.8906 30.4248,36.0226 30.8988,36.0226 C31.3088,36.0226 31.6638,35.9246 31.9528,35.7326 C32.6948,35.2366 33.3108,34.2626 32.9078,33.2936 C32.4608,32.2206 31.6158,30.5536 30.9698,29.3166 L32.9928,29.3166 C33.4368,29.3166 33.8378,29.0486 34.0078,28.6376 C34.1788,28.2266 34.0848,27.7536 33.7698,27.4386 L24.9698,18.6386 C24.7598,18.4286 24.4778,18.3166 24.1918,18.3166 M24.1918,19.4166 L32.9928,28.2166 L29.1418,28.2166 C29.1418,28.2166 31.1358,31.9006 31.8918,33.7166 C32.0518,34.1016 31.6988,34.5796 31.3418,34.8166 C31.2228,34.8956 31.0618,34.9216 30.8988,34.9216 C30.5728,34.9216 30.2428,34.8166 30.2428,34.8166 L27.4928,29.3166 L24.1918,32.6166 L24.1918,19.4166" id="Fill-31" fill="#000000"></path>
            <text id="USE-IN-YOUR-FR" font-family="Moderat-Medium, Moderat" font-size="9" font-weight="400" fill="#FFFFFF">
                <tspan x="39" y="18">UTILISEZ VOTRE</tspan>
            </text>
            <text id="Web-Browser-FR" font-family="Moderat-Medium, Moderat" font-size="15" font-weight="400" fill="#FFFFFF">
                <tspan x="39" y="32">navigateur web</tspan>
            </text>
        </g>
    </g>
</svg>