<?xml version="1.0" encoding="UTF-8"?>
<svg width="140px" height="44px" viewBox="0 0 140 44" version="1.1" xmlns="http://www.w3.org/2000/svg" xmlns:xlink="http://www.w3.org/1999/xlink">
    <!-- Generator: Sketch 52 (66869) - http://www.bohemiancoding.com/sketch -->
    <title>app-apple_fr</title>
    <desc>Created with Sketch.</desc>
    <g id="Page-1" stroke="none" stroke-width="1" fill="none" fill-rule="evenodd">
        <g id="app-apple_fr">
            <g id="Group">
                <path d="M128.676031,-8.13151629e-20 L10.488148,-8.13151629e-20 C10.084778,-8.13151629e-20 9.686248,-8.13151629e-20 9.283945,0.0022 C8.94718,0.0044 8.613099,0.010791 8.2731,0.01617 C7.53446505,0.024861984 6.79756712,0.0898438859 6.06881,0.210551 C5.34107649,0.333885891 4.63613977,0.566407314 3.977842,0.900251 C3.32034935,1.23691888 2.71957952,1.67438428 2.197327,2.196777 C1.67233275,2.71770069 1.2347095,3.31981802 0.901285,3.979976 C0.566940266,4.63882003 0.335104548,5.34483213 0.213785,6.073628 C0.0913120353,6.8015034 0.0254082187,7.5377726 0.016665,8.275828 C0.006457,8.613088 0.005379,8.95147 0,9.288774 L0,34.71446 C0.005379,35.05601 0.006457,35.38689 0.016665,35.72855 C0.0254108998,36.4665688 0.0913147175,37.2028012 0.213785,37.93064 C0.334769548,38.6598619 0.566618974,39.3662793 0.901285,40.02537 C1.23455811,40.6833932 1.67224289,41.2830728 2.197327,41.8011 C2.7175993,42.3258155 3.31875746,42.7635785 3.977842,43.09767 C4.63613477,43.4324072 5.34099549,43.6663126 6.06881,43.79155 C6.79769101,43.9112902 7.53451315,43.9762985 8.2731,43.98603 C8.613099,43.99351 8.94718,43.9978 9.283945,43.9978 C9.686237,44 10.0848,44 10.488148,44 L128.676031,44 C129.071371,44 129.473091,44 129.868431,43.9978 C130.203601,43.9978 130.547351,43.99351 130.882521,43.98603 C131.619711,43.9768161 132.355146,43.9118036 133.082521,43.79155 C133.812683,43.665431 134.520071,43.4315875 135.181541,43.09767 C135.840031,42.7633851 136.440634,42.325634 136.960461,41.8011 C137.48419,41.281044 137.92281,40.681803 138.260221,40.02537 C138.592376,39.3657998 138.822018,38.6594389 138.941231,37.93064 C139.063897,37.2027014 139.13214,36.4666327 139.145391,35.72855 C139.149681,35.38689 139.149681,35.05601 139.149681,34.71446 C139.158261,34.31483 139.158261,33.9174 139.158261,33.51128 L139.158261,10.489743 C139.158261,10.086912 139.158261,9.687304 139.149681,9.288774 C139.149681,8.95147 139.149681,8.613088 139.145391,8.275784 C139.132142,7.53766469 139.0639,6.80155923 138.941231,6.073584 C138.821686,5.34520976 138.592057,4.6392536 138.260221,3.979932 C137.581218,2.65671569 136.504515,1.57962794 135.181541,0.900152 C134.520069,0.567123966 133.812606,0.334664291 133.082521,0.210452 C132.355272,0.0892130615 131.619761,0.0242085414 130.882521,0.016016 C130.547351,0.010648 130.203601,0.004202 129.868431,0.002057 C129.473091,-0.000143 129.071371,-0.000143 128.676031,-0.000143 L128.676031,-8.13151629e-20 Z" id="Path" fill="#A6A6A6"></path>
                <path d="M9.289302,43.0375 C8.954165,43.0375 8.627102,43.03321 8.294594,43.02573 C7.60575395,43.0167548 6.91852389,42.9567875 6.23854,42.84632 C5.60448933,42.737121 4.99026467,42.5339909 4.416126,42.24363 C3.84725187,41.9556749 3.32839294,41.5781001 2.879426,41.12537 C2.42396036,40.6779728 2.04476441,40.1590684 1.756865,39.58922 C1.46579319,39.0156681 1.26435417,38.4008895 1.159565,37.7663 C1.04640179,37.0844264 0.985175811,36.3949446 0.976415,35.7038 C0.969441,35.47181 0.960311,34.69939 0.960311,34.69939 L0.960311,9.288774 C0.960311,9.288774 0.970035,8.528223 0.97647,8.30478 C0.984858977,7.61473075 1.04572522,6.92631922 1.158542,6.245503 C1.2635326,5.60917559 1.46513106,4.99262491 1.756359,4.417193 C2.04319962,3.84774063 2.42028631,3.32844917 2.873002,2.879448 C3.3252207,2.42618526 3.8457427,2.0466665 4.415587,1.754731 C4.98840613,1.46530296 5.60146999,1.2636058 6.234239,1.156397 C6.91645602,1.04481934 7.6060719,0.984495281 8.2973,0.975931 L9.289852,0.9625 L129.863052,0.9625 L130.867462,0.97647 C131.552403,0.984609117 132.235754,1.04439501 132.911702,1.155319 C133.550877,1.26387257 134.17033,1.46697709 134.749692,1.757954 C135.891292,2.34628526 136.82019,3.27707968 137.406192,4.419877 C137.692772,4.99133532 137.891257,5.60285743 137.994912,6.233689 C138.10908,6.92009052 138.172977,7.61391217 138.186092,8.30962 C138.189282,8.62114 138.189282,8.95576 138.189282,9.288774 C138.197972,9.701274 138.197972,10.093897 138.197972,10.489743 L138.197972,33.51128 C138.197972,33.91091 138.197972,34.30086 138.189282,34.694 C138.189282,35.05172 138.189282,35.37941 138.184992,35.71667 C138.172161,36.3999632 138.109329,37.0814007 137.997002,37.75552 C137.894361,38.3946873 137.694018,39.0142644 137.403002,39.59252 C137.113067,40.1561832 136.736049,40.6705928 136.285842,41.11679 C135.836471,41.5719531 135.316697,41.951737 134.746502,42.24154 C134.168745,42.534133 133.550203,42.7380143 132.911702,42.84632 C132.23177,42.9573771 131.544474,43.0173482 130.855582,43.02573 C130.533392,43.03321 130.196022,43.0375 129.868442,43.0375 L128.676042,43.0397 L9.289302,43.0375 Z" id="Path" fill="#000000"></path>
            </g>
            <g id="Group" transform="translate(9.900000, 8.800000)" fill="#FFFFFF">
                <g id="_Group_">
                    <g id="_Group_2">
                        <g id="_Group_3">
                            <path d="M17.34898,13.530748 C17.3730227,11.66463 18.3513472,9.94090472 19.941196,8.963482 C18.9336759,7.52456405 17.3066432,6.64496619 15.55092,6.590034 C13.703756,6.396148 11.913011,7.695347 10.97173,7.695347 C10.012233,7.695347 8.562983,6.609284 7.00238,6.641393 C4.94903339,6.70773226 3.08116289,7.84687803 2.082168,9.64205 C-0.045232,13.325312 1.541617,18.738467 3.579488,21.715738 C4.599078,23.173623 5.790686,24.802118 7.349881,24.744368 C8.875647,24.681085 9.445491,23.77144 11.287221,23.77144 C13.111857,23.77144 13.64649,24.744368 15.237321,24.70765 C16.874539,24.681074 17.906064,23.243286 18.889882,21.771596 C19.6224403,20.7327968 20.1861397,19.5847008 20.5601,18.369835 C18.6155995,17.5473859 17.3512421,15.6420272 17.34898,13.530748 Z" id="_Path_"></path>
                            <path d="M14.344187,4.631979 C15.2368663,3.5603501 15.6766555,2.1829527 15.570159,0.792297 C14.2063436,0.935539536 12.9465602,1.58735464 12.041821,2.617868 C11.1484326,3.63460793 10.6958441,4.96477595 10.78374,6.315397 C12.1658425,6.32962744 13.4781197,5.70916854 14.344187,4.631979 Z" id="_Path_2"></path>
                        </g>
                    </g>
                </g>
                <g id="_Group_4" transform="translate(26.400000, 0.000000)">
                    <g id="Group">
                        <polygon id="Path" points="2.920808 7.371826 2.920808 1.735943 0.856108 1.735943 0.856108 0.808346 6.000544 0.808346 6.000544 1.735932 3.9402 1.735932 3.9402 7.371826"></polygon>
                        <path d="M10.741126,6.034424 C10.4670137,6.96874143 9.56285979,7.57241434 8.594839,7.467427 C7.93435711,7.48486272 7.29959725,7.21109382 6.85897734,6.71875813 C6.41835743,6.22642245 6.21642249,5.56529328 6.306751,4.910785 C6.21882513,4.25445952 6.42000505,3.59227411 6.85817092,3.09578165 C7.29633679,2.5992892 7.92837321,2.31734443 8.590538,2.322991 C9.968761,2.322991 10.800207,3.264591 10.800207,4.819991 L10.800207,5.161057 L7.302548,5.161057 L7.302548,5.215837 C7.27159622,5.58339116 7.3971268,5.94694953 7.64826787,6.21710177 C7.89940894,6.48725401 8.25285767,6.63893331 8.62169,6.634837 C9.09993904,6.69225115 9.56548177,6.45502335 9.800109,6.034347 L10.741126,6.034424 Z M7.302526,4.438137 L9.80441,4.438137 C9.82932819,4.10197748 9.7111283,3.77092658 9.47893862,3.526566 C9.24674894,3.28220543 8.92216324,3.14726085 8.58517,3.154987 C8.24360551,3.15068683 7.91478049,3.28451142 7.67328849,3.52610283 C7.4317965,3.76769423 7.29810725,4.09657431 7.302548,4.438137 L7.302526,4.438137 Z M8.00294,1.59038 L9.144839,0.025784 L10.291039,0.025784 L9.012707,1.59038 L8.00294,1.59038 Z" id="Shape" fill-rule="nonzero"></path>
                        <polygon id="Path" points="12.158014 0.485012 13.135551 0.485012 13.135551 7.371826 12.158014 7.371826"></polygon>
                        <path d="M18.9288,6.034424 C18.6546877,6.96874143 17.7505338,7.57241434 16.782513,7.467427 C16.1220311,7.48486272 15.4872712,7.21109382 15.0466513,6.71875813 C14.6060314,6.22642245 14.4040965,5.56529328 14.494425,4.910785 C14.4064991,4.25445952 14.607679,3.59227411 15.0458449,3.09578165 C15.4840108,2.5992892 16.1160472,2.31734443 16.778212,2.322991 C18.156435,2.322991 18.987881,3.264591 18.987881,4.819991 L18.987881,5.161057 L15.4902,5.161057 L15.4902,5.215837 C15.4592482,5.58339116 15.5847788,5.94694953 15.8359199,6.21710177 C16.0870609,6.48725401 16.4405097,6.63893331 16.809342,6.634837 C17.287591,6.69225115 17.7531338,6.45502335 17.987761,6.034347 L18.9288,6.034424 Z M15.4902,4.438137 L17.992051,4.438137 C18.0169692,4.10197748 17.8987693,3.77092658 17.6665796,3.526566 C17.4343899,3.28220543 17.1098042,3.14726085 16.772811,3.154987 C16.4312484,3.15068982 16.1024262,3.28451574 15.8609367,3.52610681 C15.6194471,3.76769788 15.4857593,4.09657624 15.4902,4.438137 Z M16.190592,1.59038 L17.332491,0.025784 L18.478691,0.025784 L17.200403,1.59038 L16.190592,1.59038 Z" id="Shape" fill-rule="nonzero"></path>
                        <path d="M23.543663,4.037451 C23.4148779,3.50670294 22.9179654,3.1494192 22.373835,3.196336 C21.555281,3.196336 21.054693,3.823677 21.054693,4.879105 C21.054693,5.952782 21.559593,6.594093 22.373835,6.594093 C22.9133403,6.65660081 23.4149242,6.30747581 23.543663,5.77984 L24.494349,5.77984 C24.3636026,6.82287603 23.4252431,7.57156286 22.379214,7.467438 C21.708818,7.4886051 21.0632532,7.21282317 20.6150766,6.71380757 C20.1668999,6.21479196 19.9618025,5.54341686 20.054606,4.879138 C19.9664739,4.2197686 20.1735351,3.55508291 20.6205453,3.06241966 C21.0675556,2.56975641 21.7090386,2.29923654 22.373846,2.323035 C23.4283528,2.2259052 24.3684934,2.98601872 24.494349,4.037484 L23.543663,4.037451 Z" id="Path"></path>
                        <path d="M25.792008,0.485012 L26.760954,0.485012 L26.760954,3.214607 L26.838295,3.214607 C27.1045255,2.63019742 27.7085052,2.2753583 28.348595,2.327303 C28.8340213,2.30088901 29.3059452,2.49229608 29.6358252,2.84938924 C29.9657052,3.20648239 30.1191824,3.6920682 30.054453,4.173884 L30.054453,7.371837 L29.075838,7.371837 L29.075838,4.415037 C29.075838,3.623873 28.707338,3.223187 28.016659,3.223187 C27.6765709,3.19529503 27.341511,3.31893206 27.1010546,3.56104485 C26.8605981,3.80315765 26.7392641,4.13905834 26.76949,4.478947 L26.76949,7.371815 L25.791953,7.371837 L25.792008,0.485012 Z" id="Path"></path>
                        <path d="M31.283406,5.971042 C31.283406,5.079437 31.947278,4.565429 33.125686,4.492378 L34.467389,4.415037 L34.467389,3.9875 C34.467389,3.464351 34.121494,3.168946 33.453321,3.168946 C32.907622,3.168946 32.529497,3.369289 32.420993,3.719485 L31.474608,3.719485 C31.57451,2.868701 32.374804,2.323002 33.498432,2.323002 C34.740233,2.323002 35.440086,2.941202 35.440086,3.9875 L35.440086,7.371826 L34.499586,7.371826 L34.499586,6.675735 L34.4223,6.675735 C34.1026935,7.18407397 33.534329,7.48116956 32.934506,7.453435 C32.5140122,7.49717965 32.0946367,7.36100139 31.7800588,7.0785666 C31.4654809,6.79613181 31.2850621,6.39380189 31.283406,5.971042 Z M34.467389,5.547795 L34.4674,5.1337 L33.257818,5.211041 C32.575686,5.256691 32.266311,5.488725 32.266311,5.925392 C32.266311,6.371189 32.653027,6.630613 33.184811,6.630613 C33.4996175,6.66248302 33.8138797,6.56522818 34.0556556,6.36111244 C34.2974314,6.1569967 34.4460179,5.86349828 34.4674,5.547806 L34.467389,5.547795 Z" id="Shape" fill-rule="nonzero"></path>
                        <path d="M36.970857,2.418603 L37.911874,2.418603 L37.911874,3.178076 L37.984925,3.178076 C38.2010464,2.6371931 38.7411813,2.29727529 39.322327,2.336422 C39.4687421,2.33445355 39.6149483,2.34813826 39.758455,2.377243 L39.758455,3.341943 C39.5790592,3.3036099 39.3961992,3.28381226 39.212756,3.282862 C38.8867314,3.25358411 38.5635029,3.36334569 38.322723,3.5850984 C38.0819431,3.80685111 37.946004,4.11997225 37.948405,4.4473 L37.948405,7.371859 L36.970857,7.371859 L36.970857,2.418603 Z" id="Path"></path>
                        <path d="M40.657584,7.867574 L41.657682,7.867574 C41.740402,8.2269 42.153969,8.458934 42.81354,8.458934 C43.627793,8.458934 44.110121,8.072218 44.110121,7.417476 L44.110121,6.46679 L44.03707,6.46679 C43.7244332,7.00941072 43.1338758,7.33083561 42.508455,7.298775 C41.244104,7.298775 40.46207,6.321238 40.46207,4.838273 C40.46207,3.327973 41.252695,2.336422 42.518124,2.336422 C43.15905,2.31410317 43.758962,2.65093479 44.07359,3.209767 L44.150931,3.209767 L44.150931,2.418603 L45.087647,2.418603 L45.087647,7.412603 C45.087647,8.545372 44.200343,9.264024 42.799559,9.264024 C41.56207,9.264068 40.761776,8.709228 40.657584,7.867574 Z M44.128381,4.833444 C44.128381,3.846744 43.618124,3.214596 42.785611,3.214596 C41.944496,3.214596 41.471837,3.846777 41.471837,4.833444 C41.471837,5.82065 41.944496,6.452831 42.785611,6.452831 C43.623503,6.452831 44.128381,5.82549 44.128381,4.8334 L44.128381,4.833444 Z" id="Shape" fill-rule="nonzero"></path>
                        <path d="M50.833651,6.034424 C50.5595387,6.96874143 49.6553848,7.57241434 48.687364,7.467427 C48.0268821,7.48486272 47.3921222,7.21109382 46.9515023,6.71875813 C46.5108824,6.22642245 46.3089475,5.56529328 46.399276,4.910785 C46.3113501,4.25445952 46.51253,3.59227411 46.9506959,3.09578165 C47.3888618,2.5992892 48.0208982,2.31734443 48.683063,2.322991 C50.061286,2.322991 50.892732,3.264591 50.892732,4.819991 L50.892732,5.161057 L47.395084,5.161057 L47.395084,5.215837 C47.3641322,5.58339116 47.4896628,5.94694953 47.7408039,6.21710177 C47.9919449,6.48725401 48.3453937,6.63893331 48.714226,6.634837 C49.192475,6.69225115 49.6580178,6.45502335 49.892645,6.034347 L50.833651,6.034424 Z M47.395051,4.438137 L49.896902,4.438137 C49.9218202,4.10197748 49.8036203,3.77092658 49.5714306,3.526566 C49.3392409,3.28220543 49.0146552,3.14726085 48.677662,3.154987 C48.3361051,3.15069879 48.0072915,3.28452867 47.7658091,3.52611875 C47.5243268,3.76770883 47.3906435,4.09658204 47.395084,4.438137 L47.395051,4.438137 Z" id="Shape" fill-rule="nonzero"></path>
                        <path d="M52.205428,2.418603 L53.1465,2.418603 L53.1465,3.178076 L53.219551,3.178076 C53.4356724,2.6371931 53.9758073,2.29727529 54.556953,2.336422 C54.7033681,2.33445355 54.8495743,2.34813826 54.993081,2.377243 L54.993081,3.341943 C54.8136852,3.3036099 54.6308252,3.28381226 54.447382,3.282862 C54.1213466,3.25356436 53.7981001,3.36331704 53.5573052,3.58507201 C53.3165102,3.80682698 53.1805623,4.11995968 53.182965,4.4473 L53.182965,7.371859 L52.205428,7.371859 L52.205428,2.418603 Z" id="Path"></path>
                        <path d="M58.515391,4.893064 C58.515391,3.327929 59.319986,2.336422 60.571445,2.336422 C61.2033695,2.30730515 61.7952253,2.64591015 62.090391,3.205422 L62.163442,3.205422 L62.163442,0.485012 L63.140979,0.485012 L63.140979,7.371826 L62.204263,7.371826 L62.204263,6.589253 L62.1269,6.589253 C61.8094226,7.14412268 61.210275,7.47700412 60.571434,7.453457 C59.311384,7.453468 58.515391,6.461961 58.515391,4.893064 Z M59.525191,4.893064 C59.525191,5.943652 60.020411,6.575833 60.848634,6.575833 C61.672534,6.575833 62.181735,5.934533 62.181735,4.897365 C62.181735,3.865037 61.667188,3.214596 60.848634,3.214596 C60.025746,3.214596 59.525158,3.8511 59.525158,4.893064 L59.525191,4.893064 Z" id="Shape" fill-rule="nonzero"></path>
                        <path d="M64.462266,5.971042 C64.462266,5.079437 65.126138,4.565429 66.304546,4.492378 L67.646249,4.415037 L67.646249,3.9875 C67.646249,3.464351 67.300354,3.168946 66.632192,3.168946 C66.086493,3.168946 65.708368,3.369289 65.599864,3.719485 L64.653479,3.719485 C64.753381,2.868701 65.553675,2.323002 66.677303,2.323002 C67.919104,2.323002 68.619496,2.941202 68.619496,3.9875 L68.619496,7.371826 L67.678479,7.371826 L67.678479,6.675735 L67.601138,6.675735 C67.2815315,7.18407397 66.713167,7.48116956 66.113344,7.453435 C65.6928537,7.497173 65.2734843,7.36099173 64.9589114,7.07855769 C64.6443385,6.79612365 64.4639227,6.39379764 64.462266,5.971042 Z M67.646249,5.547795 L67.646249,5.1337 L66.4367,5.21103 C65.754568,5.25668 65.445193,5.488714 65.445193,5.925381 C65.445193,6.371178 65.831909,6.630602 66.363693,6.630602 C66.6784923,6.66246253 66.9927443,6.56520481 67.2345124,6.36109241 C67.4762805,6.15698002 67.6248636,5.86348997 67.646249,5.547806 L67.646249,5.547795 Z" id="Shape" fill-rule="nonzero"></path>
                        <path d="M70.1503,2.418603 L71.091317,2.418603 L71.091317,3.205466 L71.164368,3.205466 C71.4183963,2.62612673 72.0119871,2.27173922 72.642493,2.322991 C73.1306915,2.28628595 73.6090915,2.47356989 73.9426169,2.83196328 C74.2761423,3.19035666 74.4285994,3.68096714 74.356942,4.165271 L74.356942,7.371771 L73.379405,7.371771 L73.379405,4.410747 C73.379405,3.614754 73.03351,3.218897 72.310557,3.218897 C71.9794194,3.20347403 71.6580592,3.33343183 71.4307271,3.57469946 C71.2033949,3.8159671 71.0927635,4.14448211 71.127837,4.474118 L71.127837,7.371826 L70.1503,7.371826 L70.1503,2.418603 Z" id="Path"></path>
                        <path d="M77.679459,2.323002 C78.793429,2.323002 79.521739,2.841311 79.617351,3.714656 L78.679557,3.714656 C78.589357,3.351029 78.23376,3.119006 77.679459,3.119006 C77.13376,3.119006 76.719159,3.377891 76.719159,3.764607 C76.719159,4.060507 76.969453,4.246935 77.506561,4.369926 L78.329361,4.5606 C79.271456,4.779203 79.712952,5.184179 79.712952,5.911972 C79.712952,6.844398 78.843952,7.467438 77.661199,7.467438 C76.48278,7.467438 75.714716,6.935159 75.627706,6.057524 L76.606321,6.057524 C76.7798812,6.48744386 77.225013,6.74284621 77.68376,6.675724 C78.292841,6.675724 78.725757,6.402924 78.725757,6.007023 C78.725757,5.711618 78.493723,5.520405 77.997436,5.402243 L77.13376,5.2019 C76.191665,4.978996 75.755537,4.556299 75.755537,3.819376 C75.755526,2.941213 76.560121,2.323002 77.679459,2.323002 Z" id="Path"></path>
                    </g>
                </g>
            </g>
            <g id="Group" transform="translate(38.500000, 18.700000)" fill="#FFFFFF">
                <polygon id="Path" points="0.218075 1.173579 2.263393 1.173579 2.263393 14.833885 0.218075 14.833885"></polygon>
                <polygon id="Path" points="4.727646 6.171924 5.844839 1.173579 7.832143 1.173579 6.478626 6.171924"></polygon>
                <path d="M15.561139,11.141801 L10.35441,11.141801 L9.104018,14.833896 L6.898639,14.833896 L11.830379,1.17359 L14.121679,1.17359 L19.053419,14.833896 L16.810464,14.833896 L15.561139,11.141801 Z M10.893663,9.438088 L15.020863,9.438088 L12.986292,3.445563 L12.929356,3.445563 L10.893663,9.438088 Z" id="Shape" fill-rule="nonzero"></path>
                <path d="M29.703234,9.8549 C29.703234,12.949728 28.046788,14.938099 25.547082,14.938099 C24.2550058,15.0056881 23.0379406,14.3289308 22.413589,13.195699 L22.366289,13.195699 L22.366289,18.128517 L20.322049,18.128517 L20.322049,4.874265 L22.300762,4.874265 L22.300762,6.5307 L22.33836,6.5307 C22.9904491,5.40457271 24.2088267,4.72810672 25.509451,4.770051 C28.037119,4.770073 29.703234,6.768113 29.703234,9.8549 Z M27.602058,9.8549 C27.602058,7.83805 26.560061,6.512473 24.97022,6.512473 C23.408308,6.512473 22.35772,7.86599 22.35772,9.8549 C22.35772,11.861542 23.408308,13.20539 24.97022,13.20539 C26.560072,13.205368 27.602058,11.889449 27.602058,9.8549 Z" id="Shape" fill-rule="nonzero"></path>
                <path d="M40.66403,9.8549 C40.66403,12.949728 39.007584,14.938099 36.507878,14.938099 C35.2158018,15.0056881 33.9987366,14.3289308 33.374385,13.195699 L33.327085,13.195699 L33.327085,18.128517 L31.283406,18.128517 L31.283406,4.874265 L33.26158,4.874265 L33.26158,6.5307 L33.2992,6.5307 C33.9512891,5.40457271 35.1696667,4.72810672 36.470291,4.770051 C38.997915,4.770073 40.66403,6.768113 40.66403,9.8549 Z M38.562854,9.8549 C38.562854,7.83805 37.520857,6.512473 35.931016,6.512473 C34.369104,6.512473 33.318516,7.86599 33.318516,9.8549 C33.318516,11.861542 34.369104,13.20539 35.931016,13.20539 C37.520857,13.205368 38.562854,11.889449 38.562854,9.8549 Z" id="Shape" fill-rule="nonzero"></path>
                <path d="M47.908553,11.027929 C48.060023,12.382524 49.375953,13.271929 51.174178,13.271929 C52.897229,13.271929 54.136874,12.38248 54.136874,11.161084 C54.136874,10.100827 53.389215,9.465984 51.618908,9.030912 L49.848601,8.603914 C47.340293,7.9981 46.1758,6.825049 46.1758,4.921532 C46.1758,2.564694 48.229709,0.945846 51.146205,0.945846 C54.032605,0.945846 56.01134,2.564694 56.077945,4.921532 L54.0144,4.921532 C53.89087,3.558346 52.764008,2.735502 51.117231,2.735502 C49.470454,2.735502 48.343603,3.568026 48.343603,4.779742 C48.343603,5.745465 49.063333,6.313725 50.823971,6.748742 L52.328947,7.118276 C55.131582,7.78107 56.296042,8.907382 56.296042,10.905433 C56.296042,13.460997 54.260393,15.061585 51.022697,15.061585 C47.993396,15.061585 45.948089,13.498595 45.815957,11.027885 L47.908553,11.027929 Z" id="Path"></path>
                <path d="M60.709,2.517427 L60.709,4.874265 L62.602848,4.874265 L62.602848,6.493113 L60.709,6.493113 L60.709,11.983983 C60.709,12.836912 61.088203,13.234375 61.920716,13.234375 C62.1455466,13.2304545 62.3700134,13.2146659 62.593179,13.187075 L62.593179,14.796254 C62.2188802,14.8661915 61.8384369,14.8978659 61.457726,14.890788 C59.441426,14.890788 58.655091,14.13346 58.655091,12.202014 L58.655091,6.493113 L57.206996,6.493113 L57.206996,4.874265 L58.655047,4.874265 L58.655047,2.517427 L60.709,2.517427 Z" id="Path"></path>
                <path d="M63.698503,9.8549 C63.698503,6.720868 65.544006,4.751824 68.421848,4.751824 C71.309348,4.751824 73.14626,6.720824 73.14626,9.8549 C73.14626,12.996995 71.319017,14.957437 68.421848,14.957437 C65.525746,14.957426 63.698503,12.996973 63.698503,9.8549 Z M71.063344,9.8549 C71.063344,7.704851 70.078283,6.436199 68.421837,6.436199 C66.765391,6.436199 65.781408,7.71452 65.781408,9.8549 C65.781408,12.013001 66.765391,13.271995 68.421837,13.271995 C70.078283,13.271995 71.0633,12.01299 71.0633,9.8549 L71.063344,9.8549 Z" id="Shape" fill-rule="nonzero"></path>
                <path d="M74.831702,4.874265 L76.781408,4.874265 L76.781408,6.569365 L76.828708,6.569365 C77.1006017,5.47815225 78.1004538,4.72714171 79.224211,4.770051 C79.4597914,4.76922845 79.6947219,4.79481282 79.924603,4.846325 L79.924603,6.7584 C79.6271971,6.66752165 79.3169516,6.62579642 79.006103,6.63487 C78.4050267,6.61052698 77.8233394,6.85013127 77.413792,7.29076295 C77.0042446,7.73139462 76.8077585,8.3290262 76.875931,8.92672 L76.875931,14.833852 L74.831691,14.833852 L74.831702,4.874265 Z" id="Path"></path>
                <path d="M89.348688,11.908787 C89.073688,13.716692 87.313039,14.957415 85.060404,14.957415 C82.163235,14.957415 80.364999,13.0163 80.364999,9.902145 C80.364999,6.777782 82.172904,4.751802 84.974472,4.751802 C87.72984,4.751802 89.46256,6.644572 89.46256,9.664743 L89.46256,10.365135 L82.428577,10.365135 L82.428577,10.488665 C82.3629042,11.2300998 82.6189227,11.9640174 83.1315099,12.5037329 C83.6440971,13.0434485 84.3638482,13.3369426 85.107682,13.30956 C86.0997085,13.4025096 87.0349954,12.8328614 87.407584,11.908776 L89.348688,11.908787 Z M82.4382366,8.9364 L87.417253,8.9364 C87.4544598,8.2700929 87.2119977,7.61847379 86.7482892,7.13855309 C86.2845807,6.65863238 85.641675,6.3939296 84.974483,6.408226 C84.3020197,6.40425404 83.655833,6.66907931 83.1795649,7.14383329 C82.7032968,7.61858726 82.4364153,8.26392748 82.4382366,8.9364 Z" id="Shape" fill-rule="nonzero"></path>
            </g>
        </g>
    </g>
</svg>