<?xml version="1.0" encoding="UTF-8"?>
<svg width="149px" height="44px" viewBox="0 0 149 44" version="1.1" xmlns="http://www.w3.org/2000/svg" xmlns:xlink="http://www.w3.org/1999/xlink">
    <!-- Generator: Sketch 52 (66869) - http://www.bohemiancoding.com/sketch -->
    <title>app-google-fr</title>
    <desc>Created with Sketch.</desc>
    <defs>
        <linearGradient x1="91.4762131%" y1="4.94615078%" x2="-38.5502813%" y2="71.8787395%" id="linearGradient-1">
            <stop stop-color="#00A0FF" offset="0%"></stop>
            <stop stop-color="#00A1FF" offset="1%"></stop>
            <stop stop-color="#00BEFF" offset="26%"></stop>
            <stop stop-color="#00D2FF" offset="51%"></stop>
            <stop stop-color="#00DFFF" offset="76%"></stop>
            <stop stop-color="#00E3FF" offset="100%"></stop>
        </linearGradient>
        <linearGradient x1="107.684729%" y1="50%" x2="-130.640394%" y2="50%" id="linearGradient-2">
            <stop stop-color="#FFE000" offset="0%"></stop>
            <stop stop-color="#FFBD00" offset="41%"></stop>
            <stop stop-color="#FFA500" offset="78%"></stop>
            <stop stop-color="#FF9C00" offset="100%"></stop>
        </linearGradient>
        <linearGradient x1="86.2709832%" y1="17.871098%" x2="-50.1798561%" y2="194.639567%" id="linearGradient-3">
            <stop stop-color="#FF3A44" offset="0%"></stop>
            <stop stop-color="#C31162" offset="100%"></stop>
        </linearGradient>
        <linearGradient x1="-18.82494%" y1="-54.0297086%" x2="42.0863309%" y2="24.9280028%" id="linearGradient-4">
            <stop stop-color="#32A071" offset="0%"></stop>
            <stop stop-color="#2DA771" offset="7%"></stop>
            <stop stop-color="#15CF74" offset="48%"></stop>
            <stop stop-color="#06E775" offset="80%"></stop>
            <stop stop-color="#00F076" offset="100%"></stop>
        </linearGradient>
    </defs>
    <g id="Page-1" stroke="none" stroke-width="1" fill="none" fill-rule="evenodd">
        <g id="app-google-fr">
            <rect id="Rectangle" fill="#000000" x="0" y="0" width="148.5" height="44" rx="5"></rect>
            <path d="M143,0.88 C145.551556,0.88 147.62,2.94844446 147.62,5.5 L147.62,38.5 C147.62,41.0515555 145.551556,43.12 143,43.12 L5.5,43.12 C2.94844446,43.12 0.88,41.0515555 0.88,38.5 L0.88,5.5 C0.88,2.94844446 2.94844446,0.88 5.5,0.88 L143,0.88 Z M143,0 L5.5,0 C2.46243388,-1.85997282e-16 3.71994563e-16,2.46243388 0,5.5 L0,38.5 C3.71994563e-16,41.5375661 2.46243388,44 5.5,44 L143,44 C146.037566,44 148.5,41.5375661 148.5,38.5 L148.5,5.5 C148.5,2.46243388 146.037566,1.85997282e-16 143,0 Z" id="Shape" fill="#A6A6A6" fill-rule="nonzero"></path>
            <path d="M74.954,23.925 C72.3660042,23.9310822 70.2729483,26.0339955 70.2790258,28.6219913 C70.2851033,31.2099872 72.3880127,33.3030469 74.9760085,33.2969742 C77.5640044,33.2909014 79.657068,31.1879959 79.651,28.6 C79.6691203,27.3508112 79.1793548,26.1477807 78.2938807,25.266454 C77.4084066,24.3851273 76.20309,23.9010152 74.954,23.925 Z M74.954,31.438 C73.7915501,31.5192958 72.6975403,30.8817448 72.1952234,29.8302808 C71.6929066,28.7788167 71.8843794,27.5271511 72.6780625,26.6739418 C73.4717455,25.8207326 74.7063216,25.5393956 75.7913066,25.9644914 C76.8762916,26.3895871 77.5911608,27.4347143 77.594,28.6 C77.6297971,29.3289391 77.369636,30.041432 76.8725544,30.5757948 C76.3754728,31.1101575 75.6836213,31.421078 74.954,31.438 Z M64.702,23.925 C62.1140042,23.9310822 60.0209483,26.0339955 60.0270258,28.6219913 C60.0331033,31.2099872 62.1360127,33.3030469 64.7240085,33.2969742 C67.3120044,33.2909014 69.405068,31.1879959 69.399,28.6 C69.4171203,27.3508112 68.9273548,26.1477807 68.0418807,25.266454 C67.1564066,24.3851273 65.95109,23.9010152 64.702,23.925 Z M64.702,31.438 C63.5395501,31.5192958 62.4455403,30.8817448 61.9432234,29.8302808 C61.4409066,28.7788167 61.6323794,27.5271511 62.4260625,26.6739418 C63.2197455,25.8207326 64.4543216,25.5393956 65.5393066,25.9644914 C66.6242916,26.3895871 67.3391608,27.4347143 67.342,28.6 C67.3777971,29.3289391 67.117636,30.041432 66.6205544,30.5757948 C66.1234728,31.1101575 65.4316213,31.421078 64.702,31.438 Z M52.514,25.366 L52.514,27.346 L57.266,27.346 C57.1914898,28.2785842 56.8038291,29.1585739 56.166,29.843 C55.202017,30.8251488 53.8669697,31.3527722 52.492,31.295 C49.5759365,31.295 47.212,28.9310635 47.212,26.015 C47.212,23.0989365 49.5759365,20.735 52.492,20.735 C53.8344923,20.7150347 55.1307849,21.2248571 56.1,22.154 L57.497,20.757 C56.1725787,19.4470696 54.3765624,18.7254913 52.514,18.755 C49.8508568,18.6513569 47.3444329,20.013039 45.9820395,22.3036628 C44.619646,24.5942866 44.619646,27.4467134 45.9820395,29.7373372 C47.3444329,32.027961 49.8508568,33.3896431 52.514,33.286 C54.4172186,33.3620151 56.2623023,32.6215802 57.585,31.251 C58.7401303,29.9820511 59.3556294,28.3131015 59.301,26.598 C59.3049372,26.1851981 59.2718042,25.7728763 59.202,25.366 L52.514,25.366 Z M102.355,26.906 C101.767688,25.1781311 100.174721,23.9921583 98.351,23.925 C97.1347999,23.9226221 95.9718596,24.4237483 95.1383173,25.3093869 C94.3047751,26.1950255 93.874985,27.3861754 93.951,28.6 C93.9316848,30.6623014 95.2722353,32.4912485 97.2446859,33.0936593 C99.2171364,33.6960701 101.350791,32.9281881 102.487,31.207 L100.892,30.107 C100.408184,30.9134034 99.5333623,31.403136 98.593,31.394 C97.6171185,31.4342927 96.7168537,30.8705346 96.327,29.975 L102.586,27.39 L102.355,26.906 Z M95.975,28.468 C95.929965,27.7788538 96.1649489,27.1006964 96.6267179,26.5871596 C97.0884869,26.0736228 97.7379586,25.7681702 98.428,25.74 C99.1501172,25.6937807 99.8299775,26.0835096 100.155,26.73 L95.975,28.468 Z M90.893,33 L92.95,33 L92.95,19.25 L90.893,19.25 L90.893,33 Z M87.527,24.97 L87.45,24.97 C86.818104,24.2821988 85.9197,23.9011793 84.986,23.925 C82.4891616,24.0460788 80.5269708,26.1057276 80.5269708,28.6055 C80.5269708,31.1052724 82.4891616,33.1649212 84.986,33.286 C85.9302374,33.3049406 86.8336888,32.901614 87.45,32.186 L87.527,32.186 L87.527,32.857 C87.527,34.65 86.57,35.607 85.03,35.607 C83.9778661,35.5838864 83.0437841,34.9278567 82.665,33.946 L80.883,34.683 C81.5574642,36.3769885 83.2068436,37.4794914 85.03,37.455 C87.439,37.455 89.43,36.036 89.43,32.582 L89.43,24.2 L87.527,24.2 L87.527,24.97 Z M85.162,31.438 C83.6660953,31.3447334 82.5006005,30.1043094 82.5006005,28.6055 C82.5006005,27.1066906 83.6660953,25.8662666 85.162,25.773 C85.8737225,25.803714 86.5425117,26.1219431 87.0152794,26.6548436 C87.4880471,27.187744 87.7243148,27.8896887 87.67,28.6 C87.7306483,29.3128544 87.4969232,30.0194743 87.0231673,30.5555665 C86.5494114,31.0916587 85.8769015,31.4105152 85.162,31.438 Z M111.991,19.25 L107.063,19.25 L107.063,33 L109.12,33 L109.12,27.786 L111.991,27.786 C113.588952,27.9008002 115.117171,27.1133599 115.951143,25.7454703 C116.785115,24.3775807 116.785115,22.6584193 115.951143,21.2905297 C115.117171,19.9226401 113.588952,19.1351998 111.991,19.25 Z M111.991,25.85 L109.12,25.85 L109.12,21.164 L112.035,21.164 C113.335078,21.164 114.389,22.2179217 114.389,23.518 C114.389,24.8180783 113.335078,25.872 112.035,25.872 L111.991,25.85 Z M124.685,23.881 C123.153898,23.7865922 121.713572,24.6127247 121.022,25.982 L122.837,26.741 C123.211663,26.0655153 123.948441,25.6734287 124.718,25.74 C125.245481,25.6783941 125.775599,25.8312671 126.189281,26.1642812 C126.602963,26.4972953 126.865528,26.9825324 126.918,27.511 L126.918,27.643 C126.25653,27.2953084 125.520283,27.1140785 124.773,27.115 C122.815,27.115 120.813,28.215 120.813,30.217 C120.852126,31.0767394 121.238159,31.8838794 121.882887,32.4539756 C122.527614,33.0240719 123.375936,33.3084049 124.234,33.242 C125.284953,33.3001327 126.285622,32.7871848 126.852,31.9 L126.918,31.9 L126.918,33 L128.898,33 L128.898,27.709 C128.898,25.3 127.072,23.903 124.729,23.903 L124.685,23.881 Z M124.432,31.416 C123.761,31.416 122.826,31.075 122.826,30.25 C122.826,29.15 123.992,28.776 125.026,28.776 C125.679446,28.7598761 126.325244,28.9194261 126.896,29.238 C126.753173,30.4734147 125.719396,31.4132117 124.476,31.438 L124.432,31.416 Z M136.114,24.2 L133.76,30.162 L133.694,30.162 L131.252,24.2 L129.052,24.2 L132.715,32.538 L130.625,37.169 L132.825,37.169 L138.402,24.2 L136.114,24.2 Z M117.634,33 L119.68,33 L119.68,19.25 L117.634,19.25 L117.634,33 Z" id="Shape" fill="#FFFFFF" fill-rule="nonzero"></path>
            <path d="M11.484,8.294 C11.1333603,8.72746109 10.9603706,9.2778829 11,9.834 L11,34.166 C10.9625714,34.7274172 11.1483829,35.2808982 11.517,35.706 L11.594,35.794 L25.19,22.165 L25.19,21.835 L11.561,8.217 L11.484,8.294 Z" id="Path" fill="url(#linearGradient-1)"></path>
            <path d="M29.7,26.708 L25.19,22.165 L25.19,21.835 L29.7,17.292 L29.799,17.358 L35.2,20.416 C36.74,21.285 36.74,22.715 35.2,23.595 L29.821,26.653 L29.7,26.708 Z" id="Path" fill="url(#linearGradient-2)"></path>
            <path d="M29.832,26.653 L25.19,22 L11.484,35.706 C12.1253358,36.2768679 13.082564,36.3092379 13.761,35.783 L29.832,26.653" id="Path" fill="url(#linearGradient-3)"></path>
            <path d="M29.832,17.358 L13.761,8.228 C13.086661,7.69419366 12.1262875,7.72203057 11.484,8.294 L25.19,22 L29.832,17.358 Z" id="Path" fill="url(#linearGradient-4)"></path>
            <path d="M29.7,26.543 L13.761,35.618 C13.1099696,36.1093472 12.2120304,36.1093472 11.561,35.618 L11.484,35.695 L11.561,35.783 C12.2120304,36.2743472 13.1099696,36.2743472 13.761,35.783 L29.832,26.653 L29.7,26.543 Z" id="Path" fill="#000000" opacity="0.2"></path>
            <path d="M11.484,35.552 C11.1306735,35.1156959 10.9575201,34.5608181 11,34.001 L11,34.166 C10.9625714,34.7274172 11.1483829,35.2808982 11.517,35.706 L11.594,35.629 L11.484,35.552 Z" id="Path" fill="#000000" opacity="0.12"></path>
            <path d="M35.2,23.43 L29.7,26.543 L29.799,26.653 L35.2,23.584 C35.849435,23.3093941 36.2967664,22.7016986 36.366,22 C36.226529,22.6348103 35.7937378,23.1655919 35.2,23.43 Z" id="Path" fill="#000000" opacity="0.12"></path>
            <path d="M13.761,8.382 L35.2,20.57 C35.7937378,20.8344081 36.226529,21.3651897 36.366,22 C36.2967664,21.2983014 35.849435,20.6906059 35.2,20.416 L13.761,8.228 C12.232,7.348 11,8.074 11,9.834 L11,9.999 C11,8.239 12.232,7.513 13.761,8.382 Z" id="Path" fill="#FFFFFF" opacity="0.25"></path>
            <path d="M45.408,14.3 L45.408,7.7 L47.421,7.7 C48.3258092,7.65626357 49.2088136,7.98639584 49.863,8.613 C50.4755837,9.253744 50.8046225,10.114002 50.776,11 C50.8046225,11.885998 50.4755837,12.746256 49.863,13.387 C49.2088136,14.0136042 48.3258092,14.3437364 47.421,14.3 L45.408,14.3 Z M46.255,13.486 L47.421,13.486 C48.0882972,13.5200744 48.7416056,13.2864672 49.236,12.837 C49.7001349,12.3413713 49.9424089,11.6780968 49.907,11 C49.9432487,10.3250641 49.7006478,9.66487147 49.236,9.174 C48.7453388,8.7172932 48.0904133,8.47913847 47.421,8.514 L46.255,8.514 L46.255,13.486 Z" id="Shape" stroke="#FFFFFF" stroke-width="0.2" fill="#FFFFFF" fill-rule="nonzero"></path>
            <polygon id="Path" stroke="#FFFFFF" stroke-width="0.2" fill="#FFFFFF" points="51.964 14.3 51.964 7.7 52.8 7.7 52.8 14.3"></polygon>
            <path d="M56.177,14.443 C55.6751473,14.4348793 55.187743,14.2736905 54.78,13.981 C54.3244399,13.6696822 54.0024961,13.1985449 53.878,12.661 L54.648,12.342 C54.742377,12.7000981 54.9415557,13.0218484 55.22,13.266 C55.4827544,13.5031399 55.8230787,13.6361403 56.177,13.64 C56.5169268,13.6514159 56.8505967,13.546659 57.123,13.343 C57.3793759,13.1670805 57.5285987,12.8727799 57.519,12.562 C57.5368306,12.2281457 57.3886231,11.9070295 57.123,11.704 C56.7465297,11.4495368 56.3301042,11.2599144 55.891,11.143 C55.3960012,11.0159105 54.939255,10.770551 54.56,10.428 C54.2630485,10.1401337 54.099597,9.74147165 54.109,9.328 C54.1094458,8.85246381 54.3136892,8.39992456 54.67,8.085 C55.4878916,7.43354102 56.6355404,7.39335098 57.497,7.986 C57.8137873,8.21196394 58.0521945,8.53112193 58.179,8.899 L57.409,9.218 C57.3359675,8.98972316 57.1937287,8.78981997 57.002,8.646 C56.7623311,8.45470108 56.4613327,8.35697432 56.155,8.371 C55.853344,8.36608983 55.5588331,8.46296842 55.319,8.646 C55.1022421,8.8052424 54.9753392,9.05904821 54.978,9.328 C54.9750112,9.57366896 55.0946384,9.80467324 55.297,9.944 C55.5787331,10.1523434 55.8953534,10.3087911 56.232,10.406 C56.5089474,10.4888775 56.7807546,10.5880504 57.046,10.703 C57.2798968,10.8103205 57.5012364,10.9431242 57.706,11.099 C57.9233084,11.254423 58.0974489,11.4626345 58.212,11.704 C58.3356757,11.9688249 58.395936,12.2588272 58.388,12.551 C58.3929794,12.8488697 58.325003,13.143434 58.19,13.409 C58.0690021,13.6497859 57.8869394,13.8546065 57.662,14.003 C57.4470844,14.1535923 57.2093962,14.2687225 56.958,14.344 C56.7039477,14.4152076 56.4407842,14.4485664 56.177,14.443 Z" id="Path" stroke="#FFFFFF" stroke-width="0.2" fill="#FFFFFF"></path>
            <path d="M60.5,14.3 L59.653,14.3 L59.653,7.7 L61.853,7.7 C62.3915925,7.69075488 62.9125366,7.89202874 63.305,8.261 C63.6980142,8.62143419 63.9217641,9.13023369 63.9217641,9.6635 C63.9217641,10.1967663 63.6980142,10.7055658 63.305,11.066 C62.9125366,11.4349713 62.3915925,11.6362451 61.853,11.627 L60.5,11.627 L60.5,14.3 Z M60.5,10.813 L61.919,10.813 C62.2162031,10.8060235 62.4979281,10.6790489 62.7,10.461 C62.9186039,10.2533266 63.0423762,9.96502262 63.0423762,9.6635 C63.0423762,9.36197738 62.9186039,9.07367336 62.7,8.866 C62.4798564,8.62794707 62.1659008,8.49914475 61.842,8.514 L60.5,8.514 L60.5,10.813 Z" id="Shape" stroke="#FFFFFF" stroke-width="0.2" fill="#FFFFFF" fill-rule="nonzero"></path>
            <path d="M70.4,13.442 C69.7583579,14.0841664 68.8877897,14.4449758 67.98,14.4449758 C67.0722103,14.4449758 66.2016421,14.0841664 65.56,13.442 C64.9052285,12.8007815 64.546596,11.9161546 64.57,11 C64.5408239,10.0871167 64.8912975,9.20296747 65.538,8.558 C66.1796421,7.91583362 67.0502103,7.55502419 67.958,7.55502419 C68.8657897,7.55502419 69.7363579,7.91583362 70.378,8.558 C71.0199672,9.2068855 71.3729484,10.0873555 71.357,11 C71.3890733,11.9112567 71.0426743,12.7951714 70.4,13.442 Z M66.187,12.892 C66.6554969,13.3785758 67.3046057,13.6493696 67.98,13.64 C68.6561666,13.6534025 69.3068259,13.3819618 69.773,12.892 C70.2617461,12.3867281 70.5204243,11.7022258 70.488,11 C70.5145997,10.2945422 70.2477838,9.6095817 69.751,9.108 C69.2848259,8.61803816 68.6341666,8.34659745 67.958,8.36 C67.2826057,8.3506304 66.6334969,8.62142424 66.165,9.108 C65.6755776,9.61356914 65.4134047,10.2968078 65.439,11 C65.4134047,11.7031922 65.6755776,12.3864309 66.165,12.892 L66.187,12.892 Z" id="Shape" stroke="#FFFFFF" stroke-width="0.2" fill="#FFFFFF" fill-rule="nonzero"></path>
            <polygon id="Path" stroke="#FFFFFF" stroke-width="0.2" fill="#FFFFFF" points="72.6 14.3 72.6 7.7 73.634 7.7 76.835 12.837 76.835 12.837 76.835 11.561 76.835 7.7 77.693 7.7 77.693 14.3 76.802 14.3 73.502 8.921 73.502 8.921 73.502 10.186 73.502 14.3"></polygon>
            <polygon id="Path" stroke="#FFFFFF" stroke-width="0.2" fill="#FFFFFF" points="79.2 14.3 79.2 7.7 80.047 7.7 80.047 14.3"></polygon>
            <path d="M81.499,14.3 L81.499,7.7 L83.886,7.7 C84.3808486,7.69503285 84.859619,7.87555284 85.228,8.206 C85.5988608,8.52985483 85.8081279,9.00070577 85.8,9.493 C85.8026593,9.78931369 85.7185345,10.0799266 85.558,10.329 C85.3956238,10.5651808 85.1709796,10.7517497 84.909,10.868 C85.2250083,10.9737229 85.5012848,11.1732559 85.701,11.44 C85.9109259,11.7061264 86.0234917,12.0360606 86.02,12.375 C86.0313697,12.8883984 85.8136747,13.3802278 85.426,13.717 C85.0442077,14.0722732 84.5394346,14.2655067 84.018,14.256 L81.499,14.3 Z M82.346,10.527 L83.886,10.527 C84.1779229,10.5438874 84.4615474,10.4263858 84.656,10.208 C84.8425301,10.0252158 84.9492805,9.77613157 84.953,9.515 C84.9633943,9.25305364 84.8728306,8.99711295 84.7,8.8 C84.5127561,8.59228271 84.2423654,8.4792836 83.963,8.492 L82.346,8.492 L82.346,10.527 Z M82.346,13.486 L84.051,13.486 C84.3561464,13.4978833 84.6506462,13.3728218 84.854,13.145 C85.0439317,12.9421346 85.1500403,12.6748984 85.151,12.397 C85.144307,12.121419 85.0343868,11.8583956 84.843,11.66 C84.6285557,11.4348398 84.3288355,11.3109555 84.018,11.319 L82.346,11.319 L82.346,13.486 Z" id="Shape" stroke="#FFFFFF" stroke-width="0.2" fill="#FFFFFF" fill-rule="nonzero"></path>
            <polygon id="Path" stroke="#FFFFFF" stroke-width="0.2" fill="#FFFFFF" points="87.164 14.3 87.164 7.7 88 7.7 88 13.486 90.86 13.486 90.86 14.3"></polygon>
            <polygon id="Path" stroke="#FFFFFF" stroke-width="0.2" fill="#FFFFFF" points="95.788 8.514 92.785 8.514 92.785 10.604 95.491 10.604 95.491 11.396 92.785 11.396 92.785 13.486 95.788 13.486 95.788 14.3 91.938 14.3 91.938 7.7 95.788 7.7"></polygon>
            <path d="M100.914,14.443 C100.408961,14.4336538 99.9183961,14.2726872 99.506,13.981 C99.0545764,13.6677105 98.7367327,13.1968309 98.615,12.661 L99.385,12.342 C99.479377,12.7000981 99.6785557,13.0218484 99.957,13.266 C100.219754,13.5031399 100.560079,13.6361403 100.914,13.64 C101.253688,13.6496786 101.5868,13.545097 101.86,13.343 C102.116376,13.1670805 102.265599,12.8727799 102.256,12.562 C102.273831,12.2281457 102.125623,11.9070295 101.86,11.704 C101.479365,11.4498652 101.059385,11.2603164 100.617,11.143 C100.125261,11.0159162 99.6720846,10.7704457 99.297,10.428 C98.9953686,10.1433241 98.8310244,9.74248474 98.846,9.328 C98.8464458,8.85246381 99.0506892,8.39992456 99.407,8.085 C100.224892,7.43354102 101.37254,7.39335098 102.234,7.986 C102.550787,8.21196394 102.789194,8.53112193 102.916,8.899 L102.146,9.218 C102.073559,8.98645403 101.9266,8.78535287 101.728,8.646 C101.493206,8.45360045 101.195162,8.35555984 100.892,8.371 C100.590344,8.36608983 100.295833,8.46296842 100.056,8.646 C99.8364939,8.80408184 99.7056971,9.05750063 99.704,9.328 C99.7065796,9.57231509 99.8249574,9.8009068 100.023,9.944 C100.307417,10.1479075 100.623246,10.3039642 100.958,10.406 C101.239077,10.48723 101.514644,10.5864344 101.783,10.703 C102.015572,10.8128163 102.236658,10.9454678 102.443,11.099 C102.660308,11.254423 102.834449,11.4626345 102.949,11.704 C103.06359,11.9713924 103.119841,12.260147 103.114,12.551 C103.122389,12.8479535 103.058199,13.1424696 102.927,13.409 C102.806002,13.6497859 102.623939,13.8546065 102.399,14.003 C102.184084,14.1535923 101.946396,14.2687225 101.695,14.344 C101.440948,14.4152076 101.177784,14.4485664 100.914,14.443 Z" id="Path" stroke="#FFFFFF" stroke-width="0.2" fill="#FFFFFF"></path>
            <path d="M106.634,14.443 C105.968166,14.4712915 105.322556,14.2106416 104.863,13.728 C104.400622,13.2136687 104.159541,12.5378521 104.192,11.847 L104.192,7.7 L105.039,7.7 L105.039,11.88 C105.005629,12.3553223 105.150755,12.8260008 105.446,13.2 C105.748299,13.5328753 106.185146,13.7108498 106.634,13.684 C107.076137,13.7089144 107.505475,13.5306986 107.8,13.2 C108.088848,12.8390985 108.237324,12.3858546 108.218,11.924 L108.218,7.7 L109.065,7.7 L109.065,11.847 C109.098093,12.5359871 108.861337,13.2107427 108.405,13.728 C107.947978,14.2143579 107.30059,14.4757255 106.634,14.443 Z" id="Path" stroke="#FFFFFF" stroke-width="0.2" fill="#FFFFFF"></path>
            <path d="M110.44,14.3 L110.44,7.7 L112.64,7.7 C113.178592,7.69075488 113.699537,7.89202874 114.092,8.261 C114.496978,8.61502455 114.722849,9.13130086 114.708,9.669 C114.707764,10.1167026 114.54785,10.5496413 114.257,10.89 C113.975993,11.2286153 113.588017,11.461401 113.157,11.55 L115.005,14.3 L114.004,14.3 L112.2,11.627 L111.265,11.627 L111.265,14.3 L110.44,14.3 Z M111.287,10.835 L112.651,10.835 C112.972444,10.8415259 113.283913,10.7232467 113.52,10.505 C113.756184,10.2919265 113.888567,9.98704419 113.883,9.669 C113.880159,9.37099007 113.766435,9.08471928 113.564,8.866 C113.343856,8.62794707 113.029901,8.49914475 112.706,8.514 L111.287,8.514 L111.287,10.835 Z" id="Shape" stroke="#FFFFFF" stroke-width="0.2" fill="#FFFFFF" fill-rule="nonzero"></path>
        </g>
    </g>
</svg>