<?xml version="1.0" encoding="UTF-8"?>
<svg width="149px" height="44px" viewBox="0 0 149 44" version="1.1" xmlns="http://www.w3.org/2000/svg" xmlns:xlink="http://www.w3.org/1999/xlink">
    <!-- Generator: Sketch 52 (66869) - http://www.bohemiancoding.com/sketch -->
    <title>app-google_en</title>
    <desc>Created with Sketch.</desc>
    <defs>
        <linearGradient x1="91.4954814%" y1="4.94615078%" x2="-38.2370848%" y2="71.8787395%" id="linearGradient-1">
            <stop stop-color="#00A0FF" offset="0%"></stop>
            <stop stop-color="#00A1FF" offset="1%"></stop>
            <stop stop-color="#00BEFF" offset="26%"></stop>
            <stop stop-color="#00D2FF" offset="51%"></stop>
            <stop stop-color="#00DFFF" offset="76%"></stop>
            <stop stop-color="#00E3FF" offset="100%"></stop>
        </linearGradient>
        <linearGradient x1="107.684729%" y1="50%" x2="-130.640394%" y2="50%" id="linearGradient-2">
            <stop stop-color="#FFE000" offset="0%"></stop>
            <stop stop-color="#FFBD00" offset="41%"></stop>
            <stop stop-color="#FFA500" offset="78%"></stop>
            <stop stop-color="#FF9C00" offset="100%"></stop>
        </linearGradient>
        <linearGradient x1="86.2709832%" y1="17.871098%" x2="-50.1798561%" y2="194.639567%" id="linearGradient-3">
            <stop stop-color="#FF3A44" offset="0%"></stop>
            <stop stop-color="#C31162" offset="100%"></stop>
        </linearGradient>
        <linearGradient x1="-18.82494%" y1="-54.0297086%" x2="42.0863309%" y2="24.9280028%" id="linearGradient-4">
            <stop stop-color="#32A071" offset="0%"></stop>
            <stop stop-color="#2DA771" offset="7%"></stop>
            <stop stop-color="#15CF74" offset="48%"></stop>
            <stop stop-color="#06E775" offset="80%"></stop>
            <stop stop-color="#00F076" offset="100%"></stop>
        </linearGradient>
    </defs>
    <g id="Page-1" stroke="none" stroke-width="1" fill="none" fill-rule="evenodd">
        <g id="app-google_en">
            <rect id="Rectangle" fill="#000000" x="0" y="0" width="148.5" height="44" rx="5"></rect>
            <path d="M143,0.88 C145.551556,0.88 147.62,2.94844446 147.62,5.5 L147.62,38.5 C147.62,41.0515555 145.551556,43.12 143,43.12 L5.5,43.12 C2.94844446,43.12 0.88,41.0515555 0.88,38.5 L0.88,5.5 C0.88,2.94844446 2.94844446,0.88 5.5,0.88 L143,0.88 Z M143,0 L5.5,0 C2.46243388,1.95399252e-15 0,2.46243388 0,5.5 L0,38.5 C0,41.5375661 2.46243388,44 5.5,44 L143,44 C146.037566,44 148.5,41.5375661 148.5,38.5 L148.5,5.5 C148.5,2.46243388 146.037566,1.95399252e-15 143,0 Z" id="Shape" fill="#A6A6A6" fill-rule="nonzero"></path>
            <path d="M52.162,11.264 C52.1984921,12.0791494 51.9004827,12.8738412 51.337,13.464 C50.7049638,14.1165279 49.8247006,14.4686332 48.917,14.432 C48.0046368,14.452333 47.1245863,14.0939414 46.486,13.442 C45.1528768,12.0783571 45.1528768,9.89964295 46.486,8.536 C47.4880018,7.5569063 48.9798302,7.2750201 50.27,7.821 C50.666662,7.9840535 51.0204644,8.23623183 51.304,8.558 L50.721,9.141 C50.2780895,8.60744564 49.6095465,8.31393894 48.917,8.349 C47.7308305,8.35720427 46.6957706,9.15553688 46.3865427,10.3007196 C46.0773147,11.4459024 46.5698525,12.6567245 47.590672,13.260871 C48.6114916,13.8650175 49.9099206,13.7141343 50.765,12.892 C51.1009952,12.5236125 51.2958236,12.0482313 51.315,11.55 L48.917,11.55 L48.917,10.758 L52.118,10.758 C52.1430465,10.9256027 52.157741,11.0945897 52.162,11.264 Z" id="Path" stroke="#FFFFFF" stroke-width="0.2" fill="#FFFFFF"></path>
            <polygon id="Path" stroke="#FFFFFF" stroke-width="0.2" fill="#FFFFFF" points="57.2 8.514 54.23 8.514 54.23 10.604 56.936 10.604 56.936 11.396 54.23 11.396 54.23 13.486 57.2 13.486 57.2 14.3 53.372 14.3 53.372 7.7 57.2 7.7"></polygon>
            <polygon id="Path" stroke="#FFFFFF" stroke-width="0.2" fill="#FFFFFF" points="60.808 14.3 59.961 14.3 59.961 8.514 58.113 8.514 58.113 7.7 62.7 7.7 62.7 8.514 60.808 8.514"></polygon>
            <polygon id="Path" stroke="#FFFFFF" stroke-width="0.2" fill="#FFFFFF" points="65.934 14.3 65.934 7.7 66.781 7.7 66.781 14.3"></polygon>
            <polygon id="Path" stroke="#FFFFFF" stroke-width="0.2" fill="#FFFFFF" points="70.543 14.3 69.696 14.3 69.696 8.514 67.848 8.514 67.848 7.7 72.38 7.7 72.38 8.514 70.543 8.514"></polygon>
            <path d="M80.971,13.442 C80.3293579,14.0841664 79.4587897,14.4449758 78.551,14.4449758 C77.6432103,14.4449758 76.7726421,14.0841664 76.131,13.442 C74.840209,12.0698571 74.840209,9.93014292 76.131,8.558 C76.7596413,7.89687164 77.6390182,7.53312936 78.551,7.557 C79.4612032,7.54260161 80.3369263,7.90483253 80.971,8.558 C81.6100099,9.20800307 81.9591226,10.0887192 81.939,11 C81.9681761,11.9128833 81.6177025,12.7970325 80.971,13.442 Z M76.758,12.892 C77.2313302,13.3716636 77.8771167,13.6416747 78.551,13.6416747 C79.2248833,13.6416747 79.8706698,13.3716636 80.344,12.892 C81.328118,11.8226239 81.328118,10.1773761 80.344,9.108 C79.8706698,8.62833636 79.2248833,8.3583253 78.551,8.3583253 C77.8771167,8.3583253 77.2313302,8.62833636 76.758,9.108 C75.773882,10.1773761 75.773882,11.8226239 76.758,12.892 Z" id="Shape" stroke="#FFFFFF" stroke-width="0.2" fill="#FFFFFF" fill-rule="nonzero"></path>
            <polygon id="Path" stroke="#FFFFFF" stroke-width="0.2" fill="#FFFFFF" points="83.138 14.3 83.138 7.7 84.161 7.7 87.373 12.837 87.373 12.837 87.373 11.561 87.373 7.7 88.22 7.7 88.22 14.3 87.34 14.3 83.985 8.921 83.985 8.921 83.985 10.186 83.985 14.3"></polygon>
            <path d="M74.954,23.925 C72.3660042,23.9310822 70.2729483,26.0339955 70.2790258,28.6219913 C70.2851033,31.2099872 72.3880127,33.3030469 74.9760085,33.2969742 C77.5640044,33.2909014 79.657068,31.1879959 79.651,28.6 C79.6691203,27.3508112 79.1793548,26.1477807 78.2938807,25.266454 C77.4084066,24.3851273 76.20309,23.9010152 74.954,23.925 Z M74.954,31.438 C73.7915501,31.5192958 72.6975403,30.8817448 72.1952234,29.8302808 C71.6929066,28.7788167 71.8843794,27.5271511 72.6780625,26.6739418 C73.4717455,25.8207326 74.7063216,25.5393956 75.7913066,25.9644914 C76.8762916,26.3895871 77.5911608,27.4347143 77.594,28.6 C77.6297971,29.3289391 77.369636,30.041432 76.8725544,30.5757948 C76.3754728,31.1101575 75.6836213,31.421078 74.954,31.438 Z M64.702,23.925 C62.1140042,23.9310822 60.0209483,26.0339955 60.0270258,28.6219913 C60.0331033,31.2099872 62.1360127,33.3030469 64.7240085,33.2969742 C67.3120044,33.2909014 69.405068,31.1879959 69.399,28.6 C69.4171203,27.3508112 68.9273548,26.1477807 68.0418807,25.266454 C67.1564066,24.3851273 65.95109,23.9010152 64.702,23.925 Z M64.702,31.438 C63.5395501,31.5192958 62.4455403,30.8817448 61.9432234,29.8302808 C61.4409066,28.7788167 61.6323794,27.5271511 62.4260625,26.6739418 C63.2197455,25.8207326 64.4543216,25.5393956 65.5393066,25.9644914 C66.6242916,26.3895871 67.3391608,27.4347143 67.342,28.6 C67.3777971,29.3289391 67.117636,30.041432 66.6205544,30.5757948 C66.1234728,31.1101575 65.4316213,31.421078 64.702,31.438 Z M52.514,25.366 L52.514,27.346 L57.266,27.346 C57.1914898,28.2785842 56.8038291,29.1585739 56.166,29.843 C55.202017,30.8251488 53.8669697,31.3527722 52.492,31.295 C49.5759365,31.295 47.212,28.9310635 47.212,26.015 C47.212,23.0989365 49.5759365,20.735 52.492,20.735 C53.8344923,20.7150347 55.1307849,21.2248571 56.1,22.154 L57.497,20.757 C56.1725787,19.4470696 54.3765624,18.7254913 52.514,18.755 C49.8508568,18.6513569 47.3444329,20.013039 45.9820395,22.3036628 C44.619646,24.5942866 44.619646,27.4467134 45.9820395,29.7373372 C47.3444329,32.027961 49.8508568,33.3896431 52.514,33.286 C54.4172186,33.3620151 56.2623023,32.6215802 57.585,31.251 C58.7401303,29.9820511 59.3556294,28.3131015 59.301,26.598 C59.3049372,26.1851981 59.2718042,25.7728763 59.202,25.366 L52.514,25.366 Z M102.355,26.906 C101.767688,25.1781311 100.174721,23.9921583 98.351,23.925 C97.1347999,23.9226221 95.9718596,24.4237483 95.1383173,25.3093869 C94.3047751,26.1950255 93.874985,27.3861754 93.951,28.6 C93.9316848,30.6623014 95.2722353,32.4912485 97.2446859,33.0936593 C99.2171364,33.6960701 101.350791,32.9281881 102.487,31.207 L100.892,30.107 C100.408184,30.9134034 99.5333623,31.403136 98.593,31.394 C97.6171185,31.4342927 96.7168537,30.8705346 96.327,29.975 L102.586,27.39 L102.355,26.906 Z M95.975,28.468 C95.9299628,27.7777628 96.1646256,27.098446 96.6260928,26.5831755 C97.08756,26.0679049 97.7369922,25.7600483 98.428,25.729 C99.1526425,25.6847682 99.8331941,26.0792281 100.155,26.73 L95.975,28.468 Z M90.893,33 L92.95,33 L92.95,19.25 L90.893,19.25 L90.893,33 Z M87.527,24.97 L87.45,24.97 C86.8281772,24.2618281 85.9283766,23.8601314 84.986,23.87 C82.4891616,23.9910788 80.5269708,26.0507276 80.5269708,28.5505 C80.5269708,31.0502724 82.4891616,33.1099212 84.986,33.231 C85.9302374,33.2499406 86.8336888,32.846614 87.45,32.131 L87.527,32.131 L87.527,32.802 C87.527,34.595 86.57,35.552 85.03,35.552 C83.9778661,35.5288864 83.0437841,34.8728567 82.665,33.891 L80.883,34.628 C81.5574642,36.3219885 83.2068436,37.4244914 85.03,37.4 C87.439,37.4 89.43,35.981 89.43,32.527 L89.43,24.2 L87.527,24.2 L87.527,24.97 Z M85.162,31.438 C83.6660953,31.3447334 82.5006005,30.1043094 82.5006005,28.6055 C82.5006005,27.1066906 83.6660953,25.8662666 85.162,25.773 C85.8737225,25.803714 86.5425117,26.1219431 87.0152794,26.6548436 C87.4880471,27.187744 87.7243148,27.8896887 87.67,28.6 C87.7306483,29.3128544 87.4969232,30.0194743 87.0231673,30.5555665 C86.5494114,31.0916587 85.8769015,31.4105152 85.162,31.438 Z M111.991,19.25 L107.063,19.25 L107.063,33 L109.12,33 L109.12,27.786 L111.991,27.786 C113.588952,27.9008002 115.117171,27.1133599 115.951143,25.7454703 C116.785115,24.3775807 116.785115,22.6584193 115.951143,21.2905297 C115.117171,19.9226401 113.588952,19.1351998 111.991,19.25 Z M111.991,25.85 L109.12,25.85 L109.12,21.164 L112.035,21.164 C112.876003,21.164 113.653122,21.6126698 114.073624,22.341 C114.494126,23.0693301 114.494126,23.9666699 114.073624,24.695 C113.653122,25.4233302 112.876003,25.872 112.035,25.872 L111.991,25.85 Z M124.685,23.881 C123.153898,23.7865922 121.713572,24.6127247 121.022,25.982 L122.837,26.741 C123.211663,26.0655153 123.948441,25.6734287 124.718,25.74 C125.245481,25.6783941 125.775599,25.8312671 126.189281,26.1642812 C126.602963,26.4972953 126.865528,26.9825324 126.918,27.511 L126.918,27.643 C126.25653,27.2953084 125.520283,27.1140785 124.773,27.115 C122.815,27.115 120.813,28.215 120.813,30.217 C120.852126,31.0767394 121.238159,31.8838794 121.882887,32.4539756 C122.527614,33.0240719 123.375936,33.3084049 124.234,33.242 C125.284953,33.3001327 126.285622,32.7871848 126.852,31.9 L126.918,31.9 L126.918,33 L128.898,33 L128.898,27.709 C128.898,25.3 127.072,23.903 124.729,23.903 L124.685,23.881 Z M124.432,31.416 C123.761,31.416 122.826,31.075 122.826,30.25 C122.826,29.15 123.992,28.776 125.026,28.776 C125.679446,28.7598761 126.325244,28.9194261 126.896,29.238 C126.753173,30.4734147 125.719396,31.4132117 124.476,31.438 L124.432,31.416 Z M136.114,24.2 L133.76,30.162 L133.694,30.162 L131.252,24.2 L129.052,24.2 L132.715,32.538 L130.625,37.169 L132.77,37.169 L138.402,24.2 L136.114,24.2 Z M117.634,33 L119.68,33 L119.68,19.25 L117.634,19.25 L117.634,33 Z" id="Shape" fill="#FFFFFF" fill-rule="nonzero"></path>
            <path d="M11.484,8.294 C11.1215163,8.72258144 10.936562,9.27350913 10.967,9.834 L10.967,34.166 C10.9295714,34.7274172 11.1153829,35.2808982 11.484,35.706 L11.561,35.794 L25.19,22.165 L25.19,21.835 L11.561,8.217 L11.484,8.294 Z" id="Path" fill="url(#linearGradient-1)"></path>
            <path d="M29.7,26.708 L25.19,22.165 L25.19,21.835 L29.7,17.292 L29.799,17.358 L35.2,20.416 C36.74,21.285 36.74,22.715 35.2,23.595 L29.821,26.653 L29.7,26.708 Z" id="Path" fill="url(#linearGradient-2)"></path>
            <path d="M29.832,26.642 L25.19,22 L11.484,35.706 C12.1253358,36.2768679 13.082564,36.3092379 13.761,35.783 L29.832,26.642" id="Path" fill="url(#linearGradient-3)"></path>
            <path d="M29.832,17.358 L13.761,8.228 C13.086661,7.69419366 12.1262875,7.72203057 11.484,8.294 L25.19,22 L29.832,17.358 Z" id="Path" fill="url(#linearGradient-4)"></path>
            <path d="M29.7,26.543 L13.761,35.618 C13.1099696,36.1093472 12.2120304,36.1093472 11.561,35.618 L11.484,35.695 L11.561,35.783 C12.2120304,36.2743472 13.1099696,36.2743472 13.761,35.783 L29.832,26.642 L29.7,26.543 Z" id="Path" fill="#000000" opacity="0.2"></path>
            <path d="M11.484,35.552 C11.1306735,35.1156959 10.9575201,34.5608181 11,34.001 L11,34.166 C10.9625714,34.7274172 11.1483829,35.2808982 11.517,35.706 L11.594,35.629 L11.484,35.552 Z" id="Path" fill="#000000" opacity="0.12"></path>
            <path d="M35.2,23.43 L29.7,26.543 L29.799,26.642 L35.2,23.584 C35.849435,23.3093941 36.2967664,22.7016986 36.366,22 C36.226529,22.6348103 35.7937378,23.1655919 35.2,23.43 Z" id="Path" fill="#000000" opacity="0.12"></path>
            <path d="M13.761,8.382 L35.2,20.57 C35.7937378,20.8344081 36.226529,21.3651897 36.366,22 C36.2967664,21.2983014 35.849435,20.6906059 35.2,20.416 L13.761,8.228 C12.232,7.348 10.967,8.074 10.967,9.834 L10.967,9.999 C11,8.239 12.232,7.513 13.761,8.382 Z" id="Path" fill="#FFFFFF" opacity="0.25"></path>
        </g>
    </g>
</svg>