<svg xmlns="http://www.w3.org/2000/svg" xmlns:xlink="http://www.w3.org/1999/xlink" width="149.23" height="44" viewBox="0 0 149.23 44"><g><path d="M138.75,0H9.28l-1,0a14.74,14.74,0,0,0-2.2.19A7.34,7.34,0,0,0,4,.9,6.91,6.91,0,0,0,2.2,2.2,6.68,6.68,0,0,0,.9,4,7.78,7.78,0,0,0,.21,6.07,14.87,14.87,0,0,0,0,8.28c0,.33,0,.67,0,1V34.71c0,.35,0,.68,0,1a14.74,14.74,0,0,0,.19,2.2A7.4,7.4,0,0,0,.9,40,6.8,6.8,0,0,0,2.2,41.8,6.91,6.91,0,0,0,4,43.1a7.34,7.34,0,0,0,2.09.69,14.75,14.75,0,0,0,2.2.2H141a14.63,14.63,0,0,0,2.2-.2,7.4,7.4,0,0,0,2.1-.69A6.91,6.91,0,0,0,147,41.8a7,7,0,0,0,1.3-1.77,7.38,7.38,0,0,0,.68-2.1,14.76,14.76,0,0,0,.21-2.2v-1c0-.39,0-.79,0-1.2v-23c0-.4,0-.8,0-1.2v-1A14.89,14.89,0,0,0,149,6.07,7.42,7.42,0,0,0,148.33,4,7.1,7.1,0,0,0,145.25.9a7.73,7.73,0,0,0-2.1-.69A13.42,13.42,0,0,0,141,0l-1,0Z" transform="translate(0 0)" style="fill:#6b6b6b;fill-rule:evenodd"/></g><path d="M9.29,43h-1a14.19,14.19,0,0,1-2-.18,6.4,6.4,0,0,1-1.82-.61,5.81,5.81,0,0,1-1.54-1.11,5.63,5.63,0,0,1-1.12-1.54,6.18,6.18,0,0,1-.6-1.82A13.15,13.15,0,0,1,1,35.7c0-.23,0-1,0-1V9.29s0-.76,0-1a12.8,12.8,0,0,1,.18-2.05,6.15,6.15,0,0,1,.6-1.83A5.81,5.81,0,0,1,2.87,2.88,6.63,6.63,0,0,1,4.42,1.75a6.4,6.4,0,0,1,1.81-.59A12.06,12.06,0,0,1,8.3,1l1,0H139.94l1,0a11.63,11.63,0,0,1,2,.18,6.3,6.3,0,0,1,1.84.6,6.21,6.21,0,0,1,2.66,2.66,6.74,6.74,0,0,1,.59,1.81,16.08,16.08,0,0,1,.19,2.08v1c0,.41,0,.8,0,1.2v23c0,.4,0,.79,0,1.18v1a15.63,15.63,0,0,1-.19,2,6.32,6.32,0,0,1-.59,1.83,6.15,6.15,0,0,1-2.66,2.65,6.64,6.64,0,0,1-1.84.61,14.07,14.07,0,0,1-2,.18H9.29Z" transform="translate(0 0)" style="fill-rule:evenodd"/><g><path d="M23.57,30.64a10.94,10.94,0,0,0,2-4.21h4.4a10.63,10.63,0,0,1-6.37,4.21ZM12.68,26.43h4.4a10.94,10.94,0,0,0,2,4.21,10.63,10.63,0,0,1-6.37-4.21Zm-.17-12.08H17a24.92,24.92,0,0,0-.67,5.41H10.72a10.45,10.45,0,0,1,1.79-5.41ZM19,9.92a10,10,0,0,0-1.74,3.44h-4A10.58,10.58,0,0,1,19,9.92Zm10.31,3.44h-4a9.67,9.67,0,0,0-1.75-3.45,10.54,10.54,0,0,1,5.78,3.45Zm-3.08,6.4a23.74,23.74,0,0,0-.67-5.41h4.51a10.51,10.51,0,0,1,1.79,5.41Zm0,1H31.9a10.45,10.45,0,0,1-1.33,4.7h-4.8a25.09,25.09,0,0,0,.5-4.7Zm-1.67-6.4a23.17,23.17,0,0,1,.68,5.41H17.34A23.13,23.13,0,0,1,18,14.35ZM21.31,9.66h0c1.09,0,2.22,1.36,3,3.7h-6c.78-2.34,1.91-3.7,3-3.7ZM10.72,20.75h5.63a25.09,25.09,0,0,0,.5,4.7h-4.8a10.58,10.58,0,0,1-1.33-4.7Zm7.12,4.7a24.91,24.91,0,0,1-.5-4.7h7.94a24.11,24.11,0,0,1-.5,4.7Zm3.47,5.44h0c-1.2,0-2.45-1.66-3.23-4.46h6.46c-.77,2.8-2,4.46-3.23,4.46Zm0-22.22h0a11.61,11.61,0,0,0,0,23.21h0a11.61,11.61,0,1,0,0-23.21Z" transform="translate(0 0)" style="fill:#fff;fill-rule:evenodd"/></g><g><path d="M24.19,19.42v13.2l3.3-3.3,2.75,5.5s.75.23,1.1,0,.71-.72.55-1.1c-.75-1.82-2.75-5.5-2.75-5.5H33Z" transform="translate(0 0)" style="fill:#fff;fill-rule:evenodd"/></g><g><path d="M24.19,18.32a1,1,0,0,0-.42.08,1.1,1.1,0,0,0-.68,1v13.2a1.1,1.1,0,0,0,.68,1,1.07,1.07,0,0,0,1.2-.24l2.22-2.22,2.07,4.14a1.11,1.11,0,0,0,.65.55,3.3,3.3,0,0,0,1,.16A1.88,1.88,0,0,0,32,35.73a2.09,2.09,0,0,0,1-2.44c-.45-1.07-1.29-2.74-1.94-4h2a1.1,1.1,0,0,0,.78-1.88L25,18.64a1.1,1.1,0,0,0-.78-.32m0,1.1,8.8,8.8H29.14s2,3.68,2.75,5.5c.16.38-.19.86-.55,1.1a.8.8,0,0,1-.44.1,2.61,2.61,0,0,1-.66-.1l-2.75-5.5-3.3,3.3V19.42" transform="translate(0 0)" style="fill-rule:evenodd"/></g><path d="M46.62,8.7v3.78a2.57,2.57,0,0,1-.69,1.94,2.75,2.75,0,0,1-3.6,0,2.54,2.54,0,0,1-.71-1.94V8.7h1v3.79A1.74,1.74,0,0,0,43,13.72a1.41,1.41,0,0,0,1.09.44,1.39,1.39,0,0,0,1.08-.44,1.74,1.74,0,0,0,.41-1.23V8.7Z" transform="translate(0 0)" style="fill:#fff"/><path d="M52.2,13.39a1.48,1.48,0,0,1-.59,1.26,2.56,2.56,0,0,1-1.55.44,2.33,2.33,0,0,1-1.68-.57A2,2,0,0,1,47.76,13h1a1.26,1.26,0,0,0,.35.88,1.39,1.39,0,0,0,1,.32,1.45,1.45,0,0,0,.82-.21.74.74,0,0,0,.32-.64.89.89,0,0,0-.31-.68,3.61,3.61,0,0,0-1.1-.53,4.16,4.16,0,0,1-1.37-.7A1.4,1.4,0,0,1,48,10.37a1.6,1.6,0,0,1,.56-1.28A2.14,2.14,0,0,1,50,8.61a2.08,2.08,0,0,1,1.53.55,1.84,1.84,0,0,1,.59,1.33h-.91a1.15,1.15,0,0,0-.33-.73,1.22,1.22,0,0,0-.88-.3,1.13,1.13,0,0,0-.74.23.77.77,0,0,0-.28.61.74.74,0,0,0,.3.61,4.08,4.08,0,0,0,1,.48,4,4,0,0,1,1.46.81A1.53,1.53,0,0,1,52.2,13.39Z" transform="translate(0 0)" style="fill:#fff"/><path d="M54.33,14.11h3.19V15H53.39V8.7h4v.88h-3.1v1.8h2.72v.85H54.33Z" transform="translate(0 0)" style="fill:#fff"/><path d="M61.83,8.7V15h-1V8.7Z" transform="translate(0 0)" style="fill:#fff"/><path d="M67.46,8.7h.94V15h-1L64.3,10.39h-.08V15h-.94V8.7h1l3,4.58h.09Z" transform="translate(0 0)" style="fill:#fff"/><path d="M75.94,8.7h1.15l-2.22,3.4V15h-1V12.1L71.62,8.7h1.15l1.54,2.35h.08Z" transform="translate(0 0)" style="fill:#fff"/><path d="M80.36,15.09a3,3,0,0,1-2.25-.93,3.19,3.19,0,0,1-.9-2.31,3.19,3.19,0,0,1,.9-2.31,3,3,0,0,1,2.25-.93,3,3,0,0,1,2.23.93,3.19,3.19,0,0,1,.9,2.31,3.19,3.19,0,0,1-.9,2.31A3,3,0,0,1,80.36,15.09Zm-1.53-1.6a2.09,2.09,0,0,0,3,0,2.35,2.35,0,0,0,.6-1.64,2.32,2.32,0,0,0-.61-1.64,2,2,0,0,0-1.51-.66,2,2,0,0,0-1.53.66,2.51,2.51,0,0,0,0,3.28Z" transform="translate(0 0)" style="fill:#fff"/><path d="M89.64,8.7v3.78A2.57,2.57,0,0,1,89,14.42a2.75,2.75,0,0,1-3.6,0,2.54,2.54,0,0,1-.71-1.94V8.7h1v3.79a1.74,1.74,0,0,0,.41,1.23,1.41,1.41,0,0,0,1.09.44,1.39,1.39,0,0,0,1.08-.44,1.74,1.74,0,0,0,.41-1.23V8.7Z" transform="translate(0 0)" style="fill:#fff"/><path d="M95.6,15h-1l-1.42-2.48H92V15h-.93V8.7h2.21a2.16,2.16,0,0,1,1.5.51,1.76,1.76,0,0,1,.57,1.38,1.82,1.82,0,0,1-1.28,1.77ZM92,9.58v2.05h1.16a1.28,1.28,0,0,0,.89-.28,1,1,0,0,0,.32-.75.94.94,0,0,0-.32-.75,1.33,1.33,0,0,0-.89-.27Z" transform="translate(0 0)" style="fill:#fff"/><path d="M53.3,21.8H55L52.74,33H50.3l-2.1-8h-.14L46,33H43.51L41.3,21.8H43l1.76,9.07h.15L47,22.6h2.19l2.15,8.27h.14Z" transform="translate(0 0)" style="fill:#fff"/><path d="M59.22,24.84A3.63,3.63,0,0,1,62,26a4.46,4.46,0,0,1,.93,3.41H57a2.8,2.8,0,0,0,.71,1.74,2.25,2.25,0,0,0,1.71.63,2.44,2.44,0,0,0,1.21-.3,1.77,1.77,0,0,0,.77-.87h1.59a3.09,3.09,0,0,1-1.28,1.89,4,4,0,0,1-2.31.67A3.8,3.8,0,0,1,56.44,32,4.31,4.31,0,0,1,55.37,29a4.14,4.14,0,0,1,1.09-3A3.65,3.65,0,0,1,59.22,24.84ZM57,28.17H61.4a2,2,0,0,0-2.13-2,2.18,2.18,0,0,0-1.48.53A2.5,2.5,0,0,0,57,28.17Z" transform="translate(0 0)" style="fill:#fff"/><path d="M68.57,24.84A3.46,3.46,0,0,1,71.22,26a4.22,4.22,0,0,1,1.08,3,4.33,4.33,0,0,1-1,3,3.39,3.39,0,0,1-2.61,1.16,2.86,2.86,0,0,1-2.45-1.22H66L65.78,33H64.55V21.61h1.62v4.46A2.52,2.52,0,0,1,68.57,24.84Zm-1.79,6.09a2,2,0,0,0,1.61.74A2,2,0,0,0,70,30.92,2.84,2.84,0,0,0,70.66,29,2.89,2.89,0,0,0,70,27.07a2.07,2.07,0,0,0-1.64-.74,2,2,0,0,0-1.61.74,3.36,3.36,0,0,0,0,3.86Z" transform="translate(0 0)" style="fill:#fff"/><path d="M83.91,27.11a2.75,2.75,0,0,1,2.18,2.82,2.68,2.68,0,0,1-1,2.29,4.26,4.26,0,0,1-2.61.78h-4.1V21.8H82a4.11,4.11,0,0,1,2.54.73,2.43,2.43,0,0,1,1,2.07A2.36,2.36,0,0,1,83.91,27ZM80,23.27v3.22h2a2.07,2.07,0,0,0,1.41-.44,1.55,1.55,0,0,0,.5-1.21,1.38,1.38,0,0,0-.52-1.16A2.12,2.12,0,0,0,82,23.27Zm2.16,8.26a2.58,2.58,0,0,0,1.62-.47,1.56,1.56,0,0,0,.59-1.29,1.73,1.73,0,0,0-.58-1.35,2.28,2.28,0,0,0-1.58-.52H80v3.63Z" transform="translate(0 0)" style="fill:#fff"/><path d="M91.62,24.84h.53V26.5a2.86,2.86,0,0,0-.72-.08,2.12,2.12,0,0,0-1.57.67,2.78,2.78,0,0,0-.64,2V33H87.53V25h1.29l.26,1.12h.14A2.76,2.76,0,0,1,91.62,24.84Z" transform="translate(0 0)" style="fill:#fff"/><path d="M97,33.16A4,4,0,0,1,94.05,32a4.06,4.06,0,0,1-1.18-3A4,4,0,0,1,94,26,3.93,3.93,0,0,1,97,24.84,4,4,0,0,1,101.1,29a4,4,0,0,1-1.17,3A4,4,0,0,1,97,33.16Zm-1.77-2.25a2.26,2.26,0,0,0,1.77.78,2.23,2.23,0,0,0,1.77-.78,3,3,0,0,0,0-3.81,2.38,2.38,0,0,0-3.53,0,3.06,3.06,0,0,0,0,3.82Z" transform="translate(0 0)" style="fill:#fff"/><path d="M111.45,25H113l-1.9,8h-2l-1.49-5.71h-.14L105.9,33h-2L102,25h1.55l1.37,6.26h.15l1.5-5.7h1.87l1.52,5.7h.15Z" transform="translate(0 0)" style="fill:#fff"/><path d="M120.2,30.89a1.93,1.93,0,0,1-.85,1.67,3.63,3.63,0,0,1-2.16.6,3.41,3.41,0,0,1-2.33-.77,2.62,2.62,0,0,1-.92-2h1.6a1.35,1.35,0,0,0,.52,1.11,2,2,0,0,0,1.16.36,1.67,1.67,0,0,0,1-.25.81.81,0,0,0,.39-.72.94.94,0,0,0-.45-.82,5,5,0,0,0-1.31-.56,6.37,6.37,0,0,1-.73-.23,6.74,6.74,0,0,1-.69-.32,2.72,2.72,0,0,1-.61-.43,2,2,0,0,1-.41-.59,1.85,1.85,0,0,1-.17-.78,2,2,0,0,1,.82-1.68,3.21,3.21,0,0,1,2.06-.64,3.09,3.09,0,0,1,2.1.7,2.44,2.44,0,0,1,.83,1.73h-1.55a1.13,1.13,0,0,0-.44-.83,1.56,1.56,0,0,0-1-.32,1.35,1.35,0,0,0-.84.25.8.8,0,0,0-.33.68.86.86,0,0,0,.39.73,4.76,4.76,0,0,0,1.27.55,5.35,5.35,0,0,1,2,1A2,2,0,0,1,120.2,30.89Z" transform="translate(0 0)" style="fill:#fff"/><path d="M125.26,24.84A3.62,3.62,0,0,1,128,26,4.46,4.46,0,0,1,129,29.4h-6a2.8,2.8,0,0,0,.71,1.74,2.25,2.25,0,0,0,1.71.63,2.44,2.44,0,0,0,1.21-.3,1.77,1.77,0,0,0,.77-.87H129a3,3,0,0,1-1.28,1.89,4,4,0,0,1-2.31.67A3.82,3.82,0,0,1,122.47,32,4.31,4.31,0,0,1,121.4,29a4.1,4.1,0,0,1,1.1-3A3.65,3.65,0,0,1,125.26,24.84Zm-2.21,3.33h4.38a2,2,0,0,0-2.13-2,2.18,2.18,0,0,0-1.48.53A2.5,2.5,0,0,0,123.05,28.17Z" transform="translate(0 0)" style="fill:#fff"/><path d="M134.68,24.84h.53V26.5a2.86,2.86,0,0,0-.72-.08,2.12,2.12,0,0,0-1.57.67,2.74,2.74,0,0,0-.64,2V33h-1.7V25h1.3l.26,1.12h.14A2.76,2.76,0,0,1,134.68,24.84Z" transform="translate(0 0)" style="fill:#fff"/></svg>