<?xml version="1.0" encoding="utf-8"?>
<!-- Generator: Adobe Illustrator 22.1.0, SVG Export Plug-In . SVG Version: 6.00 Build 0)  -->
<svg version="1.1" baseProfile="tiny" id="Layer_1" xmlns="http://www.w3.org/2000/svg" xmlns:xlink="http://www.w3.org/1999/xlink"
	 x="0px" y="0px" width="28px" height="28px" viewBox="0 0 28 28" xml:space="preserve">
<path d="M24.5,0h-21C1.6,0,0,1.6,0,3.5v21C0,26.4,1.6,28,3.5,28h21c1.9,0,3.5-1.6,3.5-3.5v-21C28,1.6,26.4,0,24.5,0z M21,10.4
	c0,0.2,0,0.3,0,0.5c0,4.7-3.6,10.2-10.2,10.2c-2,0-3.9-0.6-5.5-1.6c0.3,0,0.6,0,0.9,0c1.7,0,3.2-0.6,4.5-1.5C9,18,7.7,17,7.2,15.5
	c0.2,0,0.4,0.1,0.7,0.1c0.3,0,0.6,0,0.9-0.1C7.2,15.1,6,13.7,6,11.9c0,0,0,0,0,0c0.5,0.3,1,0.4,1.6,0.4c-1-0.6-1.6-1.7-1.6-3
	c0-0.7,0.2-1.3,0.5-1.8c1.8,2.2,4.4,3.6,7.4,3.8c-0.1-0.3-0.1-0.5-0.1-0.8c0-2,1.6-3.6,3.6-3.6c1,0,2,0.4,2.6,1.1
	c0.8-0.2,1.6-0.5,2.3-0.9c-0.3,0.8-0.8,1.5-1.6,2c0.7-0.1,1.4-0.3,2.1-0.6C22.3,9.3,21.7,9.9,21,10.4z"/>
</svg>
