<svg><defs><linearGradient x1="91.495%" y1="4.946%" x2="-38.237%" y2="71.879%" id="app-google_en_svg__a"><stop stop-color="#00A0FF" offset="0%"/><stop stop-color="#00A1FF" offset="1%"/><stop stop-color="#00BEFF" offset="26%"/><stop stop-color="#00D2FF" offset="51%"/><stop stop-color="#00DFFF" offset="76%"/><stop stop-color="#00E3FF" offset="100%"/></linearGradient><linearGradient x1="107.685%" y1="50%" x2="-130.64%" y2="50%" id="app-google_en_svg__b"><stop stop-color="#FFE000" offset="0%"/><stop stop-color="#FFBD00" offset="41%"/><stop stop-color="orange" offset="78%"/><stop stop-color="#FF9C00" offset="100%"/></linearGradient><linearGradient x1="86.271%" y1="17.871%" x2="-50.18%" y2="194.64%" id="app-google_en_svg__c"><stop stop-color="#FF3A44" offset="0%"/><stop stop-color="#C31162" offset="100%"/></linearGradient><linearGradient x1="-18.825%" y1="-54.03%" x2="42.086%" y2="24.928%" id="app-google_en_svg__d"><stop stop-color="#32A071" offset="0%"/><stop stop-color="#2DA771" offset="7%"/><stop stop-color="#15CF74" offset="48%"/><stop stop-color="#06E775" offset="80%"/><stop stop-color="#00F076" offset="100%"/></linearGradient><linearGradient x1="91.476%" y1="4.946%" x2="-38.55%" y2="71.879%" id="app-google_fr_svg__a"><stop stop-color="#00A0FF" offset="0%"/><stop stop-color="#00A1FF" offset="1%"/><stop stop-color="#00BEFF" offset="26%"/><stop stop-color="#00D2FF" offset="51%"/><stop stop-color="#00DFFF" offset="76%"/><stop stop-color="#00E3FF" offset="100%"/></linearGradient><linearGradient x1="107.685%" y1="50%" x2="-130.64%" y2="50%" id="app-google_fr_svg__b"><stop stop-color="#FFE000" offset="0%"/><stop stop-color="#FFBD00" offset="41%"/><stop stop-color="orange" offset="78%"/><stop stop-color="#FF9C00" offset="100%"/></linearGradient><linearGradient x1="86.271%" y1="17.871%" x2="-50.18%" y2="194.64%" id="app-google_fr_svg__c"><stop stop-color="#FF3A44" offset="0%"/><stop stop-color="#C31162" offset="100%"/></linearGradient><linearGradient x1="-18.825%" y1="-54.03%" x2="42.086%" y2="24.928%" id="app-google_fr_svg__d"><stop stop-color="#32A071" offset="0%"/><stop stop-color="#2DA771" offset="7%"/><stop stop-color="#15CF74" offset="48%"/><stop stop-color="#06E775" offset="80%"/><stop stop-color="#00F076" offset="100%"/></linearGradient></defs><symbol id="svg-app-apple_en" viewBox="0 0 132 44"><g fill="none" fill-rule="evenodd"><path d="M121.148 0H10.488c-.403 0-.802 0-1.204.002-.337.002-.67.009-1.01.014-.74.009-1.476.074-2.205.195A7.332 7.332 0 003.978.9 7.082 7.082 0 00.214 6.073a14.292 14.292 0 00-.197 2.202C.007 8.613.005 8.95 0 9.289v25.425c.005.342.006.673.017 1.015.008.738.074 1.474.197 2.202.12.729.353 1.435.687 2.094a6.829 6.829 0 001.296 1.776c.52.525 1.122.963 1.78 1.297a7.37 7.37 0 002.092.694 14.8 14.8 0 002.204.194c.34.008.674.012 1.01.012.403.002.802.002 1.205.002h110.66c.396 0 .797 0 1.193-.002.335 0 .679-.004 1.014-.012.737-.01 1.472-.074 2.2-.194a7.485 7.485 0 002.099-.694 6.905 6.905 0 001.779-1.297c.523-.52.962-1.12 1.3-1.776.332-.66.561-1.366.68-2.094.123-.728.191-1.464.205-2.202.004-.342.004-.673.004-1.015.008-.4.008-.797.008-1.203V10.49c0-.403 0-.803-.008-1.201 0-.338 0-.676-.004-1.013a14.858 14.858 0 00-.205-2.202 7.28 7.28 0 00-.68-2.094 7.113 7.113 0 00-3.08-3.08 7.444 7.444 0 00-2.098-.69 14.348 14.348 0 00-2.2-.194c-.335-.005-.68-.012-1.014-.014C121.945 0 121.544 0 121.148 0z" fill="#A6A6A6"/><path d="M9.29 43.038c-.336 0-.663-.005-.995-.012a13.956 13.956 0 01-2.056-.18 6.472 6.472 0 01-1.823-.602 5.946 5.946 0 01-1.537-1.119 5.853 5.853 0 01-1.122-1.536 6.294 6.294 0 01-.597-1.823 13.655 13.655 0 01-.184-2.062C.97 35.472.96 34.699.96 34.699V9.29s.01-.76.016-.984c.009-.69.07-1.379.183-2.06a6.331 6.331 0 01.597-1.828 6.122 6.122 0 012.66-2.662 6.405 6.405 0 011.818-.599 13.844 13.844 0 012.063-.18L9.29.963h113.045l1.005.013c.685.009 1.368.068 2.044.18.64.108 1.259.311 1.838.602a6.153 6.153 0 012.656 2.662c.287.571.485 1.183.59 1.814.113.686.177 1.38.19 2.076.003.311.003.646.003.979.01.412.01.805.01 1.2v23.022c0 .4 0 .79-.01 1.183 0 .358 0 .685-.004 1.023a14.004 14.004 0 01-.188 2.039 6.313 6.313 0 01-.594 1.837 6.028 6.028 0 01-1.117 1.524c-.45.455-.97.835-1.54 1.125a6.448 6.448 0 01-1.834.604c-.68.111-1.367.171-2.056.18-.322.007-.66.011-.987.011l-1.193.003L9.29 43.038z" fill="#000"/><g fill="#FFF"><path d="M27.246 22.33a5.444 5.444 0 012.592-4.567 5.572 5.572 0 00-4.39-2.373c-1.847-.194-3.638 1.105-4.58 1.105-.959 0-2.408-1.086-3.969-1.054a5.847 5.847 0 00-4.92 3.001c-2.127 3.683-.54 9.096 1.497 12.074 1.02 1.458 2.211 3.086 3.77 3.028 1.526-.063 2.096-.973 3.938-.973 1.825 0 2.36.973 3.95.937 1.637-.027 2.669-1.465 3.653-2.936a12.058 12.058 0 001.67-3.402 5.26 5.26 0 01-3.211-4.84zM24.241 13.432a5.36 5.36 0 001.226-3.84 5.453 5.453 0 00-3.528 1.826 5.1 5.1 0 00-1.258 3.697 4.509 4.509 0 003.56-1.683z"/><g><path d="M46.532 29.854h-5.206l-1.25 3.692H37.87l4.932-13.66h2.291l4.932 13.66h-2.243l-1.25-3.692zm-4.667-1.704h4.127l-2.034-5.992H43.9l-2.036 5.992zM60.676 28.567c0 3.095-1.657 5.083-4.156 5.083a3.376 3.376 0 01-3.134-1.742h-.047v4.932h-2.045V23.587h1.98v1.656h.037a3.533 3.533 0 013.17-1.76c2.528 0 4.195 1.997 4.195 5.084zm-2.102 0c0-2.017-1.042-3.342-2.631-3.342-1.562 0-2.613 1.353-2.613 3.342 0 2.006 1.05 3.35 2.613 3.35 1.59 0 2.631-1.316 2.631-3.35zM71.637 28.567c0 3.095-1.656 5.083-4.156 5.083a3.376 3.376 0 01-3.134-1.742H64.3v4.932h-2.044V23.587h1.978v1.656h.038a3.533 3.533 0 013.171-1.76c2.528 0 4.194 1.997 4.194 5.084zm-2.101 0c0-2.017-1.042-3.342-2.632-3.342-1.562 0-2.613 1.353-2.613 3.342 0 2.006 1.051 3.35 2.613 3.35 1.59 0 2.632-1.316 2.632-3.35z" fill-rule="nonzero"/><path d="M78.882 29.74c.151 1.354 1.467 2.244 3.265 2.244 1.723 0 2.963-.89 2.963-2.111 0-1.06-.748-1.695-2.518-2.13l-1.77-.427c-2.509-.606-3.673-1.779-3.673-3.682 0-2.357 2.054-3.976 4.97-3.976 2.887 0 4.865 1.619 4.932 3.976h-2.064c-.123-1.363-1.25-2.186-2.897-2.186-1.647 0-2.773.832-2.773 2.044 0 .966.72 1.534 2.48 1.969l1.505.37c2.803.662 3.967 1.788 3.967 3.786 0 2.556-2.036 4.156-5.273 4.156-3.03 0-5.075-1.563-5.207-4.033h2.093zM91.68 21.23v2.357h1.895v1.618H91.68v5.49c0 .854.379 1.251 1.212 1.251.224-.004.449-.02.672-.047v1.61c-.374.069-.755.1-1.135.094-2.017 0-2.803-.758-2.803-2.69v-5.708h-1.448v-1.618h1.448V21.23h2.054z"/><path d="M94.672 28.567c0-3.134 1.845-5.103 4.723-5.103 2.887 0 4.724 1.97 4.724 5.103 0 3.142-1.827 5.102-4.724 5.102-2.896 0-4.723-1.96-4.723-5.102zm7.364 0c0-2.15-.985-3.418-2.641-3.418-1.657 0-2.64 1.278-2.64 3.418 0 2.158.983 3.417 2.64 3.417 1.656 0 2.641-1.26 2.641-3.417z" fill-rule="nonzero"/><path d="M105.805 23.587h1.95v1.695h.047a2.375 2.375 0 012.395-1.8c.236 0 .47.025.7.077v1.912a2.858 2.858 0 00-.918-.124 2.06 2.06 0 00-2.13 2.292v5.907h-2.044v-9.96z"/><path d="M120.323 30.62c-.275 1.809-2.036 3.05-4.289 3.05-2.897 0-4.695-1.942-4.695-5.056 0-3.124 1.808-5.15 4.61-5.15 2.755 0 4.488 1.893 4.488 4.913v.7h-7.034v.123a2.594 2.594 0 002.679 2.821 2.253 2.253 0 002.3-1.4h1.94zm-6.91-2.972h4.978a2.395 2.395 0 00-2.442-2.527 2.521 2.521 0 00-2.537 2.527z" fill-rule="nonzero"/></g></g><g fill="#FFF"><path d="M41.609 9.604a2.904 2.904 0 013.088 3.261c0 2.097-1.133 3.303-3.088 3.303h-2.371V9.604h2.37zm-1.352 5.635h1.238a2.063 2.063 0 002.164-2.36 2.07 2.07 0 00-2.164-2.347h-1.238v4.707zM45.849 13.689a2.347 2.347 0 114.672 0 2.347 2.347 0 11-4.672 0zm3.666 0c0-1.074-.482-1.702-1.329-1.702-.85 0-1.327.628-1.327 1.702 0 1.082.478 1.705 1.327 1.705.847 0 1.33-.627 1.33-1.705h-.001z" fill-rule="nonzero"/><path d="M56.73 16.168h-1.013l-1.024-3.649h-.078l-1.019 3.649h-1.004l-1.366-4.954h.992l.887 3.78h.073l1.019-3.78h.937l1.019 3.78h.077l.883-3.78h.978zM59.239 11.214h.94v.787h.074c.254-.58.848-.934 1.478-.882a1.611 1.611 0 011.715 1.842v3.206h-.978v-2.96c0-.797-.346-1.192-1.069-1.192a1.136 1.136 0 00-1.183 1.255v2.898h-.977v-4.954zM65.003 9.28h.978v6.888h-.978z"/><path d="M67.34 13.689a2.347 2.347 0 114.672 0 2.347 2.347 0 11-4.672 0zm3.666 0c0-1.074-.482-1.702-1.329-1.702-.85 0-1.328.628-1.328 1.702 0 1.082.478 1.705 1.328 1.705.847 0 1.329-.627 1.329-1.705zM73.041 14.767c0-.892.664-1.406 1.842-1.479l1.342-.077v-.428c0-.523-.346-.818-1.014-.818-.546 0-.924.2-1.032.55h-.947c.1-.85.9-1.396 2.024-1.396 1.242 0 1.942.618 1.942 1.664v3.385h-.94v-.697h-.078c-.32.509-.888.806-1.488.778a1.496 1.496 0 01-1.651-1.482zm3.184-.423v-.415l-1.21.078c-.682.045-.991.277-.991.714 0 .446.387.705.918.705a1.168 1.168 0 001.283-1.082zM78.483 13.689c0-1.565.805-2.557 2.056-2.557.632-.029 1.224.31 1.519.87h.073V9.28h.978v6.887h-.937v-.783h-.077a1.72 1.72 0 01-1.556.864c-1.26 0-2.056-.991-2.056-2.56zm1.01 0c0 1.05.495 1.683 1.323 1.683.824 0 1.333-.642 1.333-1.679 0-1.032-.514-1.683-1.333-1.683-.823 0-1.323.637-1.323 1.679zM87.153 13.689a2.347 2.347 0 114.672 0 2.347 2.347 0 11-4.672 0zm3.666 0c0-1.074-.482-1.702-1.329-1.702-.85 0-1.327.628-1.327 1.702 0 1.082.478 1.705 1.328 1.705.846 0 1.328-.627 1.328-1.705z" fill-rule="nonzero"/><path d="M93.136 11.214h.941v.787h.073c.254-.58.848-.934 1.479-.882a1.611 1.611 0 011.714 1.842v3.206h-.977v-2.96c0-.797-.346-1.192-1.07-1.192a1.136 1.136 0 00-1.182 1.255v2.898h-.978v-4.954zM102.867 9.981v1.256h1.073v.823h-1.073v2.547c0 .52.213.746.7.746.125 0 .25-.008.373-.022v.814a3.207 3.207 0 01-.532.05c-1.087 0-1.52-.383-1.52-1.337V12.06h-.786v-.823h.786V9.98h.979zM105.275 9.28h.969v2.73h.077c.267-.584.87-.939 1.51-.887a1.632 1.632 0 011.707 1.847v3.198h-.979V13.21c0-.791-.368-1.192-1.06-1.192a1.157 1.157 0 00-1.246 1.256v2.893h-.978V9.28z"/><path d="M115.237 14.83a2.01 2.01 0 01-2.146 1.433 2.25 2.25 0 01-2.288-2.557 2.285 2.285 0 012.284-2.587c1.378 0 2.21.941 2.21 2.497v.34h-3.498v.056a1.31 1.31 0 001.319 1.419c.478.057.944-.18 1.178-.6h.941zm-3.438-1.596h2.502a1.195 1.195 0 00-1.22-1.283 1.267 1.267 0 00-1.282 1.283z" fill-rule="nonzero"/></g></g></symbol><symbol id="svg-app-apple_fr" viewBox="0 0 140 44"><g fill="none" fill-rule="evenodd"><path d="M128.676 0H10.488c-.403 0-.802 0-1.204.002-.337.002-.67.009-1.01.014-.74.009-1.476.074-2.205.195A7.332 7.332 0 003.978.9 7.082 7.082 0 00.214 6.073a14.292 14.292 0 00-.197 2.202C.007 8.613.005 8.95 0 9.289v25.425c.005.342.006.673.017 1.015.008.738.074 1.474.197 2.202.12.729.353 1.435.687 2.094a6.829 6.829 0 001.296 1.776c.52.525 1.122.963 1.78 1.297a7.37 7.37 0 002.092.694 14.8 14.8 0 002.204.194c.34.008.674.012 1.01.012.403.002.802.002 1.205.002h118.188c.395 0 .797 0 1.192-.002.336 0 .68-.004 1.015-.012.737-.01 1.472-.074 2.2-.194a7.485 7.485 0 002.099-.694 6.905 6.905 0 001.778-1.297c.524-.52.963-1.12 1.3-1.776.332-.66.562-1.366.681-2.094.123-.728.191-1.464.204-2.202.005-.342.005-.673.005-1.015.008-.4.008-.797.008-1.203V10.49c0-.403 0-.803-.008-1.201 0-.338 0-.676-.005-1.013a14.858 14.858 0 00-.204-2.202 7.28 7.28 0 00-.68-2.094A7.113 7.113 0 00135.18.9a7.444 7.444 0 00-2.098-.69 14.348 14.348 0 00-2.2-.194c-.336-.005-.68-.012-1.015-.014C129.473 0 129.071 0 128.676 0z" fill="#A6A6A6"/><path d="M9.29 43.038c-.336 0-.663-.005-.995-.012a13.956 13.956 0 01-2.056-.18 6.472 6.472 0 01-1.823-.602 5.946 5.946 0 01-1.537-1.119 5.853 5.853 0 01-1.122-1.536 6.294 6.294 0 01-.597-1.823 13.655 13.655 0 01-.184-2.062C.97 35.472.96 34.699.96 34.699V9.29s.01-.76.016-.984c.009-.69.07-1.379.183-2.06a6.331 6.331 0 01.597-1.828 6.122 6.122 0 012.66-2.662 6.405 6.405 0 011.818-.599 13.844 13.844 0 012.063-.18L9.29.963h120.573l1.004.013c.685.009 1.369.068 2.045.18.639.108 1.258.311 1.838.602a6.153 6.153 0 012.656 2.662c.287.571.485 1.183.589 1.814.114.686.178 1.38.191 2.076.003.311.003.646.003.979.009.412.009.805.009 1.2v23.022c0 .4 0 .79-.009 1.183 0 .358 0 .685-.004 1.023a14.004 14.004 0 01-.188 2.039 6.313 6.313 0 01-.594 1.837 6.028 6.028 0 01-1.117 1.524c-.45.455-.97.835-1.54 1.125a6.448 6.448 0 01-1.834.604c-.68.111-1.368.171-2.056.18-.323.007-.66.011-.988.011l-1.192.003-119.387-.002z" fill="#000"/><g fill="#FFF"><path d="M27.249 22.33a5.444 5.444 0 012.592-4.567 5.572 5.572 0 00-4.39-2.373c-1.847-.194-3.638 1.105-4.58 1.105-.959 0-2.408-1.086-3.969-1.054a5.847 5.847 0 00-4.92 3.001c-2.127 3.683-.54 9.096 1.497 12.074 1.02 1.458 2.212 3.086 3.77 3.028 1.527-.063 2.096-.973 3.938-.973 1.825 0 2.36.973 3.95.937 1.638-.027 2.67-1.465 3.653-2.936a12.058 12.058 0 001.67-3.402 5.26 5.26 0 01-3.211-4.84zM24.244 13.432a5.36 5.36 0 001.226-3.84 5.453 5.453 0 00-3.528 1.826 5.1 5.1 0 00-1.258 3.697 4.509 4.509 0 003.56-1.683z"/><g><path d="M39.22 16.172v-5.636h-2.064v-.928h5.145v.928h-2.06v5.636z"/><path d="M47.041 14.834a2.01 2.01 0 01-2.146 1.433 2.25 2.25 0 01-2.288-2.556 2.285 2.285 0 012.284-2.588c1.378 0 2.21.942 2.21 2.497v.341h-3.498v.055a1.31 1.31 0 001.319 1.419c.478.057.943-.18 1.178-.6h.941zm-3.438-1.596h2.501a1.195 1.195 0 00-1.219-1.283 1.267 1.267 0 00-1.282 1.283zm.7-2.848l1.142-1.564h1.146l-1.278 1.564h-1.01z" fill-rule="nonzero"/><path d="M48.458 9.285h.978v6.887h-.978z"/><path d="M55.229 14.834a2.01 2.01 0 01-2.146 1.433 2.25 2.25 0 01-2.289-2.556 2.285 2.285 0 012.284-2.588c1.378 0 2.21.942 2.21 2.497v.341H51.79v.055a1.31 1.31 0 001.32 1.419c.478.057.943-.18 1.178-.6h.94zm-3.439-1.596h2.502a1.195 1.195 0 00-1.22-1.283 1.267 1.267 0 00-1.282 1.283zm.7-2.848l1.142-1.564h1.147L53.5 10.39h-1.01z" fill-rule="nonzero"/><path d="M59.844 12.837a1.106 1.106 0 00-1.17-.84c-.819 0-1.32.627-1.32 1.682 0 1.074.506 1.715 1.32 1.715a1.077 1.077 0 001.17-.814h.95a1.938 1.938 0 01-2.115 1.687 2.275 2.275 0 01-2.324-2.588 2.258 2.258 0 012.319-2.556 1.955 1.955 0 012.12 1.714h-.95zM62.092 9.285h.969v2.73h.077c.267-.585.87-.94 1.51-.888a1.632 1.632 0 011.706 1.847v3.198h-.978v-2.957c0-.791-.369-1.192-1.06-1.192a1.157 1.157 0 00-1.247 1.256v2.893h-.977V9.285z"/><path d="M67.583 14.771c0-.892.664-1.406 1.843-1.479l1.341-.077v-.427c0-.524-.346-.82-1.014-.82-.545 0-.924.201-1.032.551h-.946c.1-.85.9-1.396 2.023-1.396 1.242 0 1.942.618 1.942 1.665v3.384h-.94v-.696h-.078c-.32.508-.888.805-1.487.777a1.496 1.496 0 01-1.652-1.482zm3.184-.423v-.414l-1.21.077c-.681.046-.99.278-.99.714 0 .446.386.706.918.706a1.168 1.168 0 001.282-1.083z" fill-rule="nonzero"/><path d="M73.27 11.219h.942v.76h.073c.216-.542.756-.882 1.337-.843.147-.002.293.012.436.041v.965a2.678 2.678 0 00-.545-.06 1.16 1.16 0 00-1.265 1.165v2.925h-.977v-4.953z"/><path d="M76.958 16.668h1c.082.359.496.59 1.156.59.814 0 1.296-.386 1.296-1.04v-.951h-.073a1.666 1.666 0 01-1.529.832c-1.264 0-2.046-.978-2.046-2.46 0-1.511.79-2.503 2.056-2.503.641-.022 1.241.315 1.556.874h.077v-.791h.937v4.994c0 1.132-.888 1.851-2.288 1.851-1.238 0-2.038-.555-2.142-1.396zm3.47-3.035c0-.986-.51-1.618-1.342-1.618-.842 0-1.314.632-1.314 1.618 0 .988.472 1.62 1.314 1.62.838 0 1.342-.628 1.342-1.62zM87.134 14.834a2.01 2.01 0 01-2.147 1.433 2.25 2.25 0 01-2.288-2.556 2.285 2.285 0 012.284-2.588c1.378 0 2.21.942 2.21 2.497v.341h-3.498v.055a1.31 1.31 0 001.32 1.419c.477.057.943-.18 1.178-.6h.94zm-3.439-1.596h2.502a1.195 1.195 0 00-1.22-1.283 1.267 1.267 0 00-1.282 1.283z" fill-rule="nonzero"/><path d="M88.505 11.219h.942v.76h.073c.216-.542.756-.882 1.337-.843.146-.002.293.012.436.041v.965a2.678 2.678 0 00-.546-.06 1.16 1.16 0 00-1.264 1.165v2.925h-.978v-4.953z"/><path d="M94.815 13.693c0-1.565.805-2.557 2.056-2.557.632-.029 1.224.31 1.52.87h.072V9.284h.978v6.887h-.937v-.783h-.077a1.72 1.72 0 01-1.556.864c-1.26 0-2.056-.991-2.056-2.56zm1.01 0c0 1.05.495 1.683 1.324 1.683.824 0 1.333-.641 1.333-1.679 0-1.032-.515-1.682-1.333-1.682-.823 0-1.324.636-1.324 1.678zM100.762 14.771c0-.892.664-1.406 1.843-1.479l1.341-.077v-.427c0-.524-.346-.82-1.014-.82-.546 0-.924.201-1.032.551h-.947c.1-.85.9-1.396 2.024-1.396 1.242 0 1.942.618 1.942 1.665v3.384h-.94v-.696h-.078c-.32.508-.888.805-1.488.777a1.496 1.496 0 01-1.65-1.482zm3.184-.423v-.414l-1.21.077c-.681.046-.99.278-.99.714 0 .446.386.706.918.706a1.168 1.168 0 001.282-1.083z" fill-rule="nonzero"/><path d="M106.45 11.219h.941v.786h.073c.254-.579.848-.933 1.478-.882a1.611 1.611 0 011.715 1.842v3.207h-.978V13.21c0-.796-.345-1.192-1.068-1.192a1.136 1.136 0 00-1.183 1.255v2.898h-.978v-4.953zM113.98 11.123c1.113 0 1.842.518 1.937 1.392h-.937c-.09-.364-.446-.596-1-.596-.546 0-.96.259-.96.646 0 .296.25.482.787.605l.822.19c.942.22 1.384.624 1.384 1.352 0 .932-.869 1.555-2.052 1.555-1.178 0-1.946-.532-2.033-1.41h.978c.174.43.619.686 1.078.619.609 0 1.042-.273 1.042-.669 0-.295-.232-.487-.729-.605l-.863-.2c-.942-.223-1.378-.646-1.378-1.383 0-.878.804-1.496 1.923-1.496z"/></g></g><g fill="#FFF"><path d="M38.718 19.874h2.045v13.66h-2.045zM43.228 24.872l1.117-4.998h1.987l-1.353 4.998z"/><path d="M54.061 29.842h-5.207l-1.25 3.692h-2.205l4.931-13.66h2.292l4.931 13.66H55.31l-1.249-3.692zm-4.667-1.704h4.127l-2.035-5.992h-.057l-2.035 5.992zM68.203 28.555c0 3.095-1.656 5.083-4.156 5.083a3.376 3.376 0 01-3.133-1.742h-.048v4.933h-2.044V23.574h1.979v1.657h.037a3.533 3.533 0 013.171-1.76c2.528 0 4.194 1.997 4.194 5.084zm-2.1 0c0-2.017-1.043-3.343-2.633-3.343-1.562 0-2.612 1.354-2.612 3.343 0 2.007 1.05 3.35 2.612 3.35 1.59 0 2.632-1.316 2.632-3.35zM79.164 28.555c0 3.095-1.656 5.083-4.156 5.083a3.376 3.376 0 01-3.134-1.742h-.047v4.933h-2.044V23.574h1.979v1.657h.037a3.533 3.533 0 013.171-1.76c2.528 0 4.194 1.997 4.194 5.084zm-2.101 0c0-2.017-1.042-3.343-2.632-3.343-1.562 0-2.612 1.354-2.612 3.343 0 2.007 1.05 3.35 2.612 3.35 1.59 0 2.632-1.316 2.632-3.35z" fill-rule="nonzero"/><path d="M86.409 29.728c.151 1.355 1.467 2.244 3.265 2.244 1.723 0 2.963-.89 2.963-2.11 0-1.061-.748-1.696-2.518-2.131l-1.77-.427c-2.509-.606-3.673-1.779-3.673-3.682 0-2.357 2.054-3.976 4.97-3.976 2.887 0 4.865 1.619 4.932 3.976h-2.064c-.123-1.364-1.25-2.186-2.897-2.186-1.647 0-2.773.832-2.773 2.044 0 .965.72 1.534 2.48 1.969l1.505.37c2.803.662 3.967 1.788 3.967 3.786 0 2.556-2.036 4.157-5.273 4.157-3.03 0-5.075-1.563-5.207-4.034h2.093zM99.209 21.217v2.357h1.894v1.62h-1.894v5.49c0 .853.38 1.25 1.212 1.25.225-.004.449-.02.672-.047v1.61c-.374.07-.755.1-1.135.094-2.017 0-2.803-.758-2.803-2.689v-5.709h-1.448v-1.619h1.448v-2.357h2.054z"/><path d="M102.199 28.555c0-3.134 1.845-5.103 4.723-5.103 2.887 0 4.724 1.969 4.724 5.103 0 3.142-1.827 5.102-4.724 5.102-2.896 0-4.723-1.96-4.723-5.102zm7.364 0c0-2.15-.985-3.419-2.641-3.419-1.657 0-2.64 1.279-2.64 3.419 0 2.158.983 3.417 2.64 3.417 1.656 0 2.641-1.259 2.641-3.417z" fill-rule="nonzero"/><path d="M113.332 23.574h1.95v1.695h.047a2.375 2.375 0 012.395-1.799c.236 0 .47.025.7.076v1.912a2.858 2.858 0 00-.918-.123 2.06 2.06 0 00-2.13 2.292v5.907h-2.044v-9.96z"/><path d="M127.849 30.609c-.275 1.808-2.036 3.048-4.289 3.048-2.897 0-4.695-1.94-4.695-5.055 0-3.124 1.808-5.15 4.61-5.15 2.755 0 4.488 1.893 4.488 4.913v.7h-7.034v.124a2.594 2.594 0 002.679 2.82 2.253 2.253 0 002.3-1.4h1.94zm-6.91-2.973h4.978a2.395 2.395 0 00-2.443-2.528 2.521 2.521 0 00-2.536 2.528z" fill-rule="nonzero"/></g></g></symbol><symbol id="svg-app-google_en" viewBox="0 0 149 44"><g fill="none" fill-rule="evenodd"><rect fill="#000" width="148.5" height="44" rx="5"/><path d="M143 .88a4.62 4.62 0 014.62 4.62v33a4.62 4.62 0 01-4.62 4.62H5.5A4.62 4.62 0 01.88 38.5v-33A4.62 4.62 0 015.5.88H143zm0-.88H5.5A5.5 5.5 0 000 5.5v33A5.5 5.5 0 005.5 44H143a5.5 5.5 0 005.5-5.5v-33A5.5 5.5 0 00143 0z" fill="#A6A6A6" fill-rule="nonzero"/><path d="M52.162 11.264a2.992 2.992 0 01-.825 2.2 3.19 3.19 0 01-2.42.968 3.3 3.3 0 01-2.431-.99 3.509 3.509 0 010-4.906 3.476 3.476 0 013.784-.715c.397.163.75.415 1.034.737l-.583.583a2.2 2.2 0 00-1.804-.792 2.64 2.64 0 101.848 4.543c.336-.368.53-.844.55-1.342h-2.398v-.792h3.201c.025.168.04.337.044.506zM57.2 8.514h-2.97v2.09h2.706v.792H54.23v2.09h2.97v.814h-3.828V7.7H57.2zM60.808 14.3h-.847V8.514h-1.848V7.7H62.7v.814h-1.892zM65.934 14.3V7.7h.847v6.6zM70.543 14.3h-.847V8.514h-1.848V7.7h4.532v.814h-1.837z" stroke="#FFF" stroke-width=".2" fill="#FFF"/><path d="M80.971 13.442a3.421 3.421 0 01-4.84 0 3.564 3.564 0 010-4.884 3.223 3.223 0 012.42-1.001 3.3 3.3 0 012.42 1.001c.639.65.988 1.53.968 2.442a3.3 3.3 0 01-.968 2.442zm-4.213-.55a2.519 2.519 0 003.586 0 2.794 2.794 0 000-3.784 2.519 2.519 0 00-3.586 0 2.794 2.794 0 000 3.784z" stroke="#FFF" stroke-width=".2" fill="#FFF" fill-rule="nonzero"/><path stroke="#FFF" stroke-width=".2" fill="#FFF" d="M83.138 14.3V7.7h1.023l3.212 5.137h0V7.7h.847v6.6h-.88l-3.355-5.379h0V14.3z"/><path d="M74.954 23.925a4.686 4.686 0 104.697 4.675 4.609 4.609 0 00-4.697-4.675zm0 7.513a2.838 2.838 0 112.64-2.838 2.706 2.706 0 01-2.64 2.838zm-10.252-7.513a4.686 4.686 0 104.697 4.675 4.609 4.609 0 00-4.697-4.675zm0 7.513a2.838 2.838 0 112.64-2.838 2.706 2.706 0 01-2.64 2.838zm-12.188-6.072v1.98h4.752a4.147 4.147 0 01-1.1 2.497 4.862 4.862 0 01-3.674 1.452 5.28 5.28 0 110-10.56 5.104 5.104 0 013.608 1.419l1.397-1.397a6.93 6.93 0 00-4.983-2.002 7.271 7.271 0 100 14.531 6.677 6.677 0 005.071-2.035 6.6 6.6 0 001.716-4.653 6.897 6.897 0 00-.099-1.232h-6.688zm49.841 1.54a4.4 4.4 0 00-4.004-2.981 4.4 4.4 0 00-4.4 4.675 4.653 4.653 0 008.536 2.607l-1.595-1.1a2.651 2.651 0 01-2.299 1.287 2.365 2.365 0 01-2.266-1.419l6.259-2.585-.231-.484zm-6.38 1.562a2.574 2.574 0 012.453-2.739 1.804 1.804 0 011.727 1.001l-4.18 1.738zM90.893 33h2.057V19.25h-2.057V33zm-3.366-8.03h-.077a3.234 3.234 0 00-2.464-1.1 4.686 4.686 0 000 9.361 3.168 3.168 0 002.464-1.1h.077v.671c0 1.793-.957 2.75-2.497 2.75a2.596 2.596 0 01-2.365-1.661l-1.782.737A4.4 4.4 0 0085.03 37.4c2.409 0 4.4-1.419 4.4-4.873V24.2h-1.903v.77zm-2.365 6.468a2.838 2.838 0 010-5.665A2.629 2.629 0 0187.67 28.6a2.618 2.618 0 01-2.508 2.838zm26.829-12.188h-4.928V33h2.057v-5.214h2.871a4.279 4.279 0 100-8.536zm0 6.6h-2.871v-4.686h2.915a2.354 2.354 0 010 4.708l-.044-.022zm12.694-1.969a3.839 3.839 0 00-3.663 2.101l1.815.759a1.958 1.958 0 011.881-1.001 1.98 1.98 0 012.2 1.771v.132a4.598 4.598 0 00-2.145-.528c-1.958 0-3.96 1.1-3.96 3.102a3.179 3.179 0 003.421 3.025 2.915 2.915 0 002.618-1.342h.066V33h1.98v-5.291c0-2.409-1.826-3.806-4.169-3.806l-.044-.022zm-.253 7.535c-.671 0-1.606-.341-1.606-1.166 0-1.1 1.166-1.474 2.2-1.474.653-.016 1.3.143 1.87.462a2.486 2.486 0 01-2.42 2.2l-.044-.022zm11.682-7.216l-2.354 5.962h-.066l-2.442-5.962h-2.2l3.663 8.338-2.09 4.631h2.145l5.632-12.969h-2.288zm-18.48 8.8h2.046V19.25h-2.046V33z" fill="#FFF" fill-rule="nonzero"/><path d="M11.484 8.294a2.2 2.2 0 00-.517 1.54v24.332a2.134 2.134 0 00.517 1.54l.077.088L25.19 22.165v-.33L11.561 8.217l-.077.077z" fill="url(#app-google_en_svg__a)"/><path d="M29.7 26.708l-4.51-4.543v-.33l4.51-4.543.099.066 5.401 3.058c1.54.869 1.54 2.299 0 3.179l-5.379 3.058-.121.055z" fill="url(#app-google_en_svg__b)"/><path d="M29.832 26.642L25.19 22 11.484 35.706c.641.57 1.599.603 2.277.077l16.071-9.141" fill="url(#app-google_en_svg__c)"/><path d="M29.832 17.358l-16.071-9.13a1.771 1.771 0 00-2.277.066L25.19 22l4.642-4.642z" fill="url(#app-google_en_svg__d)"/><path d="M29.7 26.543l-15.939 9.075a1.826 1.826 0 01-2.2 0l-.077.077.077.088a1.826 1.826 0 002.2 0l16.071-9.141-.132-.099z" fill="#000" opacity=".2"/><path d="M11.484 35.552A2.2 2.2 0 0111 34.001v.165a2.134 2.134 0 00.517 1.54l.077-.077-.11-.077zM35.2 23.43l-5.5 3.113.099.099 5.401-3.058A1.925 1.925 0 0036.366 22a2.046 2.046 0 01-1.166 1.43z" fill="#000" opacity=".12"/><path d="M13.761 8.382L35.2 20.57A2.046 2.046 0 0136.366 22a1.925 1.925 0 00-1.166-1.584L13.761 8.228c-1.529-.88-2.794-.154-2.794 1.606v.165c.033-1.76 1.265-2.486 2.794-1.617z" fill="#FFF" opacity=".25"/></g></symbol><symbol id="svg-app-google_fr" viewBox="0 0 149 44"><g fill="none" fill-rule="evenodd"><rect fill="#000" width="148.5" height="44" rx="5"/><path d="M143 .88a4.62 4.62 0 014.62 4.62v33a4.62 4.62 0 01-4.62 4.62H5.5A4.62 4.62 0 01.88 38.5v-33A4.62 4.62 0 015.5.88H143zm0-.88H5.5A5.5 5.5 0 000 5.5v33A5.5 5.5 0 005.5 44H143a5.5 5.5 0 005.5-5.5v-33A5.5 5.5 0 00143 0z" fill="#A6A6A6" fill-rule="nonzero"/><path d="M74.954 23.925a4.686 4.686 0 104.697 4.675 4.609 4.609 0 00-4.697-4.675zm0 7.513a2.838 2.838 0 112.64-2.838 2.706 2.706 0 01-2.64 2.838zm-10.252-7.513a4.686 4.686 0 104.697 4.675 4.609 4.609 0 00-4.697-4.675zm0 7.513a2.838 2.838 0 112.64-2.838 2.706 2.706 0 01-2.64 2.838zm-12.188-6.072v1.98h4.752a4.147 4.147 0 01-1.1 2.497 4.862 4.862 0 01-3.674 1.452 5.28 5.28 0 110-10.56 5.104 5.104 0 013.608 1.419l1.397-1.397a6.93 6.93 0 00-4.983-2.002 7.271 7.271 0 100 14.531 6.677 6.677 0 005.071-2.035 6.6 6.6 0 001.716-4.653 6.897 6.897 0 00-.099-1.232h-6.688zm49.841 1.54a4.4 4.4 0 00-4.004-2.981 4.4 4.4 0 00-4.4 4.675 4.653 4.653 0 008.536 2.607l-1.595-1.1a2.651 2.651 0 01-2.299 1.287 2.365 2.365 0 01-2.266-1.419l6.259-2.585-.231-.484zm-6.38 1.562a2.563 2.563 0 012.453-2.728 1.804 1.804 0 011.727.99l-4.18 1.738zM90.893 33h2.057V19.25h-2.057V33zm-3.366-8.03h-.077a3.234 3.234 0 00-2.464-1.045 4.686 4.686 0 000 9.361 3.168 3.168 0 002.464-1.1h.077v.671c0 1.793-.957 2.75-2.497 2.75a2.596 2.596 0 01-2.365-1.661l-1.782.737a4.4 4.4 0 004.147 2.772c2.409 0 4.4-1.419 4.4-4.873V24.2h-1.903v.77zm-2.365 6.468a2.838 2.838 0 010-5.665A2.629 2.629 0 0187.67 28.6a2.618 2.618 0 01-2.508 2.838zm26.829-12.188h-4.928V33h2.057v-5.214h2.871a4.279 4.279 0 100-8.536zm0 6.6h-2.871v-4.686h2.915a2.354 2.354 0 010 4.708l-.044-.022zm12.694-1.969a3.839 3.839 0 00-3.663 2.101l1.815.759a1.958 1.958 0 011.881-1.001 1.98 1.98 0 012.2 1.771v.132a4.598 4.598 0 00-2.145-.528c-1.958 0-3.96 1.1-3.96 3.102a3.179 3.179 0 003.421 3.025 2.915 2.915 0 002.618-1.342h.066V33h1.98v-5.291c0-2.409-1.826-3.806-4.169-3.806l-.044-.022zm-.253 7.535c-.671 0-1.606-.341-1.606-1.166 0-1.1 1.166-1.474 2.2-1.474.653-.016 1.3.143 1.87.462a2.486 2.486 0 01-2.42 2.2l-.044-.022zm11.682-7.216l-2.354 5.962h-.066l-2.442-5.962h-2.2l3.663 8.338-2.09 4.631h2.2l5.577-12.969h-2.288zm-18.48 8.8h2.046V19.25h-2.046V33z" fill="#FFF" fill-rule="nonzero"/><path d="M11.484 8.294A2.2 2.2 0 0011 9.834v24.332a2.134 2.134 0 00.517 1.54l.077.088L25.19 22.165v-.33L11.561 8.217l-.077.077z" fill="url(#app-google_fr_svg__a)"/><path d="M29.7 26.708l-4.51-4.543v-.33l4.51-4.543.099.066 5.401 3.058c1.54.869 1.54 2.299 0 3.179l-5.379 3.058-.121.055z" fill="url(#app-google_fr_svg__b)"/><path d="M29.832 26.653L25.19 22 11.484 35.706c.641.57 1.599.603 2.277.077l16.071-9.13" fill="url(#app-google_fr_svg__c)"/><path d="M29.832 17.358l-16.071-9.13a1.771 1.771 0 00-2.277.066L25.19 22l4.642-4.642z" fill="url(#app-google_fr_svg__d)"/><path d="M29.7 26.543l-15.939 9.075a1.826 1.826 0 01-2.2 0l-.077.077.077.088a1.826 1.826 0 002.2 0l16.071-9.13-.132-.11z" fill="#000" opacity=".2"/><path d="M11.484 35.552A2.2 2.2 0 0111 34.001v.165a2.134 2.134 0 00.517 1.54l.077-.077-.11-.077zM35.2 23.43l-5.5 3.113.099.11 5.401-3.069A1.925 1.925 0 0036.366 22a2.046 2.046 0 01-1.166 1.43z" fill="#000" opacity=".12"/><path d="M13.761 8.382L35.2 20.57A2.046 2.046 0 0136.366 22a1.925 1.925 0 00-1.166-1.584L13.761 8.228C12.232 7.348 11 8.074 11 9.834v.165c0-1.76 1.232-2.486 2.761-1.617z" fill="#FFF" opacity=".25"/><path d="M45.408 14.3V7.7h2.013a3.3 3.3 0 012.442.913A3.3 3.3 0 0150.776 11a3.3 3.3 0 01-.913 2.387 3.3 3.3 0 01-2.442.913h-2.013zm.847-.814h1.166c.667.034 1.32-.2 1.815-.649A2.497 2.497 0 0049.907 11a2.464 2.464 0 00-.671-1.826 2.475 2.475 0 00-1.815-.66h-1.166v4.972z" stroke="#FFF" stroke-width=".2" fill="#FFF" fill-rule="nonzero"/><path stroke="#FFF" stroke-width=".2" fill="#FFF" d="M51.964 14.3V7.7h.836v6.6zM56.177 14.443a2.464 2.464 0 01-1.397-.462 2.2 2.2 0 01-.902-1.32l.77-.319c.094.358.294.68.572.924.263.237.603.37.957.374.34.011.674-.093.946-.297a.913.913 0 00.396-.781 1.012 1.012 0 00-.396-.858 4.07 4.07 0 00-1.232-.561 3.157 3.157 0 01-1.331-.715 1.485 1.485 0 01-.451-1.1c0-.476.205-.928.561-1.243a2.376 2.376 0 012.827-.099c.317.226.555.545.682.913l-.77.319a1.155 1.155 0 00-.407-.572 1.265 1.265 0 00-.847-.275 1.342 1.342 0 00-.836.275.836.836 0 00-.341.682.737.737 0 00.319.616c.282.208.598.365.935.462.277.083.549.182.814.297.234.107.455.24.66.396.217.155.391.364.506.605.124.265.184.555.176.847.005.298-.063.592-.198.858a1.54 1.54 0 01-.528.594c-.215.15-.453.266-.704.341a2.684 2.684 0 01-.781.099z"/><path d="M60.5 14.3h-.847V7.7h2.2c.539-.01 1.06.192 1.452.561a1.903 1.903 0 010 2.805c-.392.369-.913.57-1.452.561H60.5V14.3zm0-3.487h1.419a1.1 1.1 0 00.781-.352 1.1 1.1 0 000-1.595 1.1 1.1 0 00-.858-.352H60.5v2.299zM70.4 13.442a3.421 3.421 0 01-4.84 0A3.3 3.3 0 0164.57 11a3.3 3.3 0 01.968-2.442 3.421 3.421 0 014.84 0c.642.649.995 1.53.979 2.442a3.3 3.3 0 01-.957 2.442zm-4.213-.55a2.442 2.442 0 001.793.748 2.409 2.409 0 001.793-.748c.489-.505.747-1.19.715-1.892a2.552 2.552 0 00-.737-1.892 2.409 2.409 0 00-1.793-.748 2.442 2.442 0 00-1.793.748A2.585 2.585 0 0065.439 11a2.585 2.585 0 00.726 1.892h.022z" stroke="#FFF" stroke-width=".2" fill="#FFF" fill-rule="nonzero"/><path stroke="#FFF" stroke-width=".2" fill="#FFF" d="M72.6 14.3V7.7h1.034l3.201 5.137h0V7.7h.858v6.6h-.891l-3.3-5.379h0V14.3zM79.2 14.3V7.7h.847v6.6z"/><path d="M81.499 14.3V7.7h2.387a1.98 1.98 0 011.342.506c.37.324.58.795.572 1.287.003.296-.081.587-.242.836a1.551 1.551 0 01-.649.539c.316.106.592.305.792.572.21.266.322.596.319.935a1.727 1.727 0 01-.594 1.342 2.013 2.013 0 01-1.408.539l-2.519.044zm.847-3.773h1.54c.292.017.576-.1.77-.319a.99.99 0 00.297-.693c.01-.262-.08-.518-.253-.715a.935.935 0 00-.737-.308h-1.617v2.035zm0 2.959h1.705c.305.012.6-.113.803-.341a1.1 1.1 0 00.297-.748 1.1 1.1 0 00-.308-.737 1.1 1.1 0 00-.825-.341h-1.672v2.167z" stroke="#FFF" stroke-width=".2" fill="#FFF" fill-rule="nonzero"/><path stroke="#FFF" stroke-width=".2" fill="#FFF" d="M87.164 14.3V7.7H88v5.786h2.86v.814zM95.788 8.514h-3.003v2.09h2.706v.792h-2.706v2.09h3.003v.814h-3.85V7.7h3.85zM100.914 14.443a2.519 2.519 0 01-1.408-.462 2.2 2.2 0 01-.891-1.32l.77-.319c.094.358.294.68.572.924.263.237.603.37.957.374.34.01.673-.095.946-.297a.913.913 0 00.396-.781 1.012 1.012 0 00-.396-.858c-.38-.254-.8-.444-1.243-.561a3.113 3.113 0 01-1.32-.715 1.441 1.441 0 01-.451-1.1c0-.476.205-.928.561-1.243a2.376 2.376 0 012.827-.099c.317.226.555.545.682.913l-.77.319a1.1 1.1 0 00-.418-.572 1.221 1.221 0 00-.836-.275 1.342 1.342 0 00-.836.275.847.847 0 00-.352.682.77.77 0 00.319.616c.284.204.6.36.935.462.281.081.557.18.825.297.233.11.454.242.66.396.217.155.391.364.506.605.115.267.17.556.165.847.008.297-.056.591-.187.858a1.54 1.54 0 01-.528.594c-.215.15-.453.266-.704.341a2.684 2.684 0 01-.781.099zM106.634 14.443a2.31 2.31 0 01-1.771-.715 2.629 2.629 0 01-.671-1.881V7.7h.847v4.18c-.033.475.112.946.407 1.32.302.333.74.51 1.188.484.442.025.871-.153 1.166-.484.289-.36.437-.814.418-1.276V7.7h.847v4.147a2.651 2.651 0 01-.66 1.881 2.277 2.277 0 01-1.771.715z"/><path d="M110.44 14.3V7.7h2.2c.539-.01 1.06.192 1.452.561.405.354.63.87.616 1.408 0 .448-.16.88-.451 1.221a1.936 1.936 0 01-1.1.66l1.848 2.75h-1.001l-1.804-2.673h-.935V14.3h-.825zm.847-3.465h1.364c.321.007.633-.112.869-.33a1.1 1.1 0 00.363-.836 1.199 1.199 0 00-.319-.803 1.1 1.1 0 00-.858-.352h-1.419v2.321z" stroke="#FFF" stroke-width=".2" fill="#FFF" fill-rule="nonzero"/></g></symbol><symbol id="svg-app-web_en" viewBox="0 0 149.23 44"><path d="M138.75 0H8.28a14.74 14.74 0 00-2.2.19A7.34 7.34 0 004 .9a6.91 6.91 0 00-1.8 1.3A6.68 6.68 0 00.9 4a7.78 7.78 0 00-.69 2.07A14.87 14.87 0 000 8.28v27.43a14.74 14.74 0 00.19 2.2A7.4 7.4 0 00.9 40a6.8 6.8 0 001.3 1.8A6.91 6.91 0 004 43.1a7.34 7.34 0 002.09.69 14.75 14.75 0 002.2.2H141a14.63 14.63 0 002.2-.2 7.4 7.4 0 002.1-.69 6.91 6.91 0 001.7-1.3 7 7 0 001.3-1.77 7.38 7.38 0 00.68-2.1 14.76 14.76 0 00.21-2.2v-1-24.2-2.2a14.89 14.89 0 00-.19-2.26 7.42 7.42 0 00-.67-2.07 7.1 7.1 0 00-3.08-3.1 7.73 7.73 0 00-2.1-.69A13.42 13.42 0 00141 0h-1z" fill="#6b6b6b" fill-rule="evenodd"/><path d="M9.29 43h-1a14.19 14.19 0 01-2-.18 6.4 6.4 0 01-1.82-.61 5.81 5.81 0 01-1.54-1.11 5.63 5.63 0 01-1.12-1.54 6.18 6.18 0 01-.6-1.82A13.15 13.15 0 011 35.7V9.29v-1a12.8 12.8 0 01.18-2.05 6.15 6.15 0 01.6-1.83 5.81 5.81 0 011.09-1.53 6.63 6.63 0 011.55-1.13 6.4 6.4 0 011.81-.59A12.06 12.06 0 018.3 1h132.64a11.63 11.63 0 012 .18 6.3 6.3 0 011.84.6 6.21 6.21 0 012.66 2.66 6.74 6.74 0 01.59 1.81 16.08 16.08 0 01.19 2.08v27.38a15.63 15.63 0 01-.19 2 6.32 6.32 0 01-.59 1.83 6.15 6.15 0 01-2.66 2.65 6.64 6.64 0 01-1.84.61 14.07 14.07 0 01-2 .18H9.29z" fill-rule="evenodd"/><path d="M23.57 30.64a10.94 10.94 0 002-4.21h4.4a10.63 10.63 0 01-6.37 4.21zm-10.89-4.21h4.4a10.94 10.94 0 002 4.21 10.63 10.63 0 01-6.37-4.21zm-.17-12.08H17a24.92 24.92 0 00-.67 5.41h-5.61a10.45 10.45 0 011.79-5.41zM19 9.92a10 10 0 00-1.74 3.44h-4A10.58 10.58 0 0119 9.92zm10.31 3.44h-4a9.67 9.67 0 00-1.75-3.45 10.54 10.54 0 015.78 3.45zm-3.08 6.4a23.74 23.74 0 00-.67-5.41h4.51a10.51 10.51 0 011.79 5.41zm0 1h5.67a10.45 10.45 0 01-1.33 4.7h-4.8a25.09 25.09 0 00.5-4.7zm-1.67-6.4a23.17 23.17 0 01.68 5.41h-7.9a23.13 23.13 0 01.66-5.42zm-3.25-4.7c1.09 0 2.22 1.36 3 3.7h-6c.78-2.34 1.91-3.7 3-3.7zM10.72 20.75h5.63a25.09 25.09 0 00.5 4.7h-4.8a10.58 10.58 0 01-1.33-4.7zm7.12 4.7a24.91 24.91 0 01-.5-4.7h7.94a24.11 24.11 0 01-.5 4.7zm3.47 5.44c-1.2 0-2.45-1.66-3.23-4.46h6.46c-.77 2.8-2 4.46-3.23 4.46zm0-22.22a11.61 11.61 0 000 23.21 11.61 11.61 0 100-23.21z" fill="#fff" fill-rule="evenodd"/><path d="M24.19 19.42v13.2l3.3-3.3 2.75 5.5s.75.23 1.1 0 .71-.72.55-1.1c-.75-1.82-2.75-5.5-2.75-5.5H33z" fill="#fff" fill-rule="evenodd"/><path d="M24.19 18.32a1 1 0 00-.42.08 1.1 1.1 0 00-.68 1v13.2a1.1 1.1 0 00.68 1 1.07 1.07 0 001.2-.24l2.22-2.22 2.07 4.14a1.11 1.11 0 00.65.55 3.3 3.3 0 001 .16 1.88 1.88 0 001.09-.26 2.09 2.09 0 001-2.44c-.45-1.07-1.29-2.74-1.94-4h2a1.1 1.1 0 00.78-1.88L25 18.64a1.1 1.1 0 00-.78-.32m0 1.1l8.8 8.8h-3.88s2 3.68 2.75 5.5c.16.38-.19.86-.55 1.1a.8.8 0 01-.44.1 2.61 2.61 0 01-.66-.1l-2.75-5.5-3.3 3.3v-13.2" fill-rule="evenodd"/><path d="M46.62 8.7v3.78a2.57 2.57 0 01-.69 1.94 2.75 2.75 0 01-3.6 0 2.54 2.54 0 01-.71-1.94V8.7h1v3.79a1.74 1.74 0 00.38 1.23 1.41 1.41 0 001.09.44 1.39 1.39 0 001.08-.44 1.74 1.74 0 00.41-1.23V8.7zM52.2 13.39a1.48 1.48 0 01-.59 1.26 2.56 2.56 0 01-1.55.44 2.33 2.33 0 01-1.68-.57 2 2 0 01-.62-1.52h1a1.26 1.26 0 00.35.88 1.39 1.39 0 001 .32 1.45 1.45 0 00.82-.21.74.74 0 00.32-.64.89.89 0 00-.31-.68 3.61 3.61 0 00-1.1-.53 4.16 4.16 0 01-1.37-.7 1.4 1.4 0 01-.47-1.07 1.6 1.6 0 01.56-1.28A2.14 2.14 0 0150 8.61a2.08 2.08 0 011.53.55 1.84 1.84 0 01.59 1.33h-.91a1.15 1.15 0 00-.33-.73 1.22 1.22 0 00-.88-.3 1.13 1.13 0 00-.74.23.77.77 0 00-.28.61.74.74 0 00.3.61 4.08 4.08 0 001 .48 4 4 0 011.46.81 1.53 1.53 0 01.46 1.19zM54.33 14.11h3.19V15h-4.13V8.7h4v.88h-3.1v1.8h2.72v.85h-2.68zM61.83 8.7V15h-1V8.7zM67.46 8.7h.94V15h-1l-3.1-4.61h-.08V15h-.94V8.7h1l3 4.58h.09zM75.94 8.7h1.15l-2.22 3.4V15h-1v-2.9l-2.25-3.4h1.15l1.54 2.35h.08zM80.36 15.09a3 3 0 01-2.25-.93 3.19 3.19 0 01-.9-2.31 3.19 3.19 0 01.9-2.31 3 3 0 012.25-.93 3 3 0 012.23.93 3.19 3.19 0 01.9 2.31 3.19 3.19 0 01-.9 2.31 3 3 0 01-2.23.93zm-1.53-1.6a2.09 2.09 0 003 0 2.35 2.35 0 00.6-1.64 2.32 2.32 0 00-.61-1.64 2 2 0 00-1.51-.66 2 2 0 00-1.53.66 2.51 2.51 0 000 3.28zM89.64 8.7v3.78a2.57 2.57 0 01-.64 1.94 2.75 2.75 0 01-3.6 0 2.54 2.54 0 01-.71-1.94V8.7h1v3.79a1.74 1.74 0 00.41 1.23 1.41 1.41 0 001.09.44 1.39 1.39 0 001.08-.44 1.74 1.74 0 00.41-1.23V8.7zM95.6 15h-1l-1.42-2.48H92V15h-.93V8.7h2.21a2.16 2.16 0 011.5.51 1.76 1.76 0 01.57 1.38 1.82 1.82 0 01-1.28 1.77zM92 9.58v2.05h1.16a1.28 1.28 0 00.89-.28 1 1 0 00.32-.75.94.94 0 00-.32-.75 1.33 1.33 0 00-.89-.27zM53.3 21.8H55L52.74 33H50.3l-2.1-8h-.14L46 33h-2.49L41.3 21.8H43l1.76 9.07h.15L47 22.6h2.19l2.15 8.27h.14zM59.22 24.84A3.63 3.63 0 0162 26a4.46 4.46 0 01.93 3.41H57a2.8 2.8 0 00.71 1.74 2.25 2.25 0 001.71.63 2.44 2.44 0 001.21-.3 1.77 1.77 0 00.77-.87h1.59a3.09 3.09 0 01-1.28 1.89 4 4 0 01-2.31.67A3.8 3.8 0 0156.44 32a4.31 4.31 0 01-1.07-3 4.14 4.14 0 011.09-3 3.65 3.65 0 012.76-1.16zM57 28.17h4.4a2 2 0 00-2.13-2 2.18 2.18 0 00-1.48.53 2.5 2.5 0 00-.79 1.47zM68.57 24.84A3.46 3.46 0 0171.22 26a4.22 4.22 0 011.08 3 4.33 4.33 0 01-1 3 3.39 3.39 0 01-2.61 1.16 2.86 2.86 0 01-2.45-1.22H66L65.78 33h-1.23V21.61h1.62v4.46a2.52 2.52 0 012.4-1.23zm-1.79 6.09a2 2 0 001.61.74 2 2 0 001.61-.75 2.84 2.84 0 00.66-1.92 2.89 2.89 0 00-.66-1.93 2.07 2.07 0 00-1.64-.74 2 2 0 00-1.61.74 3.36 3.36 0 000 3.86zM83.91 27.11a2.75 2.75 0 012.18 2.82 2.68 2.68 0 01-1 2.29 4.26 4.26 0 01-2.61.78h-4.1V21.8H82a4.11 4.11 0 012.54.73 2.43 2.43 0 011 2.07 2.36 2.36 0 01-1.63 2.4zM80 23.27v3.22h2a2.07 2.07 0 001.41-.44 1.55 1.55 0 00.5-1.21 1.38 1.38 0 00-.52-1.16 2.12 2.12 0 00-1.39-.41zm2.16 8.26a2.58 2.58 0 001.62-.47 1.56 1.56 0 00.59-1.29 1.73 1.73 0 00-.58-1.35 2.28 2.28 0 00-1.58-.52H80v3.63zM91.62 24.84h.53v1.66a2.86 2.86 0 00-.72-.08 2.12 2.12 0 00-1.57.67 2.78 2.78 0 00-.64 2V33h-1.69v-8h1.29l.26 1.12h.14a2.76 2.76 0 012.4-1.28zM97 33.16A4 4 0 0194.05 32a4.06 4.06 0 01-1.18-3A4 4 0 0194 26a3.93 3.93 0 013-1.16 4 4 0 014.1 4.16 4 4 0 01-1.17 3A4 4 0 0197 33.16zm-1.77-2.25a2.26 2.26 0 001.77.78 2.23 2.23 0 001.77-.78 3 3 0 000-3.81 2.38 2.38 0 00-3.53 0 3.06 3.06 0 000 3.82zM111.45 25H113l-1.9 8h-2l-1.49-5.71h-.14L105.9 33h-2l-1.9-8h1.55l1.37 6.26h.15l1.5-5.7h1.87l1.52 5.7h.15zM120.2 30.89a1.93 1.93 0 01-.85 1.67 3.63 3.63 0 01-2.16.6 3.41 3.41 0 01-2.33-.77 2.62 2.62 0 01-.92-2h1.6a1.35 1.35 0 00.52 1.11 2 2 0 001.16.36 1.67 1.67 0 001-.25.81.81 0 00.39-.72.94.94 0 00-.45-.82 5 5 0 00-1.31-.56 6.37 6.37 0 01-.73-.23 6.74 6.74 0 01-.69-.32 2.72 2.72 0 01-.61-.43 2 2 0 01-.41-.59 1.85 1.85 0 01-.17-.78 2 2 0 01.82-1.68 3.21 3.21 0 012.06-.64 3.09 3.09 0 012.1.7 2.44 2.44 0 01.83 1.73h-1.55a1.13 1.13 0 00-.44-.83 1.56 1.56 0 00-1-.32 1.35 1.35 0 00-.84.25.8.8 0 00-.33.68.86.86 0 00.39.73 4.76 4.76 0 001.27.55 5.35 5.35 0 012 1 2 2 0 01.65 1.56zM125.26 24.84A3.62 3.62 0 01128 26a4.46 4.46 0 011 3.4h-6a2.8 2.8 0 00.71 1.74 2.25 2.25 0 001.71.63 2.44 2.44 0 001.21-.3 1.77 1.77 0 00.77-.87h1.6a3 3 0 01-1.28 1.89 4 4 0 01-2.31.67 3.82 3.82 0 01-2.94-1.16 4.31 4.31 0 01-1.07-3 4.1 4.1 0 011.1-3 3.65 3.65 0 012.76-1.16zm-2.21 3.33h4.38a2 2 0 00-2.13-2 2.18 2.18 0 00-1.48.53 2.5 2.5 0 00-.77 1.47zM134.68 24.84h.53v1.66a2.86 2.86 0 00-.72-.08 2.12 2.12 0 00-1.57.67 2.74 2.74 0 00-.64 2V33h-1.7v-8h1.3l.26 1.12h.14a2.76 2.76 0 012.4-1.28z" fill="#fff"/></symbol><symbol id="svg-app-web_fr" viewBox="0 0 150 44"><g fill="none" fill-rule="evenodd"><path d="M138.748 0H10.488c-.403 0-.803 0-1.204.002-.338.002-.671.01-1.011.014-.738.01-1.475.074-2.204.195a7.078 7.078 0 00-3.871 1.986A6.904 6.904 0 00.9 3.98a7.293 7.293 0 00-.686 2.094 14.257 14.257 0 00-.196 2.202C.007 8.613.006 8.951 0 9.29v25.425c.004.342.005.673.017 1.014.007.738.073 1.475.196 2.203.12.73.353 1.435.686 2.094a6.852 6.852 0 001.297 1.776c.52.525 1.121.962 1.78 1.297a7.4 7.4 0 002.092.693c.729.12 1.466.185 2.204.195.34.007.674.012 1.01.012.402.002.802.002 1.205.002h128.26c.395 0 .798 0 1.192-.002.335 0 .68-.005 1.014-.012a14.481 14.481 0 002.2-.195 7.505 7.505 0 002.1-.693 6.948 6.948 0 001.779-1.297 7.033 7.033 0 001.3-1.776 7.291 7.291 0 00.68-2.094c.123-.728.19-1.464.204-2.203.004-.34.004-.672.004-1.014.008-.399.008-.797.008-1.203v-23.02c0-.404 0-.804-.008-1.202 0-.338 0-.676-.004-1.013a15.076 15.076 0 00-.204-2.203 7.316 7.316 0 00-.68-2.093 7.123 7.123 0 00-3.08-3.08 7.467 7.467 0 00-2.098-.69 14.354 14.354 0 00-2.2-.194c-.336-.005-.68-.012-1.016-.014C139.547 0 139.144 0 138.749 0z" fill="#6B6B6B"/><path d="M9.29 43.038c-.335 0-.662-.005-.995-.012a14.02 14.02 0 01-2.056-.18 6.474 6.474 0 01-1.822-.602 5.94 5.94 0 01-1.537-1.118 5.831 5.831 0 01-1.122-1.536 6.315 6.315 0 01-.599-1.824 13.587 13.587 0 01-.182-2.063C.97 35.471.96 34.7.96 34.7V9.29s.01-.76.016-.984c.008-.69.069-1.378.182-2.06a6.336 6.336 0 01.597-1.827 6.14 6.14 0 012.659-2.663 6.417 6.417 0 011.819-.599 13.726 13.726 0 012.063-.18L9.29.964h130.646l1.004.014c.686.008 1.369.068 2.044.178a6.523 6.523 0 011.838.603 6.145 6.145 0 012.656 2.662c.287.572.487 1.183.59 1.814.114.686.177 1.38.191 2.075.004.313.004.647.004.98.007.412.007.806.007 1.2v23.022c0 .4 0 .79-.007 1.182 0 .358 0 .687-.006 1.024a13.939 13.939 0 01-.188 2.038 6.291 6.291 0 01-.593 1.837 6.003 6.003 0 01-1.118 1.525 5.947 5.947 0 01-1.54 1.125 6.45 6.45 0 01-1.834.605 13.75 13.75 0 01-2.055.178c-.323.008-.66.013-.988.013l-1.192.002L9.29 43.037z" fill="#000"/><path d="M23.568 30.641c.817-.95 1.497-2.408 1.973-4.208h4.399a10.627 10.627 0 01-6.372 4.208zm-10.884-4.208h4.399c.475 1.8 1.155 3.256 1.97 4.208a10.634 10.634 0 01-6.37-4.208zm-.17-12.087h4.509c-.397 1.588-.636 3.426-.672 5.411h-5.635a10.495 10.495 0 011.798-5.41zm6.53-4.429c-.695.814-1.288 1.995-1.743 3.441h-4.025a10.63 10.63 0 015.768-3.44zm10.305 3.441h-4.026c-.457-1.454-1.056-2.639-1.755-3.453a10.605 10.605 0 015.78 3.453zm-3.077 6.4c-.036-1.986-.274-3.824-.672-5.412h4.515a10.534 10.534 0 011.786 5.411h-5.63zm0 .987h5.63a10.537 10.537 0 01-1.33 4.7h-4.8c.298-1.419.473-3.007.5-4.7zm-1.676-6.399c.397 1.515.65 3.345.688 5.411h-7.945c.038-2.066.292-3.896.688-5.41h6.569zM21.31 9.658c1.089 0 2.219 1.366 2.997 3.7h-5.993c.778-2.334 1.908-3.699 2.996-3.7zM10.72 20.745h5.629c.029 1.693.203 3.281.5 4.7h-4.8a10.55 10.55 0 01-1.33-4.7zm7.123 4.7c-.295-1.366-.477-2.95-.505-4.7h7.946c-.03 1.75-.211 3.334-.506 4.7h-6.935zm3.468 5.443h-.001c-1.2 0-2.453-1.663-3.226-4.455h6.453c-.772 2.792-2.026 4.455-3.226 4.455zm0-22.218h-.001a11.62 11.62 0 00-9.5 4.943 11.506 11.506 0 00-2.102 6.658c0 6.398 5.205 11.604 11.602 11.605h.002c6.398 0 11.603-5.206 11.603-11.605 0-6.397-5.205-11.6-11.603-11.6z" fill="#FFF"/><path d="M24.192 19.417v13.2l3.3-3.3 2.75 5.5s.744.237 1.1 0c.357-.238.71-.716.55-1.1-.756-1.816-2.75-5.5-2.75-5.5h3.85l-8.8-8.8z" fill="#FFF"/><path d="M24.192 18.317a1.099 1.099 0 00-1.1 1.1v13.2a1.099 1.099 0 001.878.778l2.22-2.221 2.068 4.135c.133.265.368.466.65.556.083.026.517.158.99.158.41 0 .766-.098 1.055-.29.742-.496 1.358-1.47.955-2.44-.447-1.072-1.292-2.74-1.938-3.976h2.023a1.099 1.099 0 00.777-1.878l-8.8-8.8a1.101 1.101 0 00-.778-.322m0 1.1l8.8 8.8h-3.85s1.994 3.684 2.75 5.5c.16.385-.193.863-.55 1.1-.12.079-.28.105-.443.105-.326 0-.656-.105-.656-.105l-2.75-5.5-3.301 3.3v-13.2" fill="#000"/><text font-family="Moderat-Medium, Moderat" font-size="9" font-weight="400" fill="#FFF"><tspan x="39" y="18">UTILISEZ VOTRE</tspan></text><text font-family="Moderat-Medium, Moderat" font-size="15" font-weight="400" fill="#FFF"><tspan x="39" y="32">navigateur web</tspan></text></g></symbol><symbol id="svg-btn_play" viewBox="0 0 45 44"><rect stroke="#FFF" x=".5" y=".5" width="42.835" height="43" rx="21.417"/><path d="M15.247 15v14l14.294-7z" fill="#FFF"/></symbol><symbol id="svg-facebook" viewBox="0 0 28 28"><path d="M26.5 0h-25C.7 0 0 .7 0 1.5v24.9c0 .9.7 1.6 1.5 1.6H15V17.2h-3.6V13H15V9.8c0-3.6 2.2-5.6 5.4-5.6.8 0 1.5 0 2.1.1h1.2v3.8h-2.2c-1.8 0-2.1.8-2.1 2.1v2.7h4.2l-.6 4.3h-3.7V28h7.1c.9 0 1.5-.7 1.5-1.5v-25C28 .7 27.3 0 26.5 0z"/></symbol><symbol id="svg-instagram" viewBox="0 0 28 28"><path d="M14 2.5c3.7 0 4.2 0 5.7.1 1.4.1 2.1.3 2.6.5.7.3 1.1.6 1.6 1 .5.5.8 1 1 1.6.2.5.4 1.2.5 2.6.1 1.5.1 1.9.1 5.7s0 4.2-.1 5.7c-.1 1.4-.3 2.1-.5 2.6-.3.7-.6 1.1-1 1.6-.5.5-1 .8-1.6 1-.5.2-1.2.4-2.6.5-1.5.1-1.9.1-5.7.1s-4.2 0-5.7-.1c-1.4-.1-2.1-.3-2.6-.5-.7-.3-1.1-.6-1.6-1-.5-.5-.8-1-1-1.6-.2-.5-.4-1.2-.5-2.6-.1-1.5-.1-1.9-.1-5.7s0-4.2.1-5.7c.1-1.3.3-2.1.5-2.6.3-.7.6-1.1 1-1.6.5-.5 1-.8 1.6-1 .5-.2 1.3-.4 2.6-.5 1.5-.1 2-.1 5.7-.1M14 0c-3.8 0-4.3 0-5.8.1S5.7.4 4.8.7c-.9.4-1.7.9-2.5 1.6-.7.8-1.2 1.6-1.6 2.5-.3.9-.5 1.9-.6 3.4C0 9.7 0 10.2 0 14s0 4.3.1 5.8.3 2.5.7 3.4c.4.9.8 1.7 1.6 2.5S4 27 4.9 27.3c.9.3 1.9.6 3.4.7H14c3.8 0 4.3 0 5.8-.1s2.5-.3 3.4-.7c.9-.4 1.7-.8 2.5-1.6s1.3-1.6 1.6-2.5c.3-.9.6-1.9.7-3.4.1-1.5.1-2 .1-5.8s0-4.3-.1-5.8-.3-2.5-.7-3.4c-.4-.9-.8-1.7-1.6-2.5S24.1.9 23.2.6c-.9-.3-1.9-.6-3.4-.7-1.5.1-2 .1-5.8.1z"/><path d="M14 6.8c-4 0-7.2 3.2-7.2 7.2s3.2 7.2 7.2 7.2 7.2-3.2 7.2-7.2S18 6.8 14 6.8zm0 11.9c-2.6 0-4.7-2.1-4.7-4.7s2.1-4.7 4.7-4.7 4.7 2.1 4.7 4.7-2.1 4.7-4.7 4.7z"/><circle cx="21.5" cy="6.5" r="1.7"/></symbol><symbol id="svg-linkedin" viewBox="0 0 28 28"><path d="M25.9 0H2.1C.9 0 0 .9 0 2v24c0 1.1.9 2 2.1 2H26c1.1 0 2.1-.9 2.1-2V2c-.1-1.1-1-2-2.2-2zM8.3 23.9H4.2V10.5h4.2v13.4zM6.2 8.7c-1.3 0-2.4-1.1-2.4-2.4 0-1.3 1.1-2.4 2.4-2.4 1.3 0 2.4 1.1 2.4 2.4 0 1.3-1 2.4-2.4 2.4zm17.7 15.2h-4.2v-6.5c0-1.6 0-3.5-2.2-3.5S15 15.6 15 17.3v6.6h-4.1V10.5h4v1.8h.1c.6-1.1 1.9-2.2 3.9-2.2 4.2 0 5 2.8 5 6.4v7.4z"/></symbol><symbol id="svg-twitter" viewBox="0 0 28 28"><path d="M24.5 0h-21C1.6 0 0 1.6 0 3.5v21C0 26.4 1.6 28 3.5 28h21c1.9 0 3.5-1.6 3.5-3.5v-21C28 1.6 26.4 0 24.5 0zM21 10.4v.5c0 4.7-3.6 10.2-10.2 10.2-2 0-3.9-.6-5.5-1.6h.9c1.7 0 3.2-.6 4.5-1.5-1.7 0-3-1-3.5-2.5.2 0 .4.1.7.1.3 0 .6 0 .9-.1-1.6-.4-2.8-1.8-2.8-3.6.5.3 1 .4 1.6.4-1-.6-1.6-1.7-1.6-3 0-.7.2-1.3.5-1.8 1.8 2.2 4.4 3.6 7.4 3.8-.1-.3-.1-.5-.1-.8 0-2 1.6-3.6 3.6-3.6 1 0 2 .4 2.6 1.1.8-.2 1.6-.5 2.3-.9-.3.8-.8 1.5-1.6 2 .7-.1 1.4-.3 2.1-.6-.5.8-1.1 1.4-1.8 1.9z"/></symbol><symbol id="svg-youtube" viewBox="0 0 39 28"><path d="M38.2 4.6c-.5-1.7-1.7-3-3.4-3.5-3-.8-15.2-.8-15.2-.8S7.3.2 4.3 1.1c-1.7.5-3 1.8-3.4 3.5C0 7.6 0 14 0 14s0 6.4.8 9.4c.5 1.7 1.7 3 3.4 3.5 3 .8 15.2.8 15.2.8s12.2 0 15.2-.8c1.7-.5 3-1.8 3.4-3.5 1-3 1-9.4 1-9.4s0-6.4-.8-9.4zM15.5 19.8V8.2L25.7 14l-10.2 5.8z"/></symbol></svg>